<mxfile host="app.diagrams.net" modified="2022-02-05T03:55:47.606Z" agent="5.0 (Windows NT 6.1; Win64; x64) AppleWebKit/537.36 (KHTML, like Gecko) Chrome/93.0.4577.63 Safari/537.36" etag="JHUxu3gevkZui7GCapah" version="16.5.3" type="github" pages="2">
  <diagram id="C5RBs43oDa-KdzZeNtuy" name="Page-1">
    <mxGraphModel dx="782" dy="433" grid="1" gridSize="10" guides="1" tooltips="1" connect="1" arrows="1" fold="1" page="1" pageScale="1" pageWidth="827" pageHeight="1169" math="0" shadow="0">
      <root>
        <mxCell id="WIyWlLk6GJQsqaUBKTNV-0" />
        <mxCell id="WIyWlLk6GJQsqaUBKTNV-1" parent="WIyWlLk6GJQsqaUBKTNV-0" />
        <mxCell id="zkfFHV4jXpPFQw0GAbJ--0" value="Person" style="swimlane;fontStyle=2;align=center;verticalAlign=top;childLayout=stackLayout;horizontal=1;startSize=26;horizontalStack=0;resizeParent=1;resizeLast=0;collapsible=1;marginBottom=0;rounded=0;shadow=0;strokeWidth=1;" parent="WIyWlLk6GJQsqaUBKTNV-1" vertex="1">
          <mxGeometry x="220" y="120" width="160" height="138" as="geometry">
            <mxRectangle x="230" y="140" width="160" height="26" as="alternateBounds" />
          </mxGeometry>
        </mxCell>
        <mxCell id="zkfFHV4jXpPFQw0GAbJ--1" value="Name" style="text;align=left;verticalAlign=top;spacingLeft=4;spacingRight=4;overflow=hidden;rotatable=0;points=[[0,0.5],[1,0.5]];portConstraint=eastwest;" parent="zkfFHV4jXpPFQw0GAbJ--0" vertex="1">
          <mxGeometry y="26" width="160" height="26" as="geometry" />
        </mxCell>
        <mxCell id="zkfFHV4jXpPFQw0GAbJ--2" value="Phone Number" style="text;align=left;verticalAlign=top;spacingLeft=4;spacingRight=4;overflow=hidden;rotatable=0;points=[[0,0.5],[1,0.5]];portConstraint=eastwest;rounded=0;shadow=0;html=0;" parent="zkfFHV4jXpPFQw0GAbJ--0" vertex="1">
          <mxGeometry y="52" width="160" height="26" as="geometry" />
        </mxCell>
        <mxCell id="zkfFHV4jXpPFQw0GAbJ--3" value="Email Address" style="text;align=left;verticalAlign=top;spacingLeft=4;spacingRight=4;overflow=hidden;rotatable=0;points=[[0,0.5],[1,0.5]];portConstraint=eastwest;rounded=0;shadow=0;html=0;" parent="zkfFHV4jXpPFQw0GAbJ--0" vertex="1">
          <mxGeometry y="78" width="160" height="26" as="geometry" />
        </mxCell>
        <mxCell id="zkfFHV4jXpPFQw0GAbJ--4" value="" style="line;html=1;strokeWidth=1;align=left;verticalAlign=middle;spacingTop=-1;spacingLeft=3;spacingRight=3;rotatable=0;labelPosition=right;points=[];portConstraint=eastwest;" parent="zkfFHV4jXpPFQw0GAbJ--0" vertex="1">
          <mxGeometry y="104" width="160" height="8" as="geometry" />
        </mxCell>
        <mxCell id="zkfFHV4jXpPFQw0GAbJ--5" value="Purchase Parking Pass" style="text;align=left;verticalAlign=top;spacingLeft=4;spacingRight=4;overflow=hidden;rotatable=0;points=[[0,0.5],[1,0.5]];portConstraint=eastwest;" parent="zkfFHV4jXpPFQw0GAbJ--0" vertex="1">
          <mxGeometry y="112" width="160" height="26" as="geometry" />
        </mxCell>
        <mxCell id="zkfFHV4jXpPFQw0GAbJ--6" value="Student" style="swimlane;fontStyle=0;align=center;verticalAlign=top;childLayout=stackLayout;horizontal=1;startSize=26;horizontalStack=0;resizeParent=1;resizeLast=0;collapsible=1;marginBottom=0;rounded=0;shadow=0;strokeWidth=1;" parent="WIyWlLk6GJQsqaUBKTNV-1" vertex="1">
          <mxGeometry x="120" y="360" width="160" height="138" as="geometry">
            <mxRectangle x="130" y="380" width="160" height="26" as="alternateBounds" />
          </mxGeometry>
        </mxCell>
        <mxCell id="zkfFHV4jXpPFQw0GAbJ--7" value="Student Number" style="text;align=left;verticalAlign=top;spacingLeft=4;spacingRight=4;overflow=hidden;rotatable=0;points=[[0,0.5],[1,0.5]];portConstraint=eastwest;" parent="zkfFHV4jXpPFQw0GAbJ--6" vertex="1">
          <mxGeometry y="26" width="160" height="26" as="geometry" />
        </mxCell>
        <mxCell id="zkfFHV4jXpPFQw0GAbJ--8" value="Average Mark" style="text;align=left;verticalAlign=top;spacingLeft=4;spacingRight=4;overflow=hidden;rotatable=0;points=[[0,0.5],[1,0.5]];portConstraint=eastwest;rounded=0;shadow=0;html=0;" parent="zkfFHV4jXpPFQw0GAbJ--6" vertex="1">
          <mxGeometry y="52" width="160" height="26" as="geometry" />
        </mxCell>
        <mxCell id="zkfFHV4jXpPFQw0GAbJ--9" value="" style="line;html=1;strokeWidth=1;align=left;verticalAlign=middle;spacingTop=-1;spacingLeft=3;spacingRight=3;rotatable=0;labelPosition=right;points=[];portConstraint=eastwest;" parent="zkfFHV4jXpPFQw0GAbJ--6" vertex="1">
          <mxGeometry y="78" width="160" height="8" as="geometry" />
        </mxCell>
        <mxCell id="zkfFHV4jXpPFQw0GAbJ--10" value="Is Eligible To Enroll" style="text;align=left;verticalAlign=top;spacingLeft=4;spacingRight=4;overflow=hidden;rotatable=0;points=[[0,0.5],[1,0.5]];portConstraint=eastwest;fontStyle=4" parent="zkfFHV4jXpPFQw0GAbJ--6" vertex="1">
          <mxGeometry y="86" width="160" height="26" as="geometry" />
        </mxCell>
        <mxCell id="zkfFHV4jXpPFQw0GAbJ--11" value="Get Seminars Taken" style="text;align=left;verticalAlign=top;spacingLeft=4;spacingRight=4;overflow=hidden;rotatable=0;points=[[0,0.5],[1,0.5]];portConstraint=eastwest;" parent="zkfFHV4jXpPFQw0GAbJ--6" vertex="1">
          <mxGeometry y="112" width="160" height="26" as="geometry" />
        </mxCell>
        <mxCell id="zkfFHV4jXpPFQw0GAbJ--12" value="" style="endArrow=block;endSize=10;endFill=0;shadow=0;strokeWidth=1;rounded=0;edgeStyle=elbowEdgeStyle;elbow=vertical;" parent="WIyWlLk6GJQsqaUBKTNV-1" source="zkfFHV4jXpPFQw0GAbJ--6" target="zkfFHV4jXpPFQw0GAbJ--0" edge="1">
          <mxGeometry width="160" relative="1" as="geometry">
            <mxPoint x="200" y="203" as="sourcePoint" />
            <mxPoint x="200" y="203" as="targetPoint" />
          </mxGeometry>
        </mxCell>
        <mxCell id="zkfFHV4jXpPFQw0GAbJ--13" value="Professor" style="swimlane;fontStyle=0;align=center;verticalAlign=top;childLayout=stackLayout;horizontal=1;startSize=26;horizontalStack=0;resizeParent=1;resizeLast=0;collapsible=1;marginBottom=0;rounded=0;shadow=0;strokeWidth=1;" parent="WIyWlLk6GJQsqaUBKTNV-1" vertex="1">
          <mxGeometry x="330" y="360" width="160" height="70" as="geometry">
            <mxRectangle x="340" y="380" width="170" height="26" as="alternateBounds" />
          </mxGeometry>
        </mxCell>
        <mxCell id="zkfFHV4jXpPFQw0GAbJ--14" value="Salary" style="text;align=left;verticalAlign=top;spacingLeft=4;spacingRight=4;overflow=hidden;rotatable=0;points=[[0,0.5],[1,0.5]];portConstraint=eastwest;" parent="zkfFHV4jXpPFQw0GAbJ--13" vertex="1">
          <mxGeometry y="26" width="160" height="26" as="geometry" />
        </mxCell>
        <mxCell id="zkfFHV4jXpPFQw0GAbJ--15" value="" style="line;html=1;strokeWidth=1;align=left;verticalAlign=middle;spacingTop=-1;spacingLeft=3;spacingRight=3;rotatable=0;labelPosition=right;points=[];portConstraint=eastwest;" parent="zkfFHV4jXpPFQw0GAbJ--13" vertex="1">
          <mxGeometry y="52" width="160" height="8" as="geometry" />
        </mxCell>
        <mxCell id="zkfFHV4jXpPFQw0GAbJ--16" value="" style="endArrow=block;endSize=10;endFill=0;shadow=0;strokeWidth=1;rounded=0;edgeStyle=elbowEdgeStyle;elbow=vertical;" parent="WIyWlLk6GJQsqaUBKTNV-1" source="zkfFHV4jXpPFQw0GAbJ--13" target="zkfFHV4jXpPFQw0GAbJ--0" edge="1">
          <mxGeometry width="160" relative="1" as="geometry">
            <mxPoint x="210" y="373" as="sourcePoint" />
            <mxPoint x="310" y="271" as="targetPoint" />
          </mxGeometry>
        </mxCell>
        <mxCell id="zkfFHV4jXpPFQw0GAbJ--17" value="Address" style="swimlane;fontStyle=0;align=center;verticalAlign=top;childLayout=stackLayout;horizontal=1;startSize=26;horizontalStack=0;resizeParent=1;resizeLast=0;collapsible=1;marginBottom=0;rounded=0;shadow=0;strokeWidth=1;" parent="WIyWlLk6GJQsqaUBKTNV-1" vertex="1">
          <mxGeometry x="508" y="120" width="160" height="216" as="geometry">
            <mxRectangle x="550" y="140" width="160" height="26" as="alternateBounds" />
          </mxGeometry>
        </mxCell>
        <mxCell id="zkfFHV4jXpPFQw0GAbJ--18" value="Street" style="text;align=left;verticalAlign=top;spacingLeft=4;spacingRight=4;overflow=hidden;rotatable=0;points=[[0,0.5],[1,0.5]];portConstraint=eastwest;" parent="zkfFHV4jXpPFQw0GAbJ--17" vertex="1">
          <mxGeometry y="26" width="160" height="26" as="geometry" />
        </mxCell>
        <mxCell id="zkfFHV4jXpPFQw0GAbJ--19" value="City" style="text;align=left;verticalAlign=top;spacingLeft=4;spacingRight=4;overflow=hidden;rotatable=0;points=[[0,0.5],[1,0.5]];portConstraint=eastwest;rounded=0;shadow=0;html=0;" parent="zkfFHV4jXpPFQw0GAbJ--17" vertex="1">
          <mxGeometry y="52" width="160" height="26" as="geometry" />
        </mxCell>
        <mxCell id="zkfFHV4jXpPFQw0GAbJ--20" value="State" style="text;align=left;verticalAlign=top;spacingLeft=4;spacingRight=4;overflow=hidden;rotatable=0;points=[[0,0.5],[1,0.5]];portConstraint=eastwest;rounded=0;shadow=0;html=0;" parent="zkfFHV4jXpPFQw0GAbJ--17" vertex="1">
          <mxGeometry y="78" width="160" height="26" as="geometry" />
        </mxCell>
        <mxCell id="zkfFHV4jXpPFQw0GAbJ--21" value="Postal Code" style="text;align=left;verticalAlign=top;spacingLeft=4;spacingRight=4;overflow=hidden;rotatable=0;points=[[0,0.5],[1,0.5]];portConstraint=eastwest;rounded=0;shadow=0;html=0;" parent="zkfFHV4jXpPFQw0GAbJ--17" vertex="1">
          <mxGeometry y="104" width="160" height="26" as="geometry" />
        </mxCell>
        <mxCell id="zkfFHV4jXpPFQw0GAbJ--22" value="Country" style="text;align=left;verticalAlign=top;spacingLeft=4;spacingRight=4;overflow=hidden;rotatable=0;points=[[0,0.5],[1,0.5]];portConstraint=eastwest;rounded=0;shadow=0;html=0;" parent="zkfFHV4jXpPFQw0GAbJ--17" vertex="1">
          <mxGeometry y="130" width="160" height="26" as="geometry" />
        </mxCell>
        <mxCell id="zkfFHV4jXpPFQw0GAbJ--23" value="" style="line;html=1;strokeWidth=1;align=left;verticalAlign=middle;spacingTop=-1;spacingLeft=3;spacingRight=3;rotatable=0;labelPosition=right;points=[];portConstraint=eastwest;" parent="zkfFHV4jXpPFQw0GAbJ--17" vertex="1">
          <mxGeometry y="156" width="160" height="8" as="geometry" />
        </mxCell>
        <mxCell id="zkfFHV4jXpPFQw0GAbJ--24" value="Validate" style="text;align=left;verticalAlign=top;spacingLeft=4;spacingRight=4;overflow=hidden;rotatable=0;points=[[0,0.5],[1,0.5]];portConstraint=eastwest;" parent="zkfFHV4jXpPFQw0GAbJ--17" vertex="1">
          <mxGeometry y="164" width="160" height="26" as="geometry" />
        </mxCell>
        <mxCell id="zkfFHV4jXpPFQw0GAbJ--25" value="Output As Label" style="text;align=left;verticalAlign=top;spacingLeft=4;spacingRight=4;overflow=hidden;rotatable=0;points=[[0,0.5],[1,0.5]];portConstraint=eastwest;" parent="zkfFHV4jXpPFQw0GAbJ--17" vertex="1">
          <mxGeometry y="190" width="160" height="26" as="geometry" />
        </mxCell>
        <mxCell id="zkfFHV4jXpPFQw0GAbJ--26" value="" style="endArrow=open;shadow=0;strokeWidth=1;rounded=0;endFill=1;edgeStyle=elbowEdgeStyle;elbow=vertical;" parent="WIyWlLk6GJQsqaUBKTNV-1" source="zkfFHV4jXpPFQw0GAbJ--0" target="zkfFHV4jXpPFQw0GAbJ--17" edge="1">
          <mxGeometry x="0.5" y="41" relative="1" as="geometry">
            <mxPoint x="380" y="192" as="sourcePoint" />
            <mxPoint x="540" y="192" as="targetPoint" />
            <mxPoint x="-40" y="32" as="offset" />
          </mxGeometry>
        </mxCell>
        <mxCell id="zkfFHV4jXpPFQw0GAbJ--27" value="0..1" style="resizable=0;align=left;verticalAlign=bottom;labelBackgroundColor=none;fontSize=12;" parent="zkfFHV4jXpPFQw0GAbJ--26" connectable="0" vertex="1">
          <mxGeometry x="-1" relative="1" as="geometry">
            <mxPoint y="4" as="offset" />
          </mxGeometry>
        </mxCell>
        <mxCell id="zkfFHV4jXpPFQw0GAbJ--28" value="1" style="resizable=0;align=right;verticalAlign=bottom;labelBackgroundColor=none;fontSize=12;" parent="zkfFHV4jXpPFQw0GAbJ--26" connectable="0" vertex="1">
          <mxGeometry x="1" relative="1" as="geometry">
            <mxPoint x="-7" y="4" as="offset" />
          </mxGeometry>
        </mxCell>
        <mxCell id="zkfFHV4jXpPFQw0GAbJ--29" value="lives at" style="text;html=1;resizable=0;points=[];;align=center;verticalAlign=middle;labelBackgroundColor=none;rounded=0;shadow=0;strokeWidth=1;fontSize=12;" parent="zkfFHV4jXpPFQw0GAbJ--26" vertex="1" connectable="0">
          <mxGeometry x="0.5" y="49" relative="1" as="geometry">
            <mxPoint x="-38" y="40" as="offset" />
          </mxGeometry>
        </mxCell>
      </root>
    </mxGraphModel>
  </diagram>
  <diagram id="hxq7wmQ1elMiCNQtR2GQ" name="MongoDB">
    <mxGraphModel dx="1117" dy="619" grid="1" gridSize="10" guides="1" tooltips="1" connect="1" arrows="1" fold="1" page="1" pageScale="1" pageWidth="827" pageHeight="1169" math="0" shadow="0">
      <root>
        <mxCell id="ZYQ59FQnp797e-77e3h0-0" />
        <mxCell id="ZYQ59FQnp797e-77e3h0-1" parent="ZYQ59FQnp797e-77e3h0-0" />
        <mxCell id="xPx-vmTFxCbN-LQDwMqh-40" value="&lt;p style=&quot;margin: 4px 0px 0px ; text-align: center&quot;&gt;&lt;i&gt;&amp;lt;&amp;lt;DAO&amp;gt;&amp;gt;&lt;/i&gt;&lt;br&gt;&lt;span style=&quot;background-color: rgb(0 , 255 , 0)&quot;&gt;&lt;span style=&quot;text-align: left&quot;&gt;BookDao&lt;/span&gt;&lt;br&gt;&lt;/span&gt;&lt;/p&gt;&lt;hr size=&quot;1&quot;&gt;&lt;p style=&quot;margin: 0px 0px 0px 4px&quot;&gt;&lt;/p&gt;&lt;span&gt;&amp;nbsp;@Repository&lt;br&gt;&amp;nbsp;+ public class BookDao extends BaseDAO&amp;lt;Book&amp;gt;&lt;br&gt;&lt;/span&gt;&lt;br&gt;&lt;hr size=&quot;1&quot;&gt;&lt;p style=&quot;margin: 0px ; margin-left: 4px&quot;&gt;@Override&lt;br&gt;&amp;nbsp; protected Class&amp;lt;Book&amp;gt; getEntityClass():&amp;nbsp;return Book.class;&lt;br&gt;&lt;/p&gt;&lt;div&gt;&lt;br&gt;&lt;/div&gt;" style="verticalAlign=top;align=left;overflow=fill;fontSize=12;fontFamily=Helvetica;html=1;" vertex="1" parent="ZYQ59FQnp797e-77e3h0-1">
          <mxGeometry x="700" y="770" width="340" height="150" as="geometry" />
        </mxCell>
        <mxCell id="xPx-vmTFxCbN-LQDwMqh-31" value="" style="edgeStyle=orthogonalEdgeStyle;rounded=0;orthogonalLoop=1;jettySize=auto;html=1;" edge="1" parent="ZYQ59FQnp797e-77e3h0-1" source="xPx-vmTFxCbN-LQDwMqh-21" target="xPx-vmTFxCbN-LQDwMqh-25">
          <mxGeometry relative="1" as="geometry" />
        </mxCell>
        <mxCell id="xPx-vmTFxCbN-LQDwMqh-21" value="&lt;p style=&quot;margin: 0px ; margin-top: 4px ; text-align: center&quot;&gt;&lt;i&gt;&amp;lt;&amp;lt;Entity&amp;gt;&amp;gt;&lt;/i&gt;&lt;br&gt;&lt;b&gt;Book&lt;/b&gt;&lt;/p&gt;&lt;hr size=&quot;1&quot;&gt;&lt;p style=&quot;margin: 0px ; margin-left: 4px&quot;&gt;- id: String&lt;br&gt;- price: Integer&lt;/p&gt;&lt;p style=&quot;margin: 0px ; margin-left: 4px&quot;&gt;- name: String&lt;/p&gt;&lt;hr size=&quot;1&quot;&gt;&lt;p style=&quot;margin: 0px ; margin-left: 4px&quot;&gt;+ gettr(Type): Type&lt;br&gt;+ setter(Type, Type): Type&lt;/p&gt;" style="verticalAlign=top;align=left;overflow=fill;fontSize=12;fontFamily=Helvetica;html=1;" vertex="1" parent="ZYQ59FQnp797e-77e3h0-1">
          <mxGeometry x="320" y="352.5" width="190" height="140" as="geometry" />
        </mxCell>
        <mxCell id="xPx-vmTFxCbN-LQDwMqh-22" value="&lt;p style=&quot;margin: 0px ; margin-top: 4px ; text-align: center&quot;&gt;&lt;i&gt;&amp;lt;&amp;lt;Controller&amp;gt;&amp;gt;&lt;/i&gt;&lt;br&gt;&lt;b&gt;Book Controller&lt;/b&gt;&lt;/p&gt;&lt;hr size=&quot;1&quot;&gt;&lt;p style=&quot;margin: 0px ; margin-left: 4px&quot;&gt;-&amp;nbsp;&lt;span style=&quot;text-align: center&quot;&gt;BookService&lt;/span&gt;&lt;span&gt;: @Autowired&lt;/span&gt;&lt;/p&gt;&lt;hr size=&quot;1&quot;&gt;&amp;nbsp;@PostMapping(&quot;/save&quot;)&lt;br&gt;&lt;span&gt;&amp;nbsp;+ saveObj(book): bookService.saveObj()&lt;/span&gt;&lt;br&gt;&lt;p style=&quot;margin: 0px ; margin-left: 4px&quot;&gt;&lt;span&gt;&lt;br&gt;&lt;/span&gt;&lt;/p&gt;&lt;p style=&quot;margin: 0px ; margin-left: 4px&quot;&gt;&lt;span&gt;@GetMapping(&quot;/findAll&quot;)&lt;/span&gt;&lt;/p&gt;&lt;p style=&quot;margin: 0px ; margin-left: 4px&quot;&gt;+ findAll():&amp;nbsp;bookService.findAll()&lt;/p&gt;&lt;p style=&quot;margin: 0px ; margin-left: 4px&quot;&gt;&lt;br&gt;&lt;/p&gt;&lt;p style=&quot;margin: 0px 0px 0px 4px&quot;&gt;@GetMapping(&quot;/findOne&quot;)&lt;/p&gt;&lt;p style=&quot;margin: 0px 0px 0px 4px&quot;&gt;+ findOne(id):&amp;nbsp;bookService.getBookById(id)&lt;/p&gt;&lt;p style=&quot;margin: 0px 0px 0px 4px&quot;&gt;&lt;br&gt;&lt;/p&gt;&lt;p style=&quot;margin: 0px 0px 0px 4px&quot;&gt;@GetMapping(&quot;/update&quot;)&lt;/p&gt;&lt;p style=&quot;margin: 0px 0px 0px 4px&quot;&gt;+ update(book):&amp;nbsp;bookService.updateBook(book)&lt;/p&gt;&lt;p style=&quot;margin: 0px 0px 0px 4px&quot;&gt;&lt;br&gt;&lt;/p&gt;&lt;p style=&quot;margin: 0px 0px 0px 4px&quot;&gt;@PostMapping(&quot;/delOne&quot;)&lt;/p&gt;&lt;p style=&quot;margin: 0px 0px 0px 4px&quot;&gt;+ delOne(book):&amp;nbsp;bookService.deleteBook(book)&lt;/p&gt;" style="verticalAlign=top;align=left;overflow=fill;fontSize=12;fontFamily=Helvetica;html=1;" vertex="1" parent="ZYQ59FQnp797e-77e3h0-1">
          <mxGeometry x="1030" y="285" width="290" height="275" as="geometry" />
        </mxCell>
        <mxCell id="xPx-vmTFxCbN-LQDwMqh-23" value="&lt;h3 class=&quot;md-end-block md-heading&quot; style=&quot;box-sizing: border-box; font-size: 1.4rem; margin: 20px 0px 7px; color: rgb(255, 255, 255); font-weight: bold; line-height: 1.43; padding: 8px 15px; letter-spacing: 2px; background-color: rgb(63, 81, 181); background-image: linear-gradient(to right bottom, rgb(0, 188, 212), rgb(63, 81, 181)); border-left: 10px solid rgb(51, 51, 51); border-radius: 5px; text-shadow: rgb(102, 102, 102) 1px 1px 1px; box-shadow: rgb(102, 102, 102) 1px 1px 2px; position: relative; font-style: normal; text-indent: 0px; text-transform: none; word-spacing: 0px;&quot;&gt;&lt;span class=&quot;md-plain&quot; style=&quot;box-sizing: border-box&quot;&gt;MongoTemplate&lt;/span&gt;&lt;/h3&gt;" style="text;whiteSpace=wrap;html=1;imageAspect=1;noLabel=0;portConstraintRotation=0;snapToPoint=0;fixDash=0;container=0;dropTarget=0;collapsible=0;metaEdit=0;treeFolding=0;" vertex="1" parent="ZYQ59FQnp797e-77e3h0-1">
          <mxGeometry width="260" height="90" as="geometry" />
        </mxCell>
        <mxCell id="xPx-vmTFxCbN-LQDwMqh-33" value="" style="edgeStyle=orthogonalEdgeStyle;rounded=0;orthogonalLoop=1;jettySize=auto;html=1;" edge="1" parent="ZYQ59FQnp797e-77e3h0-1" source="xPx-vmTFxCbN-LQDwMqh-25" target="xPx-vmTFxCbN-LQDwMqh-22">
          <mxGeometry relative="1" as="geometry" />
        </mxCell>
        <mxCell id="xPx-vmTFxCbN-LQDwMqh-39" style="edgeStyle=orthogonalEdgeStyle;rounded=0;orthogonalLoop=1;jettySize=auto;html=1;entryX=0;entryY=0;entryDx=115;entryDy=14;entryPerimeter=0;fontColor=default;" edge="1" parent="ZYQ59FQnp797e-77e3h0-1" source="xPx-vmTFxCbN-LQDwMqh-25" target="xPx-vmTFxCbN-LQDwMqh-34">
          <mxGeometry relative="1" as="geometry">
            <Array as="points">
              <mxPoint x="775" y="580" />
              <mxPoint x="675" y="580" />
            </Array>
          </mxGeometry>
        </mxCell>
        <mxCell id="xPx-vmTFxCbN-LQDwMqh-43" style="edgeStyle=orthogonalEdgeStyle;rounded=0;orthogonalLoop=1;jettySize=auto;html=1;fontColor=default;" edge="1" parent="ZYQ59FQnp797e-77e3h0-1" source="xPx-vmTFxCbN-LQDwMqh-25" target="xPx-vmTFxCbN-LQDwMqh-42">
          <mxGeometry relative="1" as="geometry">
            <Array as="points">
              <mxPoint x="775" y="580" />
              <mxPoint x="1170" y="580" />
            </Array>
          </mxGeometry>
        </mxCell>
        <mxCell id="xPx-vmTFxCbN-LQDwMqh-25" value="&lt;p style=&quot;margin: 0px ; margin-top: 4px ; text-align: center&quot;&gt;&lt;i&gt;&amp;lt;&amp;lt;Service&amp;gt;&amp;gt;&lt;/i&gt;&lt;br&gt;&lt;b&gt;BookService&lt;/b&gt;&lt;/p&gt;&lt;hr size=&quot;1&quot;&gt;&lt;p style=&quot;margin: 0px ; margin-left: 4px&quot;&gt;- MongoTemplate: @Autowired&lt;br&gt;&lt;/p&gt;&lt;hr size=&quot;1&quot;&gt;&lt;p style=&quot;margin: 0px ; margin-left: 4px&quot;&gt;+ saveObj(Book): mongoTemplate.save()&lt;br&gt;+ findAll():&amp;nbsp;mongoTemplate.findAll()&lt;/p&gt;&lt;p style=&quot;margin: 0px ; margin-left: 4px&quot;&gt;+ getBookById(String id): mongoTemplate.findOne(query, Book)&lt;br&gt;&lt;/p&gt;&lt;p style=&quot;margin: 0px ; margin-left: 4px&quot;&gt;+ getBookByName(String name): mongoTemplate.findOne(query, Book)&lt;br&gt;&lt;/p&gt;&lt;p style=&quot;margin: 0px ; margin-left: 4px&quot;&gt;+ updateBook(Book): mongoTemplate.updateFirst(query, update, Book);&lt;br&gt;&lt;/p&gt;&lt;p style=&quot;margin: 0px ; margin-left: 4px&quot;&gt;+ deleteBook(Book): mongoTemplate.remove();&lt;br&gt;&lt;/p&gt;&lt;p style=&quot;margin: 0px ; margin-left: 4px&quot;&gt;+ deleteBookById(String id): deleteBook(monbook) //调用上面的函数&lt;br&gt;&lt;/p&gt;" style="verticalAlign=top;align=left;overflow=fill;fontSize=12;fontFamily=Helvetica;html=1;" vertex="1" parent="ZYQ59FQnp797e-77e3h0-1">
          <mxGeometry x="570" y="332.5" width="410" height="180" as="geometry" />
        </mxCell>
        <mxCell id="xPx-vmTFxCbN-LQDwMqh-26" value="&lt;span style=&quot;font-weight: 400&quot;&gt;Pojo&lt;br&gt;实体层&lt;br&gt;&lt;/span&gt;" style="shape=folder;fontStyle=1;spacingTop=10;tabWidth=40;tabHeight=14;tabPosition=left;html=1;fontSize=23;fillColor=#d5e8d4;strokeColor=#82b366;" vertex="1" parent="ZYQ59FQnp797e-77e3h0-1">
          <mxGeometry x="330" y="160" width="170" height="110" as="geometry" />
        </mxCell>
        <mxCell id="xPx-vmTFxCbN-LQDwMqh-27" value="&lt;span style=&quot;font-weight: 400&quot;&gt;Service&lt;br&gt;业务层&lt;br&gt;&lt;/span&gt;" style="shape=folder;fontStyle=1;spacingTop=10;tabWidth=40;tabHeight=14;tabPosition=left;html=1;fontSize=23;fillColor=#d5e8d4;strokeColor=#82b366;" vertex="1" parent="ZYQ59FQnp797e-77e3h0-1">
          <mxGeometry x="670" y="160" width="190" height="110" as="geometry" />
        </mxCell>
        <mxCell id="xPx-vmTFxCbN-LQDwMqh-29" value="&lt;p style=&quot;margin: 4px 0px 0px ; text-align: center&quot;&gt;&lt;i&gt;&amp;lt;&amp;lt;DAO&amp;gt;&amp;gt;&lt;/i&gt;&lt;br&gt;&lt;span style=&quot;background-color: rgb(0 , 255 , 0)&quot;&gt;&lt;span style=&quot;text-align: left&quot;&gt;BaseDao&lt;/span&gt;&lt;br&gt;&lt;/span&gt;&lt;/p&gt;&lt;hr size=&quot;1&quot;&gt;&lt;p style=&quot;margin: 0px 0px 0px 4px&quot;&gt;○ mongoTemplate 就是一个封装的Dao&lt;/p&gt;&lt;p style=&quot;margin: 0px 0px 0px 4px&quot;&gt;&lt;span&gt;	&lt;/span&gt;&lt;span&gt;	&lt;/span&gt;· 定义了一个mapper映射&lt;/p&gt;&lt;p style=&quot;margin: 0px 0px 0px 4px&quot;&gt;&lt;span&gt;	&lt;/span&gt;&lt;span&gt;	&lt;/span&gt;·&amp;nbsp;产生了sql&lt;/p&gt;&lt;p style=&quot;margin: 0px 0px 0px 4px&quot;&gt;○ BaseDao对Service的共同操作进行封装，以this代替实体名称&lt;/p&gt;○&amp;nbsp;&lt;span&gt;反射获取泛型类型&lt;br&gt;&lt;/span&gt;&amp;nbsp;protected abstract Class&amp;lt;T&amp;gt; getEntityClass();&lt;br&gt;&amp;nbsp;- MongoTemplate: @Autowired&lt;br&gt;&lt;hr size=&quot;1&quot;&gt;&lt;p style=&quot;margin: 0px ; margin-left: 4px&quot;&gt;&lt;span&gt;+ save(T t): void&amp;nbsp; &amp;nbsp; &amp;nbsp;this.mongoTemplate.save(t)&lt;/span&gt;&lt;br&gt;&lt;/p&gt;&lt;p style=&quot;margin: 0px ; margin-left: 4px&quot;&gt;+ insert(T t): void&amp;nbsp; &amp;nbsp; this.mongoTemplate.insert(t)&lt;br&gt;&lt;/p&gt;&lt;p style=&quot;margin: 0px ; margin-left: 4px&quot;&gt;+&amp;nbsp;findAll():&amp;nbsp;List&amp;lt;T&amp;gt;&amp;nbsp;&amp;nbsp;this.mongoTemplate.findAll(this.getEntityClass())&lt;/p&gt;&lt;p style=&quot;margin: 0px 0px 0px 4px&quot;&gt;+&amp;nbsp;queryById(Integer id): T&amp;nbsp; this.mongoTemplate.findOne(query, this.getEntityClass())&lt;/p&gt;&lt;p style=&quot;margin: 0px 0px 0px 4px&quot;&gt;+&amp;nbsp;queryList(T object): List&amp;lt;T&amp;gt;&amp;nbsp; this.mongoTemplate.find(query, this.getEntityClass())&lt;br&gt;&lt;/p&gt;&lt;p style=&quot;margin: 0px 0px 0px 4px&quot;&gt;+&amp;nbsp;queryOne(T object): T&amp;nbsp; this.mongoTemplate.findOne(query, this.getEntityClass())&lt;br&gt;&lt;/p&gt;&lt;p style=&quot;margin: 0px 0px 0px 4px&quot;&gt;+ getPage(T object, int start, int size): List&amp;lt;T&amp;gt;&amp;nbsp; this.mongoTemplate.find(query, this.getEntityClass())&lt;br&gt;&lt;/p&gt;&lt;p style=&quot;margin: 0px 0px 0px 4px&quot;&gt;+&amp;nbsp;getCount(T object): Long&amp;nbsp; this.mongoTemplate.count(query, this.getEntityClass())&lt;br&gt;&lt;/p&gt;&lt;p style=&quot;margin: 0px 0px 0px 4px&quot;&gt;+&amp;nbsp;delete(T t): int&amp;nbsp; this.mongoTemplate.remove(t).getDeletedCount()&lt;br&gt;&lt;/p&gt;&lt;p style=&quot;margin: 0px 0px 0px 4px&quot;&gt;+&amp;nbsp;deleteById(Integer id):&amp;nbsp;void &amp;nbsp;this.delete(obj)&amp;nbsp; &amp;nbsp;// 调用上面的函数&amp;nbsp;delete(T t)&lt;br&gt;&lt;/p&gt;&lt;p style=&quot;margin: 0px 0px 0px 4px&quot;&gt;+&amp;nbsp;updateFirst(T srcObj, T targetObj):&amp;nbsp;void &amp;nbsp;this.mongoTemplate.updateFirst(query,update,this.getEntityClass())&lt;br&gt;&lt;/p&gt;&lt;p style=&quot;margin: 0px 0px 0px 4px&quot;&gt;+&amp;nbsp;updateMulti(T srcObj, T targetObj)):&amp;nbsp;void &amp;nbsp;this.mongoTemplate.updateMulti(query,update,this.getEntityClass())&lt;br&gt;&lt;/p&gt;&lt;p style=&quot;margin: 0px 0px 0px 4px&quot;&gt;+&amp;nbsp;updateInsert(T srcObj, T targetObj)):&amp;nbsp;void &amp;nbsp;this.mongoTemplate.upsert(query,update,this.getEntityClass())&lt;br&gt;&lt;/p&gt;&lt;p style=&quot;margin: 0px 0px 0px 4px&quot;&gt;- getQueryByObject(T object):&amp;nbsp;Query&amp;nbsp; &amp;nbsp; &amp;nbsp; &amp;nbsp;//&amp;nbsp;将查询条件对象转换为query&lt;/p&gt;&lt;p style=&quot;margin: 0px 0px 0px 4px&quot;&gt;- getUpdateByObject(T object):&amp;nbsp;Query&amp;nbsp; &amp;nbsp; &amp;nbsp;//&amp;nbsp;将查询条件对象转换为update&lt;br&gt;&lt;/p&gt;&lt;p style=&quot;margin: 0px 0px 0px 4px&quot;&gt;-&amp;nbsp;getFiledName(Object o)&lt;/p&gt;&lt;p style=&quot;margin: 0px 0px 0px 4px&quot;&gt;-&amp;nbsp;getFieldValueByName(String fieldName, Object o)&lt;/p&gt;&lt;div&gt;&lt;br&gt;&lt;/div&gt;" style="verticalAlign=top;align=left;overflow=fill;fontSize=12;fontFamily=Helvetica;html=1;" vertex="1" parent="ZYQ59FQnp797e-77e3h0-1">
          <mxGeometry x="10" y="640" width="620" height="410" as="geometry" />
        </mxCell>
        <mxCell id="xPx-vmTFxCbN-LQDwMqh-30" value="&lt;span style=&quot;font-weight: 400&quot;&gt;Controller&lt;br&gt;访问层&lt;/span&gt;" style="shape=folder;fontStyle=1;spacingTop=10;tabWidth=40;tabHeight=14;tabPosition=left;html=1;fontSize=23;fillColor=#d5e8d4;strokeColor=#82b366;" vertex="1" parent="ZYQ59FQnp797e-77e3h0-1">
          <mxGeometry x="1068" y="160" width="194" height="110" as="geometry" />
        </mxCell>
        <mxCell id="xPx-vmTFxCbN-LQDwMqh-34" value="&lt;span style=&quot;font-weight: 400&quot;&gt;Dao&lt;br&gt;数据操作层&lt;br&gt;&lt;/span&gt;" style="shape=folder;fontStyle=1;spacingTop=10;tabWidth=40;tabHeight=14;tabPosition=left;html=1;fontSize=23;fillColor=#d5e8d4;strokeColor=#82b366;" vertex="1" parent="ZYQ59FQnp797e-77e3h0-1">
          <mxGeometry x="560" y="600" width="190" height="110" as="geometry" />
        </mxCell>
        <mxCell id="xPx-vmTFxCbN-LQDwMqh-35" value="" style="shape=image;verticalLabelPosition=bottom;labelBackgroundColor=default;verticalAlign=top;aspect=fixed;imageAspect=0;image=data:image/png,iVBORw0KGgoAAAANSUhEUgAAAggAAAD1CAYAAAA1bw2NAAAAAXNSR0IArs4c6QAAIABJREFUeF7svQecFdWaPboqnNQ5N9CEBpokSSTnqCAqopIUFREx53Tnzsy9b2be+/9n5uZowoQEQUEygiCKgZxz6AY659wnn6p6v++rczrRCCiZXfeiNl1h19q79rf2F9aWyl0+A+IQCAgEBAICAYGAQEAgUA8BqcKpCYIghoRAQCAgEBAICAQEAg0QkCqduiAIYlAIBAQCAgGBgEBAINCQIFTUCA+CGBMCAYGAQEAgIBAQCDREQBIEQQwJgYBAQCAgEBAICAQaIyAIghgTAgGBgEBAICAQEAichYAgCGJQCAQEAgIBgYBAQCAgCIIYAwIBgYBAQCAgEBAInB8B4UE4P0biDIHAZUHAMBoWEEmS1OA5P/X7813buMF0fuP7N3VO6O/Od27ovPrtoGtCP1/I9WabAILhgs4H4UUYGXyN3Aivy9JJ4qYCgZsYAUEQbuLOF69+dRE4n5FvbHyptXUGFdCDFcrnM64XYrTrG+uLIQlNEYTztac+uaDrZZmMfkNy1FTPaDBJjgQDoeJs5QKuu7q9LJ4uELh+EZDKqgNCB+H67b+bvuX1zcqVG8iNn3S2cTtvu4Ir+kAgAI/HA0dYGGRZ5tUxHWx4DYB+LysKr5YlSaa1MxtIp8sNRVFgs1rZtppG+ex20H18Xh+sDc7jJ4QexZfR4+hZbrcHYQ4HVItqji1e3jM1aXqsBb0gPp+PW261Wvjc0Nl1a37z8rrfAJquweVywW6zm88jTJgsnP08uo9fDyA9PQM+rxetWrdCdFQ0VH75ek3jB9IL1dKQkNPBfAcp+N4/9U43/VclABAIBL/CUkEQxFi4ThFobBLJJvx8knCuK5syjHSuZhobyIChNEDwwtqlQ4KOM1k5WLlqDbr3uBW9brsVkZF2yJIBIwD4vTrWbVyP6NgYdOrYGYqiMhHw+zzY/P0W1LhcuGf8OCQlxAdtZMO2kjGucbqwavUaJCQlo2/f2xAZEcEEQ4ZuGn8oMCSNfkJ2TgGWLl2Btu3bYeiQQYiPjeI2mhyByEtTB63mDRw8cBB7Du7DoMFDEBcVG7y3xPAEmQYgKdAD9GyCTUJJWQk2fr0RKc1bY+SIYYiMtEFVJEgGEaGzcff43Fi06AtknM5EXEIs7rpzLNJSU7kf/H4vEwCbzRHsk7q2apKOqooqWGQLIiLskGUdOvfZ+b0W1+mnIZotELgkCEilNcKDcEmQFDe5sgiwcSOzVv8ImubzxqbpusaEoDG9IDNGf+qvhelZofP04GqUzgmutvnXod/Xv39T7dIhGToqqp34dNHnOHz4GG7r3Qv33DMOMdERkCUFPrcfCxcvxYn0dJw+dRq6rkPXdMiygVap7VFWXoG2rVPw7FOzkZAY1zCOT6txSHD7/Fi2bDm+/uYbtG7dGuPH34nuXW+BzUJrb5PgGNBgSMDxE6exatV6VNVUo6ysGK+98gJS27SCLNXHoSHioRDDzp078dnSFSguKYXb6QLFAAyKA7BjQEJYWBh7CwgfGSoMQ4ekKhg4aBByc3LRMiUZT8x6GBHhDm63cVbfAh6vH+vWbcLBQ8dx9MQR3H77CEx+YALstjCsWrUWWZk56NO3H4cfqM30DPImeDwufLNpMyLDI3HvhPHo3KkdJEUQhCv7wYqnXY8ICIJwPfaaaLOZqAadjWJdHJxMS8hN37S73TyfCEIjciFRfFuGoVOk22ADTavr+qtMMqR0HT1FJwPH3m0Vuo564QEybnSeGSYgI0lucwlKbVvNcIDOptmvG9i+fTe+3fwjc4tWrZtjyqR7YbPa4HX78fEnn+Hg4cMoLS1Gy5YpsNkscFY74fZpCIuIgNdVg5dfeBYdOrZtQBBM40+rexkl5WVYuXINMk6dgsViRb++t2H0yFGwWy2Q6V2kAK/YT2Zk4u2330dZRTkMQ8O///pNtG+XWhveONewo/fcs2cvFixajsysLMRFRyM5KQGSZCCgGygrrUSrVq1x7MQRtGieBJvFzrhWOV3weL1w1jjRIa0Nnn9+NuLjoiEb5N+gfqg7CEGPJ4Bly9Zg46ZvIVsUPr9ZUhyiomKxadP32L1zP/YfPISAoUFVFc7RMEeBgfZtO1APwGaT8fxzTyIxKUF8RQIBgcB5EBAEQQyR6xcBSUJ1jQtutwtRUVGw26ww9DrS0DhZjpLhAgGNjb/L5ebYf3R0dC3ZKC4uZaOfnJzEmJydbEfudh2BgI6iolI2nHHxcQgPt/N9NU2HJMsIaDrKy8qRl5cPv9+P1LZtEB8bw/ejPAOT0JgEwZAUVNW48e5772PHtj2IjonEf/7nv6J5UiJ8Hj8WL1kFj8+LQ4cP4NVXX0LLls1x4lg6vvtxGw4cPIzWLZvh12+8Fgx31O9KjdfhtF7XDIkN8V/+8TaOHj6GMIcVv3rzdaS2acMxfAMB9iBknM7CwoVLoXHioI43X3sZNovCoY1GBRe1DwpVR2zfsQOfLVmDispy3D56BCZPmsir+GqXC3//23u8uo+OseONN15CYnwCDEnG7j0H8f0P21BSXIxbunTAtGkToTDpIgImMfGiPAvzMOBx+7D+q2+we88+OL1u9Lq1G04cP4qBAwdC1zSsWvkVSstKMHHiBCQlJwe9OUBRaSl2796HwvxC9OndA08/PRMOG5EUcQgEBAI/hYBUUu3/+WFbga1A4CohQAarstqJefMXssGvdtagZ/duGDNqOFRV5tUrWz229HWldH5/ALt27ceePfuQn5+HpMREPDDpfsDQsWDBQtQ43Rg8eCBGjBgGm61e6CDkEYCBE8dPYcGCxaisrML48bdj3LjRvFotr6jAwQOHsP/gUU6ma5GSwm51IiaprVogKioSQ4cOQUJiAucZEEkwON4uY/N3P2LJ58vRqmUKnn1uFsLD7PC4vPhw7iIcPnoEVquMN3/1Cq/Ajx1NxwcfzYfT7UHbNq3w2ssvQlFCnhPzcw55EHgNLcnsdv/+x+2Yv2ABoiMi8cLzz6JVq5aUgcDt0CXg1KlszJv3KfILi5HSshnefPVFOOxW0zwblCRp+m3M+9dlWlBf7N27B1+s/ApZ2ZkYd8do3DfxblCTatxezHn3E5SUlEO1BvDcc7ORlJAAw1Bx8PBRrFixFpmZWRg/7nZMmToBMoVGyINgKKiqqsLSpV/gwIED8Pn8nNRowALVYkVBcSFsNiv/fVRkJFqktEB5eQVKiwowedL9SExM5JCMrMgoLCvDzp17UFRQhNGjhmL6g5OgsIdIHAIBgYAgCGIM3HAIkFEqLi3Fxx8vhKxYcTz9BMIcNjz/7FNol9qS4/RkaEKZ62SIyYhXVlThs6UrkZObB93QUFVViWHDBmPMyCFYuGApjh7LQAB+/PY3v0KLpGQ2iqGD3N5e3Y+1q7/G5m9+RFl5KYYO6Idnn5mFwpIirP/qa2gBGTt27+W4enhEOBspVVGhKgqaJSeiTdsUTJ06CdFREcGEerK6lHgYQH5+PsLCwxAXHwFFtiAzMw//fPsjZOVkoXPHdnjppacRGxOJw4dPYtOmH1BQVIrwqHC8+srz8LpdgKQjLIySHM0YfChdIlRJ4PZ4cfz4cTasHdLS2DNgagmYoYhTp87gnXfeg6zaEBUVhtdfeREOhxpMGCSyZIZmCDcKrUiSEtQwAHbu3IX35y5GSUkxOnXogNtu7cGszGfoOHTwGFdbZGadxrBhgxAZEc7vnJtbgJzsXOZxvXp3x7Sp90MiD5BBtEXj9p85k4VFiz5DUVEJXL4Aqp1OpKamIjsrGxGR4bDbbdwG8jZQVcOunTvgCKMqDAt7FSi8Q+Gg9u06oKq8EkOG9MNDD00+Z8rlDfehiBcSCPwCBIQH4ReAJy69egjQSrawsBh/+vNbKCwqQXKL5nC7atCrZw9MnToRYXYrJPYgmKVttAKm1IO9e/fj43mLkFdQiI6dOiA7OxNjRo/Eg1Puw7Zte7B790Hs2LMds2Y9ipFDhta5uCUyjRrKq6sxb+6nnJhIq+YnH5+BQf374quvNyInr4CTDQsL8nBrr1vRpUsXDmG4nG6cOZON3NxsnMnMwMuvvIiut3SB3+czkwQNICP9FLw+Hzp17IDomAheGa9f9zX27T+GjNMZGDViCB6cNglWq4ITJzLw2ecrUFBYCvLJd+/eBRZZRnV1Ffr174PevXtBkWWzyCKYVqnrGkpLShEbFwuLpX4pokkfCB8iCCtWrGIPAhGY1197CWE2C2i/14qqKtRUV6N5i2QuZeRqBLmOIOzatRtrN36H9PR0VFVUwGGzQtP8kFQVHncA8fEJKCktZE+IyuWcRGIs6Nz5FmTnZGPk6OGYOnmiabjJq0JlHEEvhdvlhc/vx9Zd+1BYWMjlmJs3b8bIkcMwZOhANG/WDOvXf81tr6mpxoiRwxETHV2bm1JZXYNDB4+isrSckxQffOgBKOdNZL16Y1s8WSBwrSAgFVf5RIjhWukN0Y4LRoAIAmXM//Mf78OvGTh64hg6pLVHVWUVXnnlWaS1TzUTA1lvwHTlO51uzPtkPo6eOIWsnFw0b9EMbrcTw4YOwSMPTUFRYQkWLV6KGo8LEWF2PDlrJiIiIrhNlD9AyW97DxzAiuVrkZ9fgObNk/DMk7Ph9/owf+GnyMzOQXlFOR647y6Mv3McwsPDg8mLEpxOL/Lyc3H48BH069cHp06fwr49+zg3wOf1w+fX4HZ6uE0T7r0LRUXF+PabH5CbXwBND+CVF59Dh7R27LYng7do0TJkZeci/XQGew2iw6OQk5OFtLR2ePa5p9mIFhQUcG4E0aTCokI2rsnJyRg6ZAhKSinfIpjgyTOAjPy8Qixbvpz1BqKjozBt8mTYrBZQWObI0aNIzziJoUMHY/DgQVBl0mYw8ynI1u7avQcffPIpiouLcdutPTGwfx+uIPD6fdi6ZRfsDgeyc87g9jEjERMVxcY/KysH+/YegC8QwJChg5ggcH+xB6GOIJCLoaS0HEuWr+J203vV1NRw7kfnLmno168/hxd27tiNffv3Yfz4cZyTwjkfkoyyiioUFpQgPzsXAwf2xYPT7odSq7dwwUNOnCgQuOkQEAThpuvyG+OFyTARQXj3vbnILyiCN+BHZGQ4G5Cxd4zEpAcmwqpYOdZPtfyaBpw4cRLLl61EaUUNCoqK0fPWHjhx4hgGDRyAh6ZMQkDT8OX69diybSf0gB+vvvwCWqak1CYWun0+zPnwY+zZvY9X6w9Muhf33TsBy79YiQ1ff8c5CF27d8bzT89CM0p0ZMMbjNpTHkBI/o8qBk6exMdz5+LUqdNcLWGz2jlUUlVVjrZtU9mAVpRXwef3YtLk+zGofz9Yg6WJOnSUljqx5Itl2LVnN+w2C5olJcNiUdCiRTNMmTIJ+w8cwuJFS+D1eUEiRiSU1LNHD+zeswdt2rRBZUUlXG4XAgE/hwooj0PTDHTq1BGyFdi5YyciHFRuKXOlg9Vhh9NVgzCHHc889xRu7d6dwyYsbiRJHGJYtmYdSktLMWr4UNx/PyUpSnB5Pfj7P97BsaPHkZwch9dee4V1G4iQHDp0CN9/vwWZmTm4tXdPrt5gZUSDckioEsRMVPR6/di8+Tus37QZJSWlXK5ZVlYGq1VF8xZJyM3JR9euPbBly1YUFubzu4YSTCn/g0ZAZGQ0vC636UF4UHgQboxZQLzF5UZAKq4SSYqXG2Rx/0uPABGEkrIy/N//+RO8fg12uwWJ8fGwOSJQWV6Cp55+HEkJiZAlKksEqqvd+Pzz5SgtL8PhI0fQJrUtqwZmZWVh7B1jMH3qZCiqjL3792Htug28mh8yqD/G3nk7LAoZTx2nz2Rj7vyF0AIaKipK8Pzzz6Bly5Z466334AiLxt59e3HPPWNxz7ixsFqstavrYMFhbeoglVNqgQDyCwpwOvMMAgFg69ad8HoCOHLkEFQLGUUfZNnCCZfNmjWDzWLlREoWLuKQiYUT+Wqc1Syu9NC0yejcuROv5inHoLKqGt9++z2OHz+GiIgoHDl8DF6/HzU1VUwg/D4vDuw7AHuYgzUKqE3kyqdwjdNTA10LoPstXaFy8mNIxVFno09VGXeOu53DL5ysKEnYvXsP6yBk5+Rg+LChuOP2MUwu3F43PvtsKXs0apxVePThhxAbQxUdCk6eSMfGjZuY6N0xdjQmPTDBzPnQZchcekm5BRL2HziMjz6ai+zcItjtDs7TIMGj/v374rvNm+FyedE+rQNqapzIyjyNkSNGIDqGQgzmuKuqrkR2Vi5KikowbPhATJ16Pyyy0EG49F+luOONhoBUXCWEkm60Tr0Z3ocIQlFJCT6e9ylKyitgkQ0M6t8fy5evQXxcPO6deBf6DbgVCqnmaTKOHD2Fjz5ZiMzM02jVqhlGjhyF0xk5OHbsGPr1741Hpk2GYiF1v1J8+NE8HD9+GlFREfiP//g3REc4oAck1ipwevzYsGEtOrRLxXPPPoWyigrM+/QzVFS7kJudhddfeh6dO3YMhhZCPRHK/Q/9HCyrYGOvo7CoDB9+vIjd7Ta7iogIG7r36I6kxGSsX78BBQWUExCDlJbNYVEl9nR4PToKCoq43r+mphzj7hiJJ2Y/Ye5VEAwdUIKkpvtg6DL++Q8z+fDo8UP4219+xzkLAfr0ZQlkKwnPUxnZWLyIyhwBRQVefel5hNkpX8EMQdQ/JDWkaGxqPPz441Z8vnQFCgoKObciLDyc28F5CJLEVQWnT59GZGQEl3fS/YhAtE1Ng8WqIq1DGzzwwL3mvgyGDItqMCmjPIt/vjMH+/YdQnxcAtLSOsFHXhF/DR55ZBpOHjuJrOwcJCQ3w85du5CdlYWnZ89G8+bNaglCSUkJvv9uCzIyTmH0mGF48KHJUBuIYN0MX4x4R4HAxSMgCMLFYyauuAYQ4BBDWSn+z//+EeWVVWjTsjkmTZzIXoLIyEjOLXj19RcQEW6HoUuYv2AJvvthCyqrKzFhwp1o26Ydvtn0PecEjB07Gg9PmwKLTeJkuC9WrEFGehYyM8/gsRkPoX/f3tD8GhYs+BxHTqQjN+cMZs+agRHDhyK/sBBvz/kQ5VUuaH4v/uu3/4aEuNig+uBPA2UqGBomQfjoU7jdbrjdVZj95Ey0SGkOVbHg6NGjeP/9j2CzOjB79izEJ0SzzsKGr77lVTG1sU2bFDz80DSkprapFXYyV8+ky2DA79Pxlz//EyfST7Hh/8ff/gCLqvBK3SAyAcr2p0TJLCz5fCVy8nKRnJyI1199gZMNzaOh8JQhk9Q0EQuqlpCwdet2fLXxG5w5k8mEICEhAV6vF9nZWXw15T5QPgflJ5oEAfD5NH5HMuCjR4/AQw9PDj5FBrGU8opKLFn6BTZ8/S0io6Jx74R7UF3twv79++F0VeLFF59FqxYpcHs8+H7LNqxZ+yUK8gqQEBsPm42qG8zwB3kv6Kketwd3jB2Fhx+ZCpXVIcUhEBAI/BQCgiCI8XFdIsAehNISvPv+XHj8fhiaD88//SR++H4LDh48gtLSMkyeMpFLGEuLy7H482U4nZmJGlcVXnn5BRQXleKbTT8iJycHgwf3x8PTJkO1SiwSlF9Ygr/++S2OyXfo0AYzZzyM8tJK/PVvb+FMdg6Sk+Lw+msvolVKC9OLMf9TOCJicOzIIfyf//wNYiLNBLnzH6Q/oKOwuAwLFy7jcEBMbAT+679+w7kLFHunUoT33n0fRw4fx+wnH0efPr2Qk5uDL9duYMO/c9cOzHzsUQwdPDhYnVD3VN7YSdLh9+v4+1/fQWW1C0XFeexBsKpUgSBDokoEjvcbOJWejbff/gB+LYCkpHjOwTA9CGdvBKUTQQgSBy2g4+DBw1j02RKUlVVw9cawYUMRFxeH5cvJq1DApG3AgAHo2aMrLKpZuVFVWY3Vq9eirKwcEyfeg+49OgfvqSDgCeDHLVvx8cdzERYdifvuux+9enXDkiUrOAckPMKBp5+ahYiwMBw5ehx5RUUc5sg6k4kBfftzkiLLOVMehNuFzDPZKCkuxbg7x2D6I1NgIReIOAQCAoGfREAqqhQ5CGKMXH8IhKoY/vz3t5FfWIRWKcl44ZmnoKgq5n68kEv2WrZqhlkzH8MPP2xBbl4htu7cjgEDe2PGjEdx+OAx7Ny5D3t278Hw4UNqCQLd1+M38Pni5cjLz0dxcQFefv4ZnDiejn37D+PgkSMYOLAPx9LJeFbVOPH3t95BVl4RVMnAr994FSnNm18wQQiFGN55by4nJdodVrz+xktcQnlg/yHcOX4sayT84x9voU2blnjq6dnYtm079u45iOPH0tGxUxorLFJZJ6/zGxMTSUPAr+Ovf3kbxaXlqKgqwz/++nsWUiIhJpsjjEMrJAl9+nQ2Vq/+CoXFxay2+MarL9UKJTX2IOhEKtiDICEvtwCfLlqE9mkd2VOwfPkyzhVIS0tD9+49sXbtWk5ejI2NxahRw9G/H5VhWjjP4tChI8hIP8PlmS1bJnG4gTe/Chgs+fzN5k1o3TYV3bt3h24EsG7t11i79isO4Tz95OOICA/DJ/PmISe/EF6fH7d07oDZsx5nDwZLXcNATXUNvv32O2RmZmLkqOHo2aMLpYVef4NetFggcIUREAThCgMuHndpEOAQQ2kJ/vCXf7Lev90q4ZUXXmCxHNodsbKyGjv37MKdY8dhDwkX5RYgoHnx+usvolPnDti+fS/WrF6P7OxsjBkzAtPJgxDa4liSsXnzD/hq4yY2WH1690ZxYSmys3JwMv0EXnv9ZXTr1hmqYrDx/fCj+QjoCg4dOojJk+7FsMEDg8qGwTU2G9KQBLS5iRAlBXKFg2x6EBYtWg6SeiblxQH9+2Ljhq/g9rgx49EH0a//AMydOw979x3Ebbf1Qm5ePrvy7VYrnnlmNvr2uZU9DQ19FqYLncIHAb+Bv/z5LZzJymQ1wj/+4Xc4fOgQvtv8PesI9Ol7G8f+T5/KwbvvfICKqmqktm2FV198Dg6Htc7tX6/rdCpDpBwDHbzSnzPnA9zaswfGjh2H5StWIi+PyjM1Fq4iQaYv137FpK15syQ8+/wsREVGY9u2HVxZQsJPlHg4eHA/9B/QG9FRkbUllBTykRUVTqcLx09koEXzFti3fz82fPU170w5fPhgrl5ZtWYtwsLoOgkPPzwVKSnN4XI7WYOCdCOogqRTxzTeBZKiK4pB73UhXp5LM17FXQQC1yMCgiBcj70m2swIFJaU4P2P5iG/qAix0eF48ZmnkRCbgOMnT2LeggXIzM6FwxEOj9sLj8uDIYP74+mnHoPFrjJBOHToOHsQ+g+4DdMfnAoLlQ8EV+HkPXjngw9QWFAEny/A98nPzUfHDu3xb//+LwgLs0IiN7smsWv+n2/NQVhkBJKS4zBrxsOmoqFMksFmHJxEmlxuNwzNQGRURDCBjpIEdRQUl+D99+fh4KGj5l4RZNb9PowcPgyPPDoVEVFR2LvvEFavXQ+nkyovsk39hiED8PRTT3BGf60qUmhs1KpIavD7jGCSogWHDh/G9OnT8enCT1FQWIDxd47GzJmPsi7A6dO5WL5sNaicU4KG115+4ZwEAZIGzdBRVeXC6nVfYeOGb9A5rS3uuutuJjMVNU506dIZs2c9CIc9nIWMqOzytt63YubjD8NqseHdd99jgjBo8HAWS0pJaQGvz8UlkrTVdEjAiXJISIhpzgefYOLEu9CxYwe8++6HHDZo3iIRL738PI4dO4qv1n/Diot33DGKExHXf/UlcrLzIUsq55q0btMSTzwxk0WUFIMLKsUhEBAI/AQCUmGFEEoSI+T6Q4DLHMvL8P/9zx/g9viQlBCDl59/jhPUKqurseizz9n9T5n+ZIyqKkvx1JOz0O2WTrxJ49atu7Duy695zwTaS+EhJghmXJruTYlv8z5dxKteipGrqhXVlVV47LFHMGLEEDPbXtJBmxhofh1fLFuOnPwC5OblYtjgQejTpw8cdjvfizaGOnnyNLZt3QqPx42Zj89E27atzM2UJI0VGD/7fCVvAkU6BaoM9iJMmzIFCQnxnDhJGzN9PG8+ZFnl8sKqygo8+8xT6Nn9Fi6FrC0yoOA+qyeH9qHQ4PNSkuJbOH4yA5WVlVxJQJoGPXp0w4xHp3NVBx2nM7Ix95NFyMsvQGpqS5MgnCsHARqLPG3c+C02btqMvPwiDO5/G8aNuxOrVq9Fdl4e2rdvh1kzp8LhCOOSUlKZTE5K5l0pKbzw7rtzcPTIMTw4fRrLVm/Zsg1WqwO9et2GB+6/i9UgKYRB2gdEOvYfOIIhQ/vjjrF3YM3qdTiVcQbdunfBgw9NQXl5GZZ9sQoHDhxG//59MGXq/Vi8eDG2bd2J++9/gAlEQAtwqegD9z+Adm1aB2Wmr7+xL1osELhSCAiCcKWQFs+5pAhQbLmouBgfz1/MREAy/Hjx2WdY+4DKAA8eOYq5n8zH4EFD8NVXX6Fjx7Z4+slZCLPbWZ6YCML2bXu49K5v31vxEFUxWCy18ryUrHg6Kxt/+MOf0KFDR05YLMjLxWuvvYjmnGNgvg5xBNp2Oic3F58t/QIRETHIzcrhWDzV5YeHh3G44/TpTI7nV1ZV4MmnHsegAQN4zwRy1dMWxStWrmcyU1RciA7t2+Op2Y+jVctWcNZ4sHfffixfuRL5RYW8t4DForLxjQwLR78+fdmrERsfw38fKnEknkAVAxRiIA2ID9+fB0W1Y8vWrfD7PWjbrjVmzpyBjmntoVpIkEjHmdM5mDNnLicuhofbftKDENA17NixEws+XYyo6Hhu+6D+vTBy1Gi89977rADZt19fPP7YNESER5r5ACFvCiUoVlXjd//7B+Tk5GHaQ5PRLi0VK1esRm5uIZKTmvGujyTERCJPX365AYcPHUF5ZSW6duuEESNHYM57pgfhngl34f4HJnAwhfau2LZ1OydytkhJxqcLF7N89vTpUxAfH8ebcVE/UpjixeeeZAJ3Ycmkl3RNQ7pXAAAgAElEQVToipsJBK4bBKQC4UG4bjpLNLQ+AgZKy8vx57+9hZOnTuGWTh3w3FNPIiEunovoql1uzJu/AOknTyE3NxcvvPgEBg3oB0VSecuhPXsOYN26jTh65CjuvHMMpk2dDDUYYgh5EWrcHnwybz7KyytZ8bBf3954fOYjsJBoET9FCko5gxPosvMKsGLFl7yypSx6kh1u1aoV5wuUl5dz2KFHz1vw8CMPIj42Fgot+yUdxWXlmD//c+zatQuO8DDMeHg60tq3w+nTGdiz6yAOHz6KopJi2Bx2dO3WFa3bpOD4sRP0UKQ0a8FVAonJcWzs0tLaY8iQIXA4yPhREzXk5RZh/rxFKCmtQV5eHuwOFY/NfBj9+veFlbdTpl0SwTkIK1asYaMdFx+N12izpnPoINBGSHv27ceni5bA5fGyG//pJx9FbFwcPv/8C5RXVnOZ44B+vTnnwm63s/eESBiJJGWeyWSPCWkelFYU4fEnHuP9KNat+wpjxozhXTnpfQ4cOMRiSqlt2mLjpk2YMPFudO3aGatXrmPS1ap1CgYN7sfbfMuylZUXqXKjsrKCiUVJcSX69uuBKVMn47PFS3D0yHFEhIfj12++xPtk8Pbb4sMSCNxkCJhbtJ3/kAoqRYjh/DCJM641BGg1SnoAe/ft46S1tm3a8B4BDoeDRz55EWh3xG83b2ZX8t333MXJb6Yv3mCXN602j584jv79+6Fnz57s0q5/kBchLzcP3//wA1xOJwYNGhRUKwxFr4NpbqRsSP/jlXENTp86gyNHDnNogrQNqP4/OTmJJYLbtktFbCwpCdK15n1ot8GK8kqs/XI9PG4f7DYbMjLSUVZWysl5ZGg7duyIIcOG4taePWGz23hTpB3bd+DA/gOs5kjvc+DAft5M6amnnsQtt9xSuwU07aVAUsikaEhtuvvuuzD+rvFcAVA3TRgcbvnb396CItsQGxeFN994BQ5H00JJNLnQhlJnzpxhcaTkZslo27Y1V1ysWrUWP/ywHdHRcewxIaISGRmF4qJCJCUnobqqAoqsICWlJU6cOA6LVcGTTz7BOQsklR0THWP2I8B7Uixfvpy3fI6PT8STTz2JsDAHVq5YhV279nA1BG1ERXiGhYWz3HVUdCw8HheXXBIxCQuT8eKLzyM8PALLli1Dpw4dMXz4UPa4UONELsK19nWL9lwrCEh5Fd4LIRLXSntFOwQCtQiE3NaapvFKkP7UdxnT7+l3dCgK/Z5q/+uGu9/vN7djVs24flMHE5FAoPbevAEQx8bP/mzqu9BDzw25/MlIhq4NeShCqofUhqKiIrzLegfH2OBR5j9t9tS6TSuMGTMaPXv2YElkU/bYNGlEHHbv3o3ly5Zz1UBSUhKmTpuEW2/twYaxrj2me/+HH7ayoZ0xYwYbYPOdyZ9iHhkZGXj77XdRXlqDNqkt8cabr8ARZgtyiEZCSYbB2IWwoDaRF4X2dCgpqcAXX6zAqfQz8Pg8TND497SVM/OzumvJ0zJi5FAMHjyQ91CoC0XUkTV6T/LAkGQ0YUL3Is2IxYs+R2VFDZMzSgY1N48y38eESGIyNXr0cCYE1M/Ul3Q9KVCa5wl6IKYUgcC5EBAEQYyN6xKBpgx0Uy9SZ6DNnQtDBqH+f5+LGPwUME0ZllCbzGc2vDpkh5p6Lv0dxdo3bPiawwnNmiUjNTUVLZo3R1JyIhvFEIGh+3AeYvDfRCYoBJKdncPS0K1btwpqCZgGsj5OVCFBxtbce6HOMIYwIm/Hpk2beOXdp09v3ripjjc19K40iT8nZJgiSFQ5QnkGfIQaHEwArb9kp7ZERIQxgWMCEWwXlYE27q/6iNK5VVVV8Hr85iOCpMAwzN0reYsIgImSIyw8GNqoe+c6IiEIwnU5AYhGXxEEBEG4IjCLh9x8CNQ3POd30pExpFp9WuHSSjdkKBtFPZqE0SQjoeeRkQ09r7FXpKl21Kkk1kkT+7kN5s+hR16IIW10/2BBRf1Gs1rDWav2c7Wr8evWeTvOOZ6ozY1+abDb4qy/vfmGpHhjgcBFIiAIwkUCJk4XCFwYAhdGEBp6HYKaCfXdDySAdB7bTF51Kgc0kxKDBIF1EBrvN0AZfPVaz3bZNJ51HgGy6mSIzRPNCP2FkIPQfc29K1mXgf/VKDTBP17IPghNGHRu13kOekV+97qD9ps4+xXOT9rO9yjxe4HAjY6AIAg3eg+L97vuEKhPGi4k1zjkQajzHIRe+UJWzWfnFnD4IniLn5fC14TxrbvhRRKOBqb+/H3ZiJAEWc75rxNnCAQEAmchIOWWewSVFgNDICAQEAgIBAQCAoEGCAiCIAaEQEAgIBAQCAgEBALCgyDGgEBAICAQEAgIBAQC50dAeBDOj5E4QyAgEBAICAQEAjcdAlJuuRBKuul6XbywQEAgIBAQCAgEzoOAlFMmkhTFKBEICAQEAgIBgYBAoCECgiCIESEQEAgIBAQCAgGBwFkICIIgBoVAQCAgEBAICAQEAoIgiDEgEBAICAQEAgIBgcD5ERAehPNjJM4QCAgEBAICAYHATYeAlF3qFkqKN123ixcWCAgEBAICAYHATyMgCIIYIQIBgYBAQCAgEBAInJ2DkCU8CGJYCAQEAgIBgYBAQCDQCAEpUxAEMSgEAgIBgYBAQCAgEDiLIJSJHAQxKgQCAgGBgEBAICAQaIiAdKbUJZIUxagQCAgEBAICAYGAQKABAoIgiAEhEBAICAQEAgIBgcBZCEhnSoQHQYwLgYBAQCAgEBAICAQahxhKRA6CGBQCAYGAQEAgIBAQCJxFEMRujmJQCAQEAgIBgYBAQCDQiCCcLhYeBDEoBAICAYGAQEAgIBAQBEGMAYGAQEAgIBAQCAgEzoOAdKpIJCmKUSIQEAgIBAQCAgGBQCMPgiAIYkgIBAQCAgGBgEBAINAYAeFBEGNCICAQEAgIBAQCAoGzEBAEQQwKgYBAQCAgEBAICATOJggZhU4htSwGhkBAICAQEAgIBAQCDRCQ0gVBEEPiPAhIF4CQYJkXANJFn2JAMghZif9v0D8u9WHIkOGDxre2QNEBQzIAKQAYKnT6a4mefBmefanf5Zq+nwbJkAlc6Iofsq4G+5X6t+7rMSBDD2ItG4S7AUNqjD39TGdqMAwFAZl+lGExAjAkHQFJhUWToHM/XtOg3PCNo++X+pD6i3qMPyf+p9nnOn3XhgGDxwadA2iQoOsadF0P/pHoV+af4HUyTQmSxH8UWYaiKJDpOzWnCkjmo/jv+N/8L/qlOZ8YRrBVdI+f6AUpvUh4EG74UfpLXvAC55jQ+PsljxLXNkLAnBF4WjGYINQ7zjIaF48e3V4yJCjwIyDJMKBA1Q02LLJExkc1nykRTZCFsbl4iGuv0KFBNiRIhgJN0k0aQN1LMz0bBpqoJZ7IA5LE/U1kTTEMaErDKVyn+1BvGRr3mU+hq2XYtAD3l1dWYdN0aNRll2Cc/ILXvnkvZWJA31cdQdCgApLCfa3pOvx+HW4ANU43qiqrUV5RhYqqatR4vQgEAlBVOp9HBQCF+zK4XGDiQEOHHhLQNBiaDotkIDw8DBERDsTGRiM2JgrRDhVWVYWqmERApXvoWu24kCTdJC7nGCeCINy8Q/icb06Mtv4hhzhv6O/rGasG/FOsVi7JaKrFnz5aNgbEEGhC4PU8yLyc64O+uAaQuyAAwwhjYmBIPgRUHbKuwDCskCQ/ZMMkB3poaXJxDxBnBxGgFZsmm54DJWBHwFJtTv56kIQFfTRWPcAEjVaWZBRMYlb/e6T/Ju8OrQJtkCSNR4TBHh8LVF2FBC/8ChkT8g6Jj/JqDELJMP1A9E/qB59fQ407gGqXD2XVTpRWOlFaUYkKF1EEGQ5HGGw2B6w2GxSrFaqiQmI3gdn9siTxH9OTQN8qkQb2L0HX6BuVoAf88Hrd8Pk88Ho9/G/JH0BMdDhio8MRExOO2MgoRIc5EGFX4FAMqNCg0eIg5HJoBJYgCFdj9Fyjz6xPDJitBglB/fmJ/o4GLhkMgz6C4MAKktlr9M2ur2bV4h5cgZi+A5MUmBSBXImXYOLnSUyDD5EI11zQDS9cVgfsAT8CRiQM1QXV0CDpNuiyLjwIv2AYSboBv2JA0Q04fDqqLRRqsLKXQJV0SJoPoFWlFAZZCkAhwy8ReVCCHpzQww0ogUrk5RRDjWiD6AQrLDqNCg0+2YYwzYey7BOoiU5CUkwCGjkffsEbiEsvCgH2CsnwaEBRWTXO5BagpKwKGnnsrGFQbQ4oFiusqgFVlWHoFC5QTJpYG9IL+QtCXggztGQGGog8NjooTEFkkedtnecKv67C7/dA83sQ8LsR8HlBPozk+CikNk9ESmJMMAzR9JwiCMJF9fqNfXIovkVjMOD3IaAZsFgtUCUZWiAAj9cHi1WFZgD2MDsMnpjM2DjzWV7oELulf5tuUHPtQ67VoBv1Eti1G7YX6sUYeaIwNGjuGgT8fvglC9TwGEiKCiutIEMBB5pMggtMdmoGf2D3Nf/PdF2H+oKnGFq5BsMXtEp1KxaoZSfx9YZv0WnIfSg9thuGIxU9BrXi8IOih/OqtdFdgtHU4MPPE8u8YfvsAl9M1b3wIwyK5ET6ji+weGMW7pn+JDqlJsOq1cBVkoOF8+chuus4jB01CBFW8jZQH1pgSBSVrjskZzY+fGshOgy4D31GdIRNI+JhgVuVEKEVYfl7f4e//VDcNXo0LGbwWRxXGAEiAt6AhO37j+JkdhGiEpsjJjoWNouFwwP8ebN3Tif3QGgG5c/XDCQ0PBrnH4WWCrVn8aQbIg10f8prMJgksPeBw4mALkvw+n2oKi+Bp6YCqa1aoFenVoiw0rUhQhJcC9B0clIkKV7hoXPtPo7Miab6IXuAosMbsXBDJmY8MwNx9ghkHv0W85YewMgxaUhP92LKjImIMHzs6vTKDkiyGzbNBkP3w6tqsFASluGHT7HAQoNU90IDrY5MUiGOJhAwKA8gwAmCFr8VFaW7sGrtNvj9CmBxILFlW4y8YzTCdB90Wl1K9FET7gYnplFmUkD2cXhA9VXh+OHtcMZ2Rrc2LeEwAvBLgE0DKq12RPm98Ckyuyz9kg1awR588PcPMHT6G8j4cQ18SYMx4f4uiNS90HUrJ8LZ/FYEVC902KFoHuhycFIJkgPB/c49qilU45MlqEYAe5b9N95ZfgDdhj6G6Y/egwTVjwObF+KtOYvQbsgTmPXEJNilKmgVlfBJEbBHhyGSchp9OqqqqqD7irFs3go0Gz0dd92WgEqnE24vuamjEe6oxoY5/4PqDhMwYdQQqA3CE+Kru1IIuH06th8+hcziSiQlJsPiiDCJetAryySdGxOaD0Nfj0nD6x+hRVb9v2uKRARXZuZp5goBNKPwEQxVUsaBTk4pylXxelBUVIjW8dEY1C2VQw4B9mIQwTDbI50sFFLLV2rQXOvPIcapSAFQSEsu348//G0Jhs14Fb1axeLb5R+g2HYr7uhrw4niSPTs2QpGSRkyTp2BrkSgdZfmsNS4UCNFonlsAsqyMuBNSEF8mI6ivCzYolIRH0WZtsH02msdjKvRPv6m/ZyZbg3UYOPKj1EstcfYsWPYc1DjciE+1gZX5klk55TBHR2Hzm27AEoArvx8OKVqlJe60Kp9D8B5GIvn/B3FKWMx8+5hSJHLketR4C1xI7pjW9idbhzLzITVqiAtrQes3kzM/fNb6D/9DZzashruFqMxeXxzVGfn4FRhOeyRCeiS2gWGNx01FUB+ZQkSW7RBfHx8bTa16NlzDxpJkxBQfZyouH/F77C9QMKRPQWY/eZv0SHBiaWffIDM3CLEtxqDSQ/2w3ebv8eub7bAr1rRd/ADGHNnB5zcugWr16xHVFQcqvP86Pf4bIxKKMQ7S1cjr6AYXToMwbipd2Lfkr/CnTYB94waCItgbVfjS0Z5tRuL1m1BcpuOiI+0MTkwc4fONvOXrUKoycxxMv4a5xyQI6Oc8iAK8zBpVB/Eh6vwyxYOO5ohTEkQhKsyeq7RhxK7tfk0OK0qdKMIWz+bj5zIUbh/dBwWv78MPe6djujS7Zi3LRcvTbsdaxcvgVNRoLhU+MJboEcrCXsLLHhh8mDMe/ttWHrdiZEd4vDxgoUYOeV59EoNh0IrXXE05T4w44cIwNDCYXgP44M/fYLOdzyNAX1aQJap2iCA4uPbsWTtNsTEJaCitBhKTCeMHtoJC/4xF817dwEq8+FRW2LUsDb47G//jZzmY/HMvcMRSF+EVQd13NZ1ANq3C8f3W9IRFumAtzIfMqJw7/23Y/Xb/0SvGf+CzB9WwNV8GIa3L8XqFd8gLCEBruJKdOg3HFGBk1i19ija9euBIf36oX379pBlkxoIgvATHgSNkhTJ4wbsWfMnnJTawJ57DHrsaHRpVYSN24vRzF6KMl8X9Oqj4cuvT+LFp1+C130cn/x1FfpO6Ie1C9bhwVdmo4W1DB//9xcYNPM+5H39CVwtR2Pgbc2waf1+tB/SH95D66G3H4u7iSBwqrs4rjQC5dVefLj8GyhRyUhLSUS4wwJJJi9fqOTQDBtp5AmsjdJd2r4KRnzrXp3ji2Y+A4WJq5xenMnJhTXgxrQxvZEYZYVfpuRkLZjcKgjClR431/bzDAOy4YNfopCBH9n7NmDVuiyMvrMdvvkxBw8+Mg2lGV9j/o9ZmDm0M/7+x08Q07snwipKsPe4hn975X6s2rwVM+7pgC27TuN0XhWG9h+AXcdycP/MGUiUfZyII46mECD3AREEmjAkBJyH8d4f38Mt457HmL4tuBxO1n3Y/+XH2BvojOl33YHSvD1453cb8NDL/bF0zg+Y8OobSPHvx2//uA7P/+pxbF/xdzhTp2DGyK7YveJN7PcPwCOTpyNnz3xsTrdixtT7YZSfwO/+7xyMf/QR7Pv0A3Sd9Rvk/bAEVclD0FH7Hp+sPoAet6ShPPs4wlL7oG87A99nROGxpx5BEsUriBgIgnDeIS1pMjTFy7Hgnav+iuO2zrizrRUffbIVlgig85AHYMtch4OV7dA1zYPdJ1146smnEeY9jrl/moM2PQdgzfLtmP37f0H7sFws/sNnSBk5DEeXvoWaxGHolBYLSQtDh/7dkbnpE3jb3WUShEtrc877nuIEE4HyKi8+XL0F5VI0HLKO2HAbYmKiEBsTCZtCZF/j713n+TDozr8Uicf1OsBMVQweIY0FTUN1jQcFJRUoq3HDr0tIDtPx0Oge7EHwyVbW16DqF/7fiQKhgyAGde0oglcNwBawQNUsKHYexLLf/xNFiMEtt9+HaX0HYG/GCnzxbQ5mjuiGBfO/RK9HpiJV0aFbktEiXsU36+egusiC5P4DUfzNUhTbW6JNr6G4fdgA2CQzZ0Ec50JAh6HbISkuqP4KLJn/FgrsvTDj7pHQZAtqqstRuX8ttlY1w/S7b0dp5la89/YhTH2uG1Z/sg33/OoltCs/gZd++zme/d+nsWflW/AmjMKMOwZi+7p/xxHpdkyfOAEVu9/D0oN2zJw2EXrRQfzzr4sw9rEnsH/BW+jy+G+Q/8NnqGw2BLequ/D1CWDcyBGwWN1wxLZF6b4F+OZUFGbNehQRChG+uv4UHoRzj2zKOieCoGrAzjXvIMN6Cx4Z2A1/++O/Y19JEv7f3/07Mla/hQOVzTB+YBreXrwU48dPBEqysPlIGR6dNAZr3/tvRA16CO2kAiz/aA3u+NW/Qs7chAxPJPr2H4woJRIJzS3Y9ulf4EybgPHDB4gchKs02VTWePH+qm2odrTmZGOfpwbwVcNuUdAiIRZx0eGwUwI4eWAVGZIcLEhtItmXPzEzpaBRhKKu0qxuBjdP5FoHA/DqAWgBDR6fD9VV1SguKYfTa0CyOCDZwhEwVCTbajB95C2Ij1A5GZqCIUpwnpaOCYJwlYbQNfhYUzmHY+A0SCR/ATatXILFX5fgtV8/gc7JHXAq+2v8uCcTE+8Zhz3rv0FOXh6M8HA4mvXE2OGdkXf4eyz6dAcmPvUoogp+wKLd5bhr6gzc0iwcukzuNeFBaLrnuaIZMBQoBqAaLpQUn8Dq9T8i4FUgqVFIapGCXl1b4psNq+CXbfDrCjp36Y+OKQ5sXPc9Bk2diRR3Jv4053M88MJTKNq9Ft9tzcKw8fdBqfoBxXo7jB4+CpayY/hi7SZUe3VoqoRmbbphWPd22PDF5+hx5yPI3b8Frtj2GNRWwoaNG+GBAz41Al1vvQ1Rzgwczdcw7u574VAbZtdfgyP6mmoS1/QYBgpzTsNtWNG5RQJOnDwGlx6NLp1TUZJ5FJVeB9q1TUL6mXRknMyC1RqJNj16o12yAzUFp7F7fwbC7DGICI9CUmoKYhxe7Du8D4UlbtjtUejeowvcFSWQIxLRsnmzSyOXcU2heH00hgjCh2t2oNyWwuFBzkDQ/TACAeikdaEFWLwoXNWgKjITBQuVPVoU2II/k2eO/rAECc/N5qqeDkpyNBUYjVrFxYCuwRfQ4PPr/Mfv1xAwdHjp73jyVQEqrVUsQU0FulZDglqNB0d1RUK4BRoTBPIMBnMQBEG4PgbcFWklJSlyFFxloRYrXJANLzxSIiR4IGl2WKxV8GlWGIoMi98NqyTDb1jhhx2S7IRq6NACkdBVDyKNMpTKibBIEuxaNTxKGBs/cTSFQJAgQIJCYjosuOoOVjPaocGGgEzJQ17YDC98kgM6bIAegF3SSHQXHt0Ch6LBq8nQFQXhRhX8kgKXEomIQAkkxMAHyqT38f1JUtkjW+CTwxDtq+AiqWopEnbDi2pLBCIClaTTB79kR0C1w68DUYFyeKUoaLTyMaj0URwXi0BI50IxqCKEYtN2U/xI80CWw2HAa/5M9T+GA7pC4SUXJJBxIcQtptGQdGiGWfIqSRYW5SGDwmV0NMVfYpf1xb7nzXx+LUGwmwSBqgm41JBX9qZWAYVbTbkjCX4qKw9Q/pEfMrwIaH4E/KRmSqqmXAlZSxYIV0okJzVGXTegyBIsFgufJKs0NlTIqo3Fljghke5PKo6cAyFD0nX+1g2DiIofiaoT00Z15RCDLlkFQbiZB+5PvjsNRkpggQKdXV70cwCSbhbVkPQGCyNRyYwkwyv7ARJ+0S0g/Taf5EdAtgGaAqvkYiMVMBTYNTJLfrgVB9RGKo2iL+o7B01FNFknFk9fcIANAem0c8W0FIBMs4ymAPTxs8Z6gPtFlw3YdD9cciRkTWeBI5owdNkNPxyw6SosVIsvkXa/ytepLLGsICBZ4dA9vLr1SjYokh8eyQGr7mNp1gAZHDI8kJicUGIVZWTXllCJTrwoBGoFyVijgERyaJVI3oUAJIMU9ILqiIYMyTDJgA4/SK6ZJnhVVnkFaqqPUC+YPmVTGsc8QuRAkISL6ppLdnJFjYc9CBXkQaAQAs171M+sVVL3GPpu2ZsfSlTkPDDzhzpF1ZA4UjBuYM4SdaWIdNdQGILlmNn/a5Y5SqSUSsPElHimh9GXLAjCJevqm+lGNNGYOvCmkoc56mpdTjxRSbVegIDphWJ1ONKF19jYEFXQ2JPgl1QmBLJuQJNJzpMLfcTRJAIh10qwD8y1RoOoI+umhwRR2KDwti7BzXxIDMXgPqDryFOjs/a7HyT7ahgRUODhJ2tyXRU1k0BOlgptJGOaGVNYyUyg4rInNkIKEwOSYDZHiLn+EcfPQ4BxJmU93jiH+o5FretUanhmN8cF9RmdT/1K15jOgdA3Sv8tlC5/Xi9cnqsqqoMEgTwIIYJAhK/e47h3ZdpgKyR2Rv1J59QlLjJRoDHQSM+CxkDjb4/4ZmjE0D3pFEo4NNlGcLiwHoL5hAvyIBzNF0mKl2eIXK67EgOt3e8tqFV4acSHzKmI2C7dn/6EJi4y+rS6sZK8RtAwhH5PK9uQ70zla0noxwC5qkzjEyAhHkiwsOv0QgyKqf9vqgCGRvaFXHe5ML+Y+4YMfZBcBV2DDYhRvRXD2XcmLMktaFIz0wwE/81SqqH7UsWDqdlPcr2SrnANs81wsbY6EQVzcyAZCkyRKgpREHFTjDrPAYUJVJCIkoWfqRp+9huRF4EInrnZjA6Zny2zt0GmcBNPMKS4YhIacjLowUzpi0Hrl54bojoUkyX6Qu5Wc0KlzZCu7THDOPOKkb4hki9nKlAb/+VZnTfToXI4s+9pzwwyISbVrjUHvxTGa+56IqWaYSFVEMjswby2+7IxgJUhD0J9gtAEyibJDi0EzI27zn5TMvZ1sVl2CDRBEGpP4b086sdyQ1LN5mxC/oMmCUKYCo2qGMj7yDOvBEkQhGvu2zhng9jNb1CCiZdd/6WVxcgpPc7uxybUOc37/KQxamrEhnZiqj8g6xnq2sHcMJmAxqspD1yPrgYbZUoA10kxnxdxkpY1rLwCplVxp9TbYFOjr5MpgqdzwLDBoM2O5AA0TUVWdjVoF75zHfW7yfzv+kTjXFfVnUPXBPdcDF5dn1wEd2wL3rPuWSEPUd3wqftdaNKq38+hVUvIx0BJVF4kxUYiIdYOt+/slc55+/qXnMBKcUSmSB3OghjFjxjjBHTPcYC+ESa05O2ov9L+JQ+8PNfWFyU/9wAJ+ZAbn3GxH/jleYdLflfJAm/kHcj2Aw6vA17OeQkuhK4DrkAhho8oxOCgHIRgiKGJ/RNCX2kdfg3nVf77ho7EhqeGsGh82TkwMk8zfYN1HgQ3po00cxAofMi+KnNCJ4IglBQv+eC+XDckdsm7tQVgyH5sO/4FdpycD9l6HXwxF4wJTeY0sSu8LWlVvh9PT/k94iI6XKIdDC+4IT/zxBBBsLIqIsWTj6VXYM7y05xJHJrO63/Xjb/xc/18NvWq44BNzSP155XG5r6pdoT4ZON7NTX3sP9It0FBBYb3TcKke9sjUE3vdwWDSLz6JvIjcdJknNWDxOLfwsj/h7kBTRNz7c/sVHHZFUbAJ7UBui1Bpj8VFm8M3NYAhzGvl23HK/9VKRIAACAASURBVGrcQYLQ0qxi4HBRcDOmK4xl/ceZn0SjHASLG9NGhAhCsIqBCQJ7EARBuIr9dXGPpioDg1ZE5BS2YHv6cuzJngvJ4avzFJzFFUy3Ve3yO7SKbazR3hRLDWXP1N7zHHS1yWuDr9agPY2u59Fat8FQyNyZq2cNiqah/Awwa8JbSIxsd2HRiYtD9DKczX4ewKC9EnxQFAmHjlXjvVWn4adSoxvkMCQPDD0SFl3D6D7xmHZXCtxuinVcwXcMJnTReoj2ioi31SCx6D+g578LWdFA8sYNfSM3CPg3+GvQFxRQkoBu85Hp7QXFFwW31RdMcG4sV3xtgiEIwrXZLzd4q0y1PTOVScLOk6uxJ3MhJIcZEw4dDex1vTnynJ6qejaaiWNw5dXgvzkzup67q6lzGtn6JttRj6+Efh+6beh5tHsdxV5p1q/IAh6/5y9IjGp7ndR001uZCX1MECQFh09UYc7KE6xadqMcVJWiI5wJ6+19EjFtbFs4fVQ6eQXfMRi/J/VJJgj2CiQV/D9A/hyASkIbEIQbBfkb/z2YIKjNYHT7HBm+HlB1GX41ADVgNcfXFRxiPxftG4YgHMkTSYo/dxBcjetotUQJPAZ82Jm+ArszF0G1Uy10KD5cP3bdOI59PqczvVHjc4Kr/HP9fTBJzcTiXM8+VzvOdX5wO1RNQVmWgVkTfo/EyLSrAffPfCZlJdNKh3IQiCDUYM7KjBvKg0BdrdE2svDijj4JeHBsGzi9dYmVPxO4i7xM5+RMYo7EBRLsNYgr/g20gg+gUgkulYMS2RShhovE9eqfHlBSYHRdjgxvFyahtHOprJNX7up1JpeMMv8PbaccFH2jMdYotFbpDOUgXAchBjWYgxCmchWaWflgFjFLgiBc/Y/hYlpAantcPm0A29KXY1fOAljsZtLYjXJQJQRl4VJkpDzTwOy7/4yEyPbXxStSeIT6SKH6dd66GTiSUY05K26sEAOFUTTZAzVgxxgiCHe2RA1VUV7BYUiSXhJpRtAOpJKMeKuGhJI3YeR/CJVKMblk1zQoV7BZN8pneFXfIyA3g7/7CmS6u7C+g6w5ACJ9V9JD1RQCphgmfNDg8VvgrHQhPFxHVLijttqILqMqho/WUpLi9UEQpg7vgviIekqKoRwEQRCu6ndw0Q+vIwgStqUvCxKEcwUPLvr218AFtPo2CYJuABXXKUFQDYtZzSAZOJxRjfdvaIKQiGl3psB51QlCAAklvwLyP+QyTSpzpHEU8q1dA4NbNOECEOAMJLkZfA0IQhhAu2FeJYIQEi3SNAOVbh35NU6cyqlGRXkVBt7WFmkJRBDqDkEQLqCjxSmXHgFBEC49ppfyjiEPwk1DEDQ7xvS+FgiChDg1gKTyX8PI+0AQhEs5qK/wva5lguD1BZBX5kYFZOSXaKiqLMeI3m3RzNFQv0AQhCs8aMTjTAQEQbi2R4IgCFeufxqGGIIEoeLXMHIFQbhyvXDpn3QtEgSee3lzJAlVbg37zuQgIroFSnMyMbR3OzgsDVUSBUG49ONC3PECENAlHUowG377yWXYlb0AquNGCzGYSmANQgxR7S4AnWvhFKJwlCdCWg6Ug2Dg6I0cYriaHgQW1KJQjp+VOuMs5EH4VyD3feFBuBY+hZ/ZhhBB8HZbgSx3Z95nRNHCYUjeKxpi4HZItLmZZirCGjJqNAknM4sQZlcRExWN0qIipLVNgb3RLnTlTlMHodrW0pRa5twkkiBSoUoa7LJOGTSIDreiorIGUKMQa/HAsEgoqaLRLLFqaazViwi7DdnVEqIVF2QuIzb37jB0A27NgBt23szJoN0i4UAYCYZFWlBa6YEW0i7j4jfaQ4UScgINhJISKEmxXg4CJyly/o4E6XBuzdVLC/2ZA+hmvkyTTYJAuVc7Ti7H7uwFUMJuJIJANjWUgyDV5iDER7atVyVxLY+AoCwqGS6JpgADxzJqbtwchPoEwR3ceOYKdQ+VwzJBoCRFSIgnglDxr0COIAhXqAsuy2PqE4RMdydTTlwLgyFfqFT7pWuWKWVOpl2GS5dwIrcIVqsdbRKjYJU0eP06rDYbK9PUP8pcHny8ZgdqbC2h8D40JkGg7ZSjLX50aRmPwpJStG0ejYoqL2q0cCTYXNDtKvadKAbt8+iWwpEWq6FtUiR+OFGKcX1b84aMHj8QYegId6jYf6oIB3NrWIipYxIRhUhEqh6kpkSjsFpDlotK4DV4AwHklVbD51eDAmd1SorxigvTRtwSVFK0mPuBBKXeBUG4dGPpst+JPhz2IAQ3bGGCkLMAyg3lQahPEIJVDHf9BQmRqddFKrop8kQfmJmkSEz/ZiEINe56glyX/Wswd7ekKgYiCLTZFHkQkoUH4Qogf3kfcRZBoP0YtKuQpBjch4S+ZVdAQXZhKTyaH+1aJCDCSkqitGKnlXbD8AKhU+b04OO1ZxMEXVKQYPWgU6KdRdRaxDlg6A7sPJGNlEQrklu1htPpg88TwJHMUqTFy0hJjMPmE1UY2asFDqfnoMppQNHdSG3dHNWajH3HcxFt1XDvsI4oLPYhyq4hPsaG0/lOlnnWYEG128ChU1Wo8Ggw1EYeBMWFKeRBoO2e5eB2z6EqBuFBuLyD/VLevTFB2H5iOfbmLYR8g5Y5Uoih/EyozLGtIAiXcjD94nsFyxzreRCuJkEIeRCSyYMgchB+ce9ezRtcUwTBoE3LwpFVVIWq6mqktkpElJX8CcFacyYIdRuqhXArdboxd+1O1NhbQqGwAHsQyM1vQVqiFb3bxfICIsqhwK7YsSsjG80SwnDoWAm6tk9CWUklijwyurWKQlK0Hd+frED/DtEoLnfCpymIjw5DaZUXRwtcOFVYgxibhnv7tUReoQ9RYRJi48ORnuvkbb+JPGcVVCKn3AM/7W/TSGqZQgxU5hgXppxNEA5dsRAD7a5GrF/m7X9NgmK6XUzZ9GC9skHumOBOw/Rb3p6SYtLB/a2DsRxT7u/mq27m+HZwm9gdNwlBeIJ1EK4PgmAqqYQ8CAGuyjI9CKfgJ1GfG+bQoMleqEwQEjB1XEs4PVc6xBD0IIB0ECjEoCG54teXlyCEArL1A7MXUEfZ4PTG117NMdHofUKbBF7NmdUkCMmgHIRMykEIehA4xMBljpe3dSHLQhkDmqGhoCqAvOIqtG2ZhFgH5RfxPrX12nH2DoxlQYLgtLeCLLEFMzdRU6xoEQF0TI5ATl4+2rRMREmBFwltIxEboeL77XlIa5+E8jIXThS50CbKQIdWSdhxqgbj+zXH0aNnYGgy2rRNxqGTuajQbShzaohFNUb3SMLJM9Vo3645isuKUVgNeANOpgNVLqDaZ4HfUCFRTke9zZrqEwTezbF+DsLlJggG7W/NW5YG4KsqRn4gDK2jIiErBnyuIlR6VTSLTkSAtNMRgKyFsyqapvhY5522DSY1NNp7gASCVMMHTSLJTT/kK7kxzNX8iIPPNk0PbVBjJr3sOLmMPQiK7cYSSjLfkqX6WChp5j1/QgJJLV8DfXD+JgRXFpSkKPl4a4Jj6VV4f8WZG48gSBpU3Yrb+0RjythUOD06k/srdXAOAu1vYajQFDfiVQXJlW8AOR9dtiTFWtvOqxiaZiVIJMp0nvdm80Bbf4eSxuqs0JWCq8nn8B5CZsDZ3OKXVdga6wJe2SaGCIKPCILrFmikZaHbOAfB3Azs8g0y8+sly6LD0DTkO8GGPDUlAXFRdjaerJLaqA2NW9SYILAHgRQ/ZSs6t4hEjFaGZokx8Pk0HCt0QpcVtI6zw2FR4DMUHDpdDFWW0DnJirTWidiaXonBHeOQX1TO2323SIzG6ZxilBhhOJTlRFSgFAO6tYDFYUNJpRcJERZUOQPIKnHDqSkoLPfwbrJmNzckCPGqm0MMCeEKJ0YqrNRrEjHpUN5lSlIMDjwiCORKoZ3tTm5fh40nfXh08iRE2HVk7V2Djcc1TLnnXtjDaetYP6DbIJGGfcDOHaGrLviVAKwB+rhoJ0PKDbfzboZXSTPjyn4t9Z4WWpsSgzWTFL+4YQkCz1hBgvBYiCBcvnnhEvZpUGqtliAYOJZOQkk3GkGgVbsBVbcECUJbOCm+eSX3aqIdSSiLzLBAU52Ily1IrnoVyJl72QgCLV5CJIg5AmWbkB7WeUYQ7Z1iyqTrkDkHzJQTP++Fl3BkNr6VOZ/UyQWzU9ZQOEmYVplX6+B2hTwIrq4ISAZk3QpDuXwEgYiSmYpI/aPxtsdlbgOn8oqRkhSPhEgViqSzzQmazp+Ep6zGDDGEPAiEtEy78EoWdGkZhcGdY2FoBspcPqS0isFHK7MRHRZAv1QrMks17M/3oWWzKAxsZUdltRubj5Zg8sBUnMrKRXhCIlpE21GUV4wDBT5kVFqQoLjRr0sCJzFKFitaxzvg9mgocgZQ4VWw81BucIGinRViYIIwogviwxRefJtSy8HdHA/mVl++kcBfkgyDtumU/Dj13SL8/+y9d5Rd13Xm+bvp5coZoaqQM5ijxBwUKcs0ZUutsWX3tD3dXtOzuh26vdb8MWv+menucXvavWa52+6WLFlqJdpilGUlmqQoZoIkSORQACoXKtfLN83a59xX9apQAKrAAggCuFwSgKr77rv33BO+8+1vf/vJ/S6//U//FxqcAiNvfJcn9if5yqOfZHK8l6mZaeJ1rXR1tFIcHeXE+CSxMKCxeyeNDDI6MsN0yaamsZXm1gbMD7ETf1iDR16dpWZhYRA0QLDjV1q4RdNxCwHCR8dUX2JpMTBLmIpBuPIBwhce7iZXkmJNl25kCMuk6N7QIRCAYMVom/zX0L/CAKFSOVoVGqus6tFuTBYVla1y7kPrwqvqpciu+NJqOs+8wQjLyqqnpxRZiKPSaZcQ6C0KXBYDCCqL4eLdmGIOAg8z9Jn2LA4OTFObdljbXEcMqaKrQ+KW5BSe55jIFecBhFCKzyn8Facp5nL3tlYOHT5GOUxy362r+fbLpzCMNJ/cnOHgwBR7xy2swOP6hiL1rat56+hpHrmlC9fNcmBwmrLrsam9nrGCxZ7Dp9neFqeltZbB4UEw4uxYW08+X6JnJE8JiyIOI1NFSr5uv+oQg2YQttIktRhMR5fVNqJaDBcNIMzCDrkhQcseR1/8Hk8fLPOVr/wujfEig69/l2ffj/HYQzv53je/xfrtt7Bq6zZag2l++OQT1N1wM+mxEYbLa7lrd4L//tVvs/uez3HLx+9gbUcHMUs3+tVynI1BsBNXAUD4iGQx6EqO8r9KiCHkkNIgXLkMwoMSYhCA8CEyCIGTp9mO0TpxcQCCCGYFGwhFLIcZuljqXS8tNV8WYL1LdQhUIS8fK/Qu4nK3hFkxioYJu+FZUqjHUPfkVOq9LOESF+OUMxgExRRdbAZBk+p+YDLjhpzsHyGRSrG2rZY4HraqDSP6OCkAJi127kOyGP6mmkEwQlUvxDPi1Jk5rluVoHNtO9PFMnvfOc6El2Hjxg5aE1OUggRvHh4haYV0pjzqO9YwOjlDQzpJXSKgp3eQPHG2dtSQL8GR/hkeuXMjL+4fxhIBZWixa01GAYRj47KlDClKmuPoDHlPnsGcBxAaZwHCIgzC3t6LyCBUULPirjwOvfwkf//+NL/zld+hIelx4rUf8KPDCX713o08/s3Had9wM1tuvx7vvaf46dN7WffZL9KefYfXTlk8fPNaXnj5bT7/u39Ea2czZlGSN+Thr65DKE4r2qa9UWEQrnCA8BUJMWS6PyIvukqDYJYVy3VVAISHNINwKSG77MqEQZAQg4QiFUBYQQZBvcloly8AYWoG3jlRT77gsqHTpqutTMwuYko6XKDj9xI+kE24LCDqzyiSoHbogU0xH2PfsTJru2K01pWV7krOESmFivmKW5+Aiarow8XbM8vzZdj7HvRMxsAxSaVn2LkupC0jdQ8izmOBqFK1iYAdwTnBXMhFzl+Je52nQchJiCECCMIgLBL/v9CJQS/yopvRsSKLgFwY59DgDEbgsaWjlpgtlLwYJWmTIy1OPH8vn8gX+ZsfVYUYpK/iEwQmXc0JtnVkqM2kOXU6zzgWbm6KtoZm9h08wZpVTWRq0vjFHA1Jm8miS8KxlMXzutYMa1vqCCyDxpjFGwd7GSgnKUyNMZzX4XzHsLhpQxMzuSzvD+awpfpkoDMUQssmDMpnAoS7t9IUaRCEQZkNpFx8gFB5fSH9h1/mbx7/e77wlX/FmoYYr/zDX9Pv7OTRhz9GefgI+w4e4o2jvexanea1H7/EdY/9Lt2pHF7zFhqz+/nOs2/whX/+x6xqzRATVHkpA54X2gtX8HMKWVcJnd44qkWKVy6DAOMnQ377s3+msxg+EkdFfCMMQkmJFA8frxglXWFZDKJB8GM8eEstv/7QOrJFKct76V6SKMPVHCAAwRKA4NA284crJlKUZwkCEUcHlMohj/+9yaBjcXNXCjec5q4tIWbMxi07WF4JMgGJckDBtCBMUDJD4p6PbYNllQg8i/ykzbees7j7bo+dLR4F38QTdJD2SPomRsGgZAWEoU3SNjAsIYgvYhTYN/jvf26T3eFwe1eKvfvz9Bdd/tnnErTFS/i+TxDGcOIQC308wyMbmlieTRA3SIcFvSMVgGT52Ctwq7MAYcdTnMjv1ADBj0UixRUSbkTALzS8aNG3KfvQOzZNrhzS2d5Ak1XWyYzzxG5L6+BnAgTlmIAdeNRnEmDZTM4UlSqlrjFFqVjELQeUyyGG6VNXU0OukCeTSpLNFYjHY2RzedKpJKVSCTcwiCcT6v7yxbIOf0RtL3eYTiXwPJ9iSesmKgNT8STipVOVxSAhhi/cLT4Ilk4GqGgQBLBeOoAgjqiDPPfzf+SJJ18k8B127drBZ//JlzBKE3z1P/8pp8dzbLvtHn7z0ft5/pm/5YdvHSFTyLH5jk9x//VNPPPcu/zab/8L2pszigbTitar57gGED4K7/pqAghEAKHmQwcIfgQQ2lcSIChJoXjaeZSKDt/4tkV/C/yvH4uTbpzCMtO8977NN34wjWHDg481cEPjFD9+zmK4YJMquliWx3UPJ7mzw+CV10vk4z6nei1uv9Wky/b5i6cCjvRbfPqTDp/Y5fHMEy4vvm/RtCHkn/+Ww6p4GXs21eAi9P8QvvH/GjR9KuSTO2B6xOEvfurTuTPNx+pL/NX3XYZ9ePTTIZ/YkuT9gym+8w8TZCcM7v50hoc+5lFnuNieiWEVV0Q4fgZAqIQYVBbDygEEaU1hoVyVBJagfzzH2Phptna1k3L0N8kDLQ0SzH83CwGCdlI0lcmdaQjoMlXmgiEujVaoMiYMwyIQqiqqQKoqSEYeC5EhgOY8Qp3lJSZI+hbn32EQCCgQbU6IaYhh29zv9ex0NoAgfpDik1DFILx7anoFMN8SO648r1siNzOFa9gYqVrSCRPTK5GfmcEL45ipemoSHpRHmcobOK5JkKwnE89RcG2sREaJRERteiEvbol3elmeNg8gYPDG0R/w7sB3lVHShXXjy/IxIwpvTqT4W5/9U5ozHyUGQShLYRCKSqR4uCcXWS1faQyCAASHB4RBeLD7Q2AQtE+KymKw8rTEHNqn/hD6v74iWQxa82PqVErgxLDDD3/hM9QfsukOkzs70zz+7RzdH7OJWTGe/0WO3/sMfPU7Hjd+NsGntsZ5/iczjNQZ/MY2i6/9zOTum2P86JkC9/xKirHnAia2lnloW5zJ0hRH9zi8NRJy991t7D80So0T8puPBKRxL8pcp54vNPnqnzu0PBTwyDYXP2/zrZ+ETNbVck+zx5htMt1v8OPeKf63h+p49qc57r0/ToNj8Bc/KHL3PfCrN0iYRNz9InrzA04r1QChR0IMFwsgGKaq+SLmQeNTRYbGp+lsa6A1IaLTgLIRj+DI8pdIAQjf/Ic3VRaDpcyKNEBQqaRqtg6jnX1Fei3psgqyREJY3YgapOhQV+XQC7+gmkj6epZ0PjnPwF4SQHjsrkikaHyIACFQecOS7CMWldo0SRCVfvbKcq/VwaZMrn5CCTt8SW8JhWgTEY00tORy6NIXV9OxECC8fvQHvDf4XYz4NYBw+fSDMxmEIz1XokhRUsE+bIAwF2LwrRwtsdiKAgTpU+LOIql/ph9QktBBKaTnZCP/4TuTPPQJm6d+5NO+xqahbFDwS3zx0wbf+SF84Tcdbmh1GT2c5BsvFNm8zWD/kMvv3uHwn78RcvuvhLzzLY8bfzvOAxtkQwRf/37AE4cdblpjUyx77Nxu8uv3uar4zsXYDGn6HL7259D4gMPnthrksgFff8Kh5TqfWK/NK70Bfgl6LJf//UGDZ/fE+d0vxml3i3z1H+MY9Tn+2cfEVTPQ6Z6RWv+DjMdqkWJP9mIBBNmam5QJGM+WOdk/Snd7k3ItNEJdV0FCJ9Ur03KeSbIYvvWTt8hJsSYFECobWhECmkprYuOqba78TQFdQ3busqadeyNRYQHOm+avTtReHbPg4iwMggAEcVKUWhEfGoMQGLpBBNWI2Y/la2Sl0mxUA4qyNyAIxRNaCnTYuKrwQJ4wTOqmDCVmZEf2lstHdst5yZfbudcAQvUbUdPbLCJXAznUlRQDYacCoew0/aY0sitwaN/1eclqi0wgVwlACH1dRCfQDMIXHuxmRmkQIrgf0aMy5YlzqqI8RQEevbEVeB26nIyYhgUOni0AIU771B9A/woZJQVCA2vzp9KMwztvhhhtGaxcmR8/V+Tuz8Z58yWLzhsDNrSZJByfmtDn64+7fP7LJlubTcgFfP1Jm9dGXX7tIYN725L8X//N597HDAqvFzlU53B7dz0G44ydtHh9xOYztydIxadpag5pTwdYauFY+UNlVQQJvvbnBuYOj5s2x+k5bHB6MssdD9r88FmPtTe2UD8Y8qOeUf7wMw7f+rnPrp1x1tghT7xY5J7PxLmvO1SiOTssrkjQt5pBOJ7boZZRS7IYomJNy2dLz5wrdLKRzWTZo3dwmKb6BlbVOYr+l0VSJ+hXNqDLh2cLAYJa39RmWAMEEUSKGFCHHpxoKquwAlXpsOpO9Dw3d1T/e+HfK5Cm8vP5YONsIYbLAiBU7JRnnasrE/fss88lHKuJePafczO8PnX5L2zlh9elv+I1gFA9RDSDpGk7faiSrISMZV0Spk9NSgy1HAUcFj8qg6/y20q/qu6Y1Z/VE83cWZXeuHDwymlzIsUrkkFQk5ss/g73C0B4uJtsYT5AEIpzYHyKTMymNpNSMdZI31+pFacafrHWXuxNVN7S3BuRrAHZjYlRUoFmJ0b79B8SrhRAkLQ2uTszxHMdeg46vNMb4gUOm7d6bOp2Ge2xef1oiGeZ1NW63LjZoedAyPrrPdpSHqZr8d6xJO/0ujx8h0+TFfDC20k27fSpcT1eeSfGeGiyZUOeLc0J9uz16c2Z+E7Ijes8dq0NlY7hYhyqHUOTV1+O0XM6jpdyaWgw2bUpZFXK5cAhk7eGUrRmcvg1AfdttOk9bvBubxwjKLF6g8HO9SH1Tl6D8Mg194PeawUglHY8xfHsdjwzVCJF8RURcHChAGGeIXJokC0b9IxMUZOK09kQwxbHX5X//8FXmTMZBHkqkSTqGaTiojHXVgvnog/aigvnNP3vyxogrNQjX63XuQYQ5mNo8d8XFK5sUYUODk2GZ1xeff0dbtq6hvWr2/BUoZSFgHK5gzEa1uq7ZOesw10CSHRiVzVKvzoYBCNiECoA4bGHupBiTYaYBikmx2Tw9CT/+Pr73Lp7C+vXNitDIQ3vo/excIOwVKYnen3y1kWNZAjjaBdoEYAw9Ucra5SkQEKg0xDVBi+FYYu1soshMRZVXyPUgjO7LDEJDNfGt8X61VLMqKRBivbM8gwM08B1QixXDJYMQkk/kx1yzCP0LAzDVzFoXaPGli0+5kUCCJUVI/RtfGIYMXGylaCKgyFZGaZBwTJVWWMZQrKBD2xwTRPHs/Hi4ngrLFIUJ18hG6OVBgjqtYluLdDjV7ISCp7FsYFx9Y7Wr2kjFeR0v4xYrg+6xswBhNWYkdZBA4QPd3N7DSB80Dd7GX/+GkCYezky6H3DUiEnmdQ8w+bU6RleeLeH0+PT3Lx5Nd3t9dodboX8MnT724oijFvQWpMgGXcwolhlNUa/0hmEOYAQ44Fbavi1h7rIFURg5eEFcGxwgjf3n2B4ssjm7g46mtKKKldpkJU4zfkAwWIET9VnBCCIAEwI4TWrkmyoS9Mx9UeE/X+zIiJFvd0TNbiY43iq5oNKeRNwIHnxQQLE6yIQswODQFZKAQyyqIvG1tYlemxXWCxJA3TxLQ2ebF/7HSgPhWhXKemEyutfIxEVwpGmWonUwcWmNdWUgU0YhVEULBETUHnOyMpewIoRSEhYSmpbeOILIOmt5QoNLpUBAn2NFQYIxR1P05Pd9oEZBAlea72b1nJIrYNTI5MUXZ/OjhZStoSu3ahfrkxm3ESuwDd/HGkQTDEnqjAI1wDCZbzEfrRv7RpAqGYQDET06sjEhUHPaI6X3j3KQDFOwTdI+FmSpqdYhZU6ZAIVuCHUeY1Z5rN37aajKbOAoLjaGIQqgJAL8QOPnqFxXjrQz5ifolQug1vAUYudZl7E638lDpl0pbBM3C3xuYd2clNbPe0zf0C4klbLFWMHFe+Unbakkcs+MJD4itJQiXOdCBkDyZv3a8DKRaBBPBqiBUHIBsV2yPkh4nirah5InxLRmhJDakZqDjJo7cESnH0vqDlVVEBAjlXW1uDyHGZB8dCBIJxQlzWWWL08r2dqBZnlizZDzIMip6SqsNtKLH8VBmGlAIJqTxGahq6o3Dg1XmQym2PTmmaSpo9lCGgT4bt+HytxXDEA4e1Lmea4Ei1/lV9Duq9SvBLy5tEnVRaDmajkrV4pjVNdiyHgNz/9H2k6o9yzzLgmYeBxcmicn799ggk/RZCowTUs4qFMdKJJkF3ZSkxbekJXaUqBT9Id59GPwgEh7wAAIABJREFUb2N1U2qBfZzehc2mOVoGR67ANMeFDMKjD3Uxk/M52jvES++dYNpqoGBmsESer1K6BBxIypU4ga7MJCy0vemXMYvjPHr/Fm5sS7Mq+weEfUtjEBTgjhLZ1LtdKHyIAiKzRROi21YFopTH8oLxJnggclRUoZSovHdoRiJDpZeQj0nIQihvbVozD4NErIHab0Y4SoMH/V2yi5fPzAnoonuoqhdRubVZGLbYc82yM7rars6lE0wwm1amc/Aji2n1u1k8IK58OuxQObRjpAhR539e/V5NWnN/VkTDKkM1+vn84slSzbeN4vanOS4MgjxvENcxjvPKIHVD6TlSgy4J2xjSE8M4A2NZBsYnVFihOaVBgzCAAhxWMjNuMlfgWx8VBsHK89hdW2iUWgyqWFNUN0IE3m+futhWy1fKonWZPEdlgwq8dfQJ9vZ/Fyt1pQOEP6WpZsMZE7LviWCszJ4DPbx6cJQw045nxnFNm3iYV/OS6vBVbaYmjyUI4xZTKeh6NkI5+6TcUR69czOrhUGYt8VT0nCMKpHi0RP5K84HYTGAMDld5N2jvby8r49SvBU/VqMmYLWDkzaqLAYrgw/UIiCWuEZxnMfu3cQNHWk6ZqSa4zfPG2Ko3IIG3HoNu5QukEudTdQyN+v6B55ex7AXkDCe4OVowTYDW3kSBFId9zI8JByogaKuRVEBDBXAoYCb1U5BRIoz21QWg1RzFKbjvOWeFfgU/2fZFmjrYUkflOqMI9MBw6NTrO5ooC5pKuPkCmOwEsLE6qaezOU/MgCh2crxax/fQkPaUfOlVsBEJlHXAMJlOILOdUvRLCZk99UOEGTT54Ue2XLIq3tP0DOcI2vX4hoxYsEMZuCqv59/17G0PqAGjbL2dUl5E3z+7t0KIMyngK9egCDFYXKuwZ7DA7xxeAg33qD0GnhFpRBXqY6LKriX1v4Lz1KZlIGP7WV57L5tXN9Rg3ZSPDdAiJaQWeBY2eTOrrAXdjtL+9Ry9bFahhlt3w082bnLfncBe1EBCGrBleiHANlzRXLOhpLP9hTnuu9lPpOvklnEWCkamRWGIXqmxQCCFUqaowCE85iNKYCgLyjhQBU0MGAq79I3MEJzcwPttUks0ZQo7dDKsIsLm00BhMgoSRwPL2cNQgUgNGYcXBGrVlKRrzEISxvTl9VZsmvSJUaueoCgZFGG+GaYZIuwd38P75wcI+tbtNXYNKQM7XN/XkeRpb1hvdPRrZ9xAm7bvZH6dEKp0eeOaFcieduGtp49JgzC0z1RPfalfdflftaiIYa8ZCmE5Esh7x4b5M0DvUx7sKG9ntY68TERsVgUv1+BBxSQLGxOzDK5bkMTGxvStGf/GKPv3OWedQBLslA0jyD7WKHu7cA/I+P8nFj9HNnpy328CqNxxnIl8XGhwAJTihFjiI2uLHsL1knJhpDdssKvpmT0SLng6kpKZ2bTV+6xsj6f7d8r3gYqmlHthqtDLdWRkGoGYX6I4fxupDqtWVdPFE+DbM7l1OAwDXVpWhtSxEU3orD++a+13PdYOX8il+d/SIghoY2S9L7u8spikP7iu2WabWEQttKYtnHNuB4XarIzMPacXKLV8sK4YVVMaV4jno8+PBvaXCYKXfTFLQYGF/b+xT642DnzniMKxl0ktLmsTlhFl+859uRVE2JozKyfB/b1FCCBz5BQbF4Nm1Ip4LV9JxTNff8du9m6pimKf1fFRRdt7AUd4Cx9USvOQzwVTxetgY9pyoJXLYRcyCAYVw1AGC+YOGEJR4obhQ5vH+nnl3v28fAdu9jW1RoBhKVVw1vamPDVFtTHxg4KNMZjrMr+W4y+r50zxKAZBA0QBCxMBykmyrYyybncDnk2P6xTrEEszNKeKuBQPiMSr0CPyrq0OZ1PM+NLvZqZy+6ZZAQVjFqVrdFgFWiys7raYAV7R/v/+SEGX/sgLCnEUCEQJLPJoBQ4nDx1mmQyQUdbhlhYxopcec8rZ/gAnWEqX+B7P3+HUZqJO3GdkaK4oEqio57INaO2tONsILLCl8xrxOjqc1fW31L5Vi2F9fHKRVqcPI9+bAtNmRhllRNUFWI4F0CokDVyYXmhjUmbeJSmU6lwtXAurfxbXBIVzRUh4MXiewuxhI4Hyf9HyE7F3rToS0qpVh8qtUbZLovIpvJIc5zacvGG3hfOueQp9G3BTN4n51qqipkg+ItFSS2ti8wFz6U1rnaAMGexoz35RR/g+gb7Dx6mtbmRtpYmLLV2VwnQKqPkQsBkVReU/j9HHMxnEBS3W9EgWBogfPWpK5tB+NUHOpkp6klHlSzGwA0Njh7robmhlubGepUPPjcbVk93Z/v73JQ2f/KrTHOVGUro5zzNTpzV2X8DSwAIkhGv3lpg8NNeh2cmOvGcdJWibuGIPNcuonrve77p/mw7lrP9PFBl7cPQpWFyin91+ySNUmJ6we1FFX1V6u/X97ewt1SLZ6fPocmv/r6lcAjnuu+q1X1RDmbusyprIxQi2+eummEeWz0DjqfKZFfbY/hmG8WdT3NsastcmuMSAIIqcKS6TUgpNDk2OIlhOnQ3p0jEdAbNbMGn872qJU/KZ54oKZRvHuzl1cPD+IkGQjuuGARJyw2DIJLkhFJIugobRXBhwcKoxJznya7QYQGdahqtmioDRVgxJWmVTY3KlhGKSd5BCO4MpjvNx7e2cMPm1TgyWVbbS8sct1SAIIUg1zalqUtqhLFwoVz4E0WDiUJXE2Kz1Kzc9Lwj+ue8KXb2H7NY5oz0E13qeR4ppRpiOYjsXFOAygc2YWSyxOkpD8+8BhA+wHhZ5kcXZjH8KQsZhMUuqJlFQ5WoVaDWtDAFWF7EieDM+9D70zkfhKsHIOSKIgibaxEF4CWlz/dxHKkqt7JHoMCICBUdfCdPix1jdfaPl1Tu2Y12c5Jg8Gx/hn/wbyCRjlcpWM+2IFaeIdqCVO9EzrorOcs2atHPzr+u6smyyQo94j39/MlNp5DyvGd0aSVKFHbL5L8e6uZIYi1OIlklx11w39WvYtHbO98WS9pHEfVnV/0u8rrV6DCkQJ/PrcF+fqNtGBz3DD3IhQIELRAOKBLn5MgkuUKRDWvayNg6hXFh5cOV7ZFVVwsD8i68c2yI944PMCNll2O1mHZcO12oGJFYLuvCUHoZ1FkucxufyvUkFfZsgG4OXJ/xxsSrY7ZYU7QKi2+MWyRw89TFQnZtXMXuDW26tLja9MzvWecNMVT25PIgnc0aIKhl+DyTbjirkIkENpFYpFpCrqpSCW2rcoQrIGIOMeipVp+jCISq0pvRWqDBYpSPs5L7+1DqREQAYeSyAggVqihUDMJ7Us0xeWVnMfxPn/p/Fs1iWGxwB74ug6oqmSlm6fx9dWUniWsAYXZai3ZzF2tSFgdCBRBUNcecclJcPfPHS6rFMAsQAoNn+9L8JLyBeHrlQcwH7Vt6Yy2zr0vseD//9saTCiCc4e5RBRD+y8FujqbWEkvKrnXBhuyD3tAH/bwBnm8iwOwWfx9fbF8aQJA0R6nFcDaRYjVzIN2ud8rl9HSRjaubqBfny+rMpfMtXh/0GVX9EY8g8PGtJKMzRY73DnC4d5TpgodvJVS2lS6MJO6aIqYUIaPWS1XSqeeB7aqyzwozVp5nFh8Ig6pvXFg85S4bCEA3VSaRZIzglYgZHpmYz4bOdtavaqKtIaPKiat7iMpEz8OO59MgLAQI9bMMwvlaMVrwVUUQwUwhgZ/H90oE6mdy8wKOo1QcO4ZhxzAtcR2TYjsu5eIMpcIUeGWUxUr0YlU4wLKxkzU4yXpCO60EKU7kSlZpprliDue718WgrqA8GJ4sMTLp4lnS6JGhyQVcbsU+EsVqZHLcc+wp3h/4HmZSxGGXdJu8Yo+z+IXmMwjLAQiLT4iXsm1034YYIUVMy+D4yTz//ckrP8SwkEG4yJ1EWRRXPCd8K0urE2PVzB9hLMEoqRogPNOb5qcIQNDpd5fToYpdSd2/0CXe08ef3HhuBsE1TP5SGITkWmIJqQdyeQEEuRs/sDD8gFv9/XyxfeScDMLRyS3KfdL0Y4QqxHB2YaFiq0IYmS4zNDZJR1srrTUOtl+MBImXbh6QexETbaWUCk0V7iiUXKZm8oxM5RifKTE+U2AqW6LkShhAHFrF9qtSEM5U6dOy5GlFgN7dq41xZJ6ll9EoXKCMKiTUKlfy1HdLVcqkbVKXTtJUl6YunVBCzaa6JNLV7Yp+SkDJWfzkjLdOTJ21B1VuRgaM3HpXSxoBCOoDZ6AwffZshEfdrE8YFCnmTpOdPE1u+ABTo31K2FVTV6uoJkOMVCwbJ54mVVuHYyUpFSwK06MMnzpIKTuCY7rEbYNYLI5l6UTggudgxpqo69hK89pdpJrWERqOtjxVpaArYyPKv17mqJf65kLrDE+WGZ4o44tzmOD2S4A+z3mr0duSP4RBeH/w+1c8QPiyMAgLRIqLt1F1j62cUWGmltkBLvh0LVKUEENolLAsk+OnrjyAIKBfOSYHMR68pYbPP9BJriCpYxfccMv+oA4x6GqOEmJodZxlAAQtFxOzomf6Mvw0uJFYRnbcl9dRKUfmqhBDH39ywymanLOHGKoBghNPrlSG74o2ii/VPX2fW/0DfLF9CKkTXS0xUyAi0iAcndx8Vg1CZbSL5kXvqA0mskWOn86xpr2JpqShqgPPbiwvYd+UJVpVHw7EKExbtJuhAByxiLeVHbnKpQgMimWfiZkcY5NZxmeyTBeLlMsunl+pXWISSLggFN3d3KuQdVTpelQ41STlmGSScRpqkkr3U1+TJhFzMKUystLZB4opUJ6eci3FTElYTdJmFxfonhcgVG7HDn06WzVAUEfVQqnvWQZrgCulnAUmFKeZGOlhdGAf+dOHCfNjmGGJmBMnUZ8k1dREYLeSTDvEEgkKMzMMnTjK2EAvphtgWTHBDdTWOjQ0Jsk01hGvacZwHHyvSLlYoDBeYmJ0hpyfpLnz47RtuA2npgHfFJxZSWOqFkYtvZ/7EQIcmnQZmFKJUFoochkBhLcEIAx874o3SloeQFjsHV/CmUEheZmtBCCUMa2Q4yeKfPXp47iq4s8VckixJqklEMS4/5YaHhWAIGmOl7CplcJJdqOhha/KPTusUSLF85d7lulQCZz9kGf7G/lxuJN4WmL2l9ehCjkBCiAcH+RPJMQg1RMX3mYUYqgGCLZoEC7h+1hKy6mhIVS273FrIABhBKS+Q9XCtxyAoLZtqggTTJVDTg5P0JK2aW2srfLm0o1wKafuWeY/WtGjCLluojOSqiph47kWlI8JIAh8SeOWcIH8Wa2hMBQo0CBBGABdKbLyjNVXnA3xKfFwtHxHf+rw/Nm7yTkBQvULt6oAgvryqtbWYQgtDhHkZPpZht57joEjr0AwRTLmkk7ZpGuTJBu7SDSvgcCjdDrPRD5HvlQkKJcYOH6EwvQENYk4yUScpvY6mtozpFobMRpXY8TaMIyMZs38aSjOUBjp4dTxI4wMubRtvp/1ux/ESrVHwQBBYMI4LH+UeKEMzBABCP1TmrLRzMlShsFFPKeKQbgGEC5iO1/wpa8SgKCqWl4uAEGqJ2YvECAEPNvfzI/DHdcAwgX3+aV/cA4guNwaHPxAAEEVYgvKKp4/5Tmc7BugvibF6oYUdoTFL5b+ZelP/MHPnNVXqGV3bgGaCy/M/Xyln3cZAMGjszWjGISFAEHjEj0xCuKdHnifvT//OhlrmjphCxpqyLS2kGzsxMqsxw1CTu5/iekTR0ikWijm8pRmJpkcHSZm2yRiNg0NKVo7G2joasJuWk0YX0dgtAG1SpQEUoN8AqNwjKkTb9H3/gnG3Axrtj9E985PYaqUpQqlsvxV/RpA+OAd+8KvMF+DsHQG4cK/ceU+efUBBKnm+Kv3fxghhgqDcA0gCFqTLIaPDoPwwQGC2jH7JXJhnMPDOeK2TXdzkrgUlVr+lL9yU8AVdKULAAjainGewnIWIEjUxeXEnmc48eYT2H6OZDLGmi2baNm6Dat2NSEtlLOT9B58leLEOAO9g0wO90MpT8JxSGdqyKRTNDQkaOluoWbdKpyGbjAFIIjxjdCAcgclQmMGwz9OafA9Rt45zsDINDNmMzc99BUaV+2SQqsacV1AZ7kGED7MXn4NIHyYrb+0755jEK4BhKW12IWcdeWGGC4cIFTH4ctGjGO9w2DFlO4gLSZSka33hbT3tc/MbwHjjZ6zixSrE1xFGdnVWvFBmJ8vqVIaQ1+V1CyWJtj787/COv0205MzZAsGTjpJ28ZO0s1N4MUpT+YZHhxmaCRHfVMtwUw/uZFT1NbUEk8miMdjNDamae1up657FbHmdWB34xoNYCYipycpxjMF7glKQ0cY3d/H4KlxBqdLbLj9EXbc8QUM0kqgcUEAIdAhhsEprUGQEIMoZM9/rdkElCX2tXOdv/jvlEcDIXuOP8W+K1SDoFgp32DiVMCXP/kfaMxsrE5UOkf61nLbs/r85X52sVesGQRVrMksIW6uV6QGQbhCVWXP4YFb6hSDkM2LcLFa87zUtq204/LGjlJzix9KYOM7WVpFgzDzb5aU5jinQbgWYljiRLUipy03xHBEiRSlamecQFVzFEVG5K8TmJwYKzCTy7JhVRNpR2R3ldjCubI3ljvOl3v+uZpq/pjQuraq86PU/+orKP/Ws6UZVJ1oRtmClQsulkygW0VxL0uaQ43Xe5ZSzVEWS5eu1gwNSakNrt0LK4eKkYjzYBAwMvIex37xderdYcLm3bRteYjpiTHK5dNYZqjEhwFxYsl6ahvaKOXyPPHV/5N4boCmugxmHOKJOPW1Sepbamhc3UxdZxdm/TqMWCthKAyCdJAcRjBKmO1n8mQvw0eGGBkrMD4xQ9vOB7n1k7+HZdcqEceFHJITKn4PA1Nl+pRIUdJJhI24sOtdyD0s/hnReoQq/isAYb8AhCvQB0EWGvGimDgV8k8+8e9pymxauSa8qFfSqUYqDGaKSPFKBQjSB0VcZmmAcN86pvPa+vpSHcpHVX2lDjG0xsUHYWlpjtcAwqV6S/O/Z8kAwWqjsONpDgtAMAxMP0FoFtX8K3ODH8YYncgzPpNndVsdtfFAZSwIa6yyAz7saXoJzVvJ+5ufml2pgT13gUrFycojzQkNI5+Xed81f/xVoMDsWj0LNpYGxo3Xe7JLGNFSLTsCCKkIIFS9AanLrjbXvsuJ958le/CHmIFJ+x2/RX3nbSp3NTR1IRfxjhKbWsn3lA9lB4/wvb/4Y2LTJ6lNxjFjAY6TIOnYpJI2dQ1pmta0Ure2nXi6CcOWVEaf0C/jl2YoTI0xcGyYoVPT5Is+2YLP6us/xW2f+T1sq0apOy+ksywOEC6DNMfIyvbqBAgfgVEf1Wi4+gDCeqbz850UlzBHfqBTJKn6GkCImvBK0yAsAhAMS5dwF6PmiZky/YOnWbe6ldq0JKBLoS1JB4zpLLqPwlShnkathLOHFvzPp71VzRflqXDuwxODuKqriYnYggoF+gJLYCMq37QiAEEYBBU19oscfemvSE6+Rz5oYN09v0esYb3KKJAqbsrsQcCEdjdR91CYHubJr/0fTB15jbqEhR0PcewEtmWScCS30yZTE6OmPkYqmdLkkiPXSJAvusxMzzA5XlbeCUWvSN432X7vl9l1129gW5Lmc2Fo8nIHCL4Bbx97kgNDj2MmrjyjJNVHhEHohS89/O8iBuGjMOq1/4cCCCrNEY6fKvLVp66wNEfxPJnHIFwDCOebwC/k91etBmERgICVU1UqJ4sGvf0jtDTU0lGfxDK1HkaFH5QF/2VA9J7nZc9mIKh1cS59Xqp1aoAjzoihcjf0ZCoUHwSV6qgMFFSKY8UaWf5umRa2IbbNC2pahPPNv9RnltERVwYgBNrQoVSa4dgLf0ZtoZ9Cejvr7v6nGLF6ZeWoYyj61gwFELSvgO+57H/pO/zyif9GgjLxGDiOjWlbanJNSBlW28ByQhLSEJaNFY8rUYobBLiuS6ns45YhX/Yh1cSdj/0rWtbdhh1oN6pltUgFkC8aYrh8GIRrAGEZvfySnnoNIFyq5r7GIFRvPa+wLIZFAIJvF8i6JqcGpqmvqaG91iJueJqRljBExCipOgfL2CVfqv5a/T2y+Hu+jxs6yhCpWCySy+XJ5gvkSh7lcgnPkyJd4sQYAQZVk6BS+TJaS2e3+oZYHhGLOcRjcZKpFJl0gnTCIhaPKzDh2CLa1yqOpR7Ga8fPpUGoJN0bCp10taZoSOua1vNK3Aae4gOyk330vfSfiHsT+G33se62L4IZ0xWs5D/1EuceTD+8hzdzip/8jz9n+OCrpK28YhDMmIGdcIjHE1iOCL5M8DyFnux4DMuRtgpxiz6e61MulSgaDWy6+X523vcliLdgCcVygd40FQahf1JrECxVMGVhRGepzbyS51U0CCFviwZh6HGMpIsV6DaWVCepXaHicKGBZ3lKyGUH4k6m3bMs9VpFUCaMzjyFjKayAkd9TpwurcBUPt6aARLjL414RQdhiiW2FEcypdiKSDqlwJWO7lqqPr3UZJf+EqjrBKY4eMlglr4QOXuF+vfIQLHLSowkAahQ7lUxCCFfeuijpkGYYxAs27h6GITcQpHiSvb7M6+lermymrUJ7Cxt8bjSIJhLsFq+pkG4uO/mbFdfrgbh0ORmvfj7CbJhiVNDE5hmjM72JhLkdbkoVfhIs9KqhLcCBxc48a9Qs6jaQobMgyLeFwZd1zoQUDCdLzOVKzA9k2dsYoqpqSnlcJiIx7HF/TKeVBth27aVE2ulzLxKyKtUWxSsIH1fxfe10YDvBXiepzbNrlvGLZcIStPquo2NDdTXN1CTSZFJxUnGYzjiOCwZH+JGWqFdlAOytKHW2y0BIKhay0rF392WpCFdqWld9QIiC8jR/r2MvflfMLwC8fWfo+uGRwilvrSKjeiCQrpksj60AYRc32X4+Fu8/bNvM3ToDRxcVZozXZMknslg2jFlsSwNXCoWFNpSRVoMEz8MKHtgWnG6b/g02z72WeL1nUgcQhajC41F+ZLFYIT0TZRV4Q/5u6avlkPQrFBvm3cZXU5XKLUKQAhTZeK+LKu6JrwjYEAAjWGqKpQCCARAeMLAhY4CTqHh6rKnswChQnWVMb20WqADo4wtanzJUFGLv647phZ3IfR8TVd5CpSItiTANz3V4WzfwjA8yqb83cQRtscS+szEFewiyhSl9hewnwW/Ft+ZwPRqxL9XgRcBCOMnA7708L+nuUZEih922y/lfS5kEDRA+NqV5qS4SIhhKnepnRQrtRhsAksAQow12T++BhCiWgyLOSkuXDbPH9nWff5Ct0YLr/9BAMKEuPNOF2htbiJuozYuagaaZQsWZtAsZbxenHNEESGzpVgay/p0WjL3Tp9maiqHJzUXDFtV25TU/ng8HrkinhkeWarxUbVpUsVYqfIzAQyyZgpo8KSukeGTitu0NtXR2tRATSI1W35aVVtW64s2GFwRgBCqBSSk/8gr5Pd9XSGXuu2/weqdn1Do/mwAIboX9dkwyJMf62Xvyz/m0Fs/oTw1RNIKSSYTJOIOsZim90ulMpPTMwRFk0xDDV7CIFa7lu3Xf5L1N96PlWkiNMSrQftwXyjVdAZA0CUyLoNF6kyAQLIsduZqt26RIh065JmkJCEa0tiUyUvhoED8wAPKthKCzI9XKT9zQ8X9LbOezau2U8wfY2hikrIqSarRpv5PC01VHQ1ZzIOELnFszJX2EpBgCjsk9+A1kbRmyIclyiq8VEH4IqIRMFDCCdqJWwOU/Biemo2uAYSLM3Wt1FXP1CBcAwgr1bZz11lpDUI1QFALSGXneJZbr1RFVYWAonPOyGCr+nm165/aBC64/oUCBMOPEwpjYMjcE20wo/n4stw2hK569lwp5ODxPk4MjJGuraO1vQ1bYucSNojaTZhw3UxadyCZd5V2XA5AmL/xnu+6OPt65dqEzExNMTE6TCIeY2P3Wla1NCiDKZWtF2U6qEjB+UMM52cQBCAIQ9B38AXcQ9+hVHKp3/VlOrbdD+gCSosxCNUAQRsZ+7j5KUZPvsOxd37BwTeeZ2rkFKtXtZNIJSmWPUwnrqo+xpI11DQ109K1mdXrb6ex/TpIOGrhku9TS7mK3VwY1VQBCL0TJfqnJZ1LQJBQWR92d1wIEL6PkSxjB0Ldx+ls3squ1Zt5bu+TTAM3rbmbVMLj9WN7WFO7itJ0P0PhBBg2luz6I9CtnkqyVT0TJ93K52/+CqdHf8wvDr2Lr9gGKfhhqTpECtAJxRWFjqRVpHaFAmVRnrInoCKwCZ2Q9Y13s7HT5/X39zBRKmLLxYKA0NQVPUPibOp8iFWpfvYcOMSMUVZg5BqDsPILzspd8RpAWLm2PPuVLiZAUKygKqm7+Jw2z+JXVRDUC9e5AIL8rlI2eDEAciEAQRRuEmLAKkQFeiu+AJHw/VK8iGV+h4TOS37I2/uPM10IqW9swVFaANkeqSVYV1+MxPtzgKDCrEfMzRIp8IXArAI2KsBjFjzMpgeI/s9nZmaa6akJtm9Yw/qOBsWUS86ilhGsIEDwcenf93O8w98jXwxpvvErtG+5ewFAkMaZ24XPOWKJ3EhXgtQmMy7khvjlk3/J0b0vkmloZ9sdnyRZU4fppIinakjVNJJI1hNP14OdUJ+tBD9U40dyzgtdzi9bgFApnT0bYvg+ZqKsnr0cxNi+6nY+tvEmvvfS/8eUEeO+7seoS4a8euoAD+54kJETL/Pa+DsYOMTDpNJ3+L5PqVwmlUzglybIW0l+9Ybf5/TE4/zs2DuEohMIHJJ2LZlEHaFfoFCcArNRaURMY4KZfImYmSHpxDCsEuOF07giZ7A9Woy7aG/s49TpIZzEGhzDU6W/J3KjYJcpmQ4tqY+zxtpPz8QIU7awDxLZ+GiGGFR58yiLwZJyz+cMMSyWZaxmBZ1FAAAgAElEQVQzn5U2Y7mAVG/ZFv2Y/qZoctLR22VOe/P1KguzGK4xCMtsziWcvrIAYY4FiNkxtTgVysVoE1XpC3PvuAIG5CfJRJJioaD3l1XdQOZwocjlKBZL6ncyJ4j4XMR3ujtWhZVnizWdx0kxEimKBqECEHyrrDRUEpMXpDDLaCx3jCyh3T/oKZJ50D86wUtv7ad7/SbSicRs+qXmDuYacX5ewVyG3/x7WMpKtvhcMu86UVhfbaSV4R70Dw1RE/O567pNmEaIh6PWE7VSv3ps+qyzhBIWRtR6LAxY356iIVVR8s/XEkhF66HDz5N9++u4lkP97i/Tse42tQAZyrwiElOIWMPQC4CKpUdZiPJ3zR3pkpaS7nFw7zeIMYYT28qqzXdj2SmIYiOKpo7qY1cEKhXU80FfrnzeDwVHhfSKBmFS/i5NeWFsxErcTzUC1KMu4B0lUvwOTlLSfAxcq8z21k/ywLbbeefQmxSCEp1r7yWR6+FAcYqPrf8kxfFf8mr/Pjrb76Q1UWS66NDStIHBoV8SSzbSmKzhxbd/xm07Ps/A2HO8fPgXBIHEyzZz/02fIeGNMu3bDA320966ldrEKKcnB3h3qJ+H1z9K4JxiaCbL2z3PMRGMkfAb6FzzJe5tzfPGyVPcsetTDE2+x/jEQd48tp/AylM0k9y0/n9mU/AiP+zZj0xDagAFAhAMvvjQv6MpvXHZa+VKtvtSr6VHjMTGZQJ2cVSaY+EMDYLWckiMcq5U7eqmODNulumJOGXbZNsan6lRi/FCWWlKpD0sQ+t5pIhsXSxJXTKG4RQhSGIGeYamDIyygV3jU5eOEwYWMgLFjU4yX5wwS7ZYYiKfhqCAaUnuuEXKMOhqr2F4Ist4UXYQwpiVCXwpsV6K6p8sBhBM7r+5XhklXXKAoMJk2oQltDzaEjZrc/8ao+9vsIT1UuKwqPT7ghd4NYoUlYLIKBGESa7vuInWpnb2HHsdw0iR90bJu6MQZAgMV20EMmaN2kvGYhY3briHNw6/QcGbxjZCcv40fuDSkGqltX49hlVW88DU1DDb1t9F39ABRrInVFriPCG0ZByoao5LAwgHxzepkKMySrKk18/NwUtZMpc6blf6PAEBfWNZnn7uNbq6ulndUkfcqZT8kzdRAQmV54lMxiTEcMbNyLlLWXsii/qqxUI4XRkgiqFXl9DZgzJyfD8gnytw4ORp1tY7PHzbdp0uaoimLNpunw8gaOrfJH4ugCB0MTA6fJi+l79KW0uG2NrridWswonVY1n1WHYGU0pSmqJm1wJDFY6O6lBrgBAxCRJLLxY4cfh7JNMZUrW3kG7uxDDEpCmaFCKGYKVfbOV6GiAE9E649E5K1P0CdnMX4ebUdKeAlKcAwr6h72CnZMdq4Vkltjd9mru37+Yf3n0GrxzQvfnTNJeP8/TxvXx295cYPfI4r+YHuX/X78DQq7w3EuMTt/8aAyf/jHcmV/PIrY9x5K3vs37TZzg9+gw/P7oH33Bo77iNz+28lb/7xdfJuXmSiU3s3HwPce89+nuzHC2WeGTL58i7ezhxsodTMweYNhMkDIOO9Z/j080mv+g5xS277+Pk0fcYGnyOY4UsnpHANQNu3vj7bPV/zhM9+ykp05OPLkCQXZ85CxCEQcgvIlLUg7l6+bpzRyMzhdOc7Ckybdh8+uMdHDyU5cRQAZHg7NhQT10qJLRDsoFNWo3Jesx4mZIXJ5EwePrFXiaHS2zbnWJ7Zz3FQkh7fQrPNJgYLVHnBORMg+//bBBXSpp7NcQtn6Q5zY4tdTQ0NfLcq/0qRirpVUW3jtCulBc+G0AQJ8X1Hy5AMH1akxad1wACf3k2kaIqYW/TVNfFzrZdpOIJpv0pbLORsdxJ3ut5UQnoDDzWd+ygs2EblleLY8XZ1LaNQ8Pv4xp5CFxOjB5mbGKANc3raE1vwghLDE6fpH9sPzds/iSmVWRypsRofoD+0f1zYYkPBBBKlX3tRZhZV/aSwr4MTBZ54oW38YwYzbVJmhsy1NdkSMTEEDpUwsC5hV/mg2gTqooRVo+1an3XWe5T4eT5IELDCplLK/9pTlLYjYnJLFNZ7TycdUN2dKR56NYtBKKPQGe+qbV2JQCCys0MQ8qBx/DRlxg68RaW7VNfX0NGhQVimhqyMsRT9TjJBqxYE6ZdC6Y9q6RX5IqkwAUh5YH3GDj1I5INq6jpuJtU3VoMQzttz1pPXqC+YCldYT5A0GzC5bCFXQgQ9g9/ByPlYfsOoe2xpfFB7ti+iW+/9FcEpQQ7dn6JtdYAT57YxyM7f4vJQz/gpfIgD279Tbzjr/BWaYJfueXLDO37Tzzvr+FX7vh9xl/9Jqu2fo7pke/yo95xGqwSNbWb+MSu+3jyhf/KpFHACKSkajMba9awdeMm/v74X5Oc3EhX2xZ2rO3gxb1/z0RYJnRdMqs+z8OtOZ567wnsWBubax+gqzXLM/ueVR2y6GbZsf5fsCn4OU8dP0QplNxmvWP+KDIIFYCA4aqF/XjvmQyCckcLwVUDUoa2z4M31LN562oKWY+fvX6MG7dmOHWqwPs9BcIwQVdnmvYGl5s2tfHCW720NNYQFiaprbHIZQM6Opp4ft80Q/05Nl9Xp2qe9A5kuWV3m3KY++V7Q6xtsbnnzi18+8mDhEitCJdHH9pFKmmSypjUJxP0j3qK8xsaHecnL/RLWTQMUgv6f0WDIAzCNYCwlDnlQs5ZyRCDLBgNyXa2rrmRoVP9+H4R3zfZtvE6RqdGOTT4BjlrGhOPeqeRm7fcTcZpIuYkWVPXyYnxo6ISUy62rxx4me1bb6Ep2UK906nmx0l3hDcP/oz2pnVMTp5gy9qPc3B4DwcHXlOPruLiws5eMIPw0QEIBD4D40V+8MohvHidyh4wy1kcPJrra2htqCUdd3Qqo2MpfYf2B9JKrgUFGub+qdjjaC2SFzorIhO2TIMBvYHUzJo4jSq/BS+k5HoqtXJ4fJLpnAtOGiuRUSH9bc0hD9yyJUoRXWGAoAQS0Y0GUp+7OM7MWC+TIyfJTQ8SehOYUjvBNrFti7iTwY61kqhZTap+LfFkE4YUYRCrA79IaWKI/iMv0tico2Q5JGqvp7n9Jkw7o8R1lWa8UAHiUgbqHEDw6J2UYk2Xx1EBCIbhayfF4e8Splwc38G3i3Q338F169bwk9d+JHES1m3+LKuZ4Kcn93Hb+s/RFhtl71APXc3XUxh6kwO5HPde/0kGj32dfaVV3H39rzK8/2d0rPsY2YnXGGUTN7UUeG7/u+zY8Csk3BNMWQGjEwOEZh2rUjb1zmpePvka7Q0bSdbYrE0FvHpggNuu+wS9g//IYNjNgw02z/e8Tn1LFzVOHUlGOdibZdfWrbx+4ElWt/0m68Kf88zRI5REASw9exYgiA/ChsvjBZznLnSAQTMIAhCEjj3RW+RrzyxwUoxSRz3xmqBMxi5y/23rOHBkmO5VcU6eNti9sRbHTrHn8ARH+2ZwZYKvCXlgVz0/eXmAG6/vorMlQX0iRj5fpKGhlh+82Mdgb4Ebb0myua2OsWmPjZ1xjCDG8VNZWmtDEjUJ/vIHRyiYDnHT51/++vV858nXyJMhIbnUhkFdosBdd2/j+88MkseNdjvXGIRL3QlXEiAI6N64agvrM9dTMnNkyzMkzRrCoMDa5q28sv9nnJg+QH2mi61rdpOhHktSlB2Djvpu+kb7osXJZ8wYIT89SV0qQ9yU+Tuk6E2TzxZI1tSy//BzXLfxXnrG3mNgune22a4WgGAEHv0TAhCO4MYbMC0L0y8T+i54LmEg3jEh8ZiJE9N+B7G4QzJmk3RMlekg4T/1OcXqSNq4Hn867B9lOigfEP2/Mi6+Lz4I2mhJkgXK8nVeQLEsxkxCKZgYtq1sASTbTwwMAzfHjqaQB4VBUJvuFQYIqsqhcrESJYKtYp26kIpH6BYIcuNMD/cyPrCP0cH3KReGSCRN0qp6owjdmsHMUHRdcrlxwvIojR1pVq/vJlcwGR93qKvfTKZxNbF0I2ZM8vSFTZAwRcQnRDL8+XGpC49SKfcqycyY8OiblGJNF6DpWuZsUknfqcRV9VfqZ9DoMqKRlL/DHEAg6WEHNq6TxQzbyZgeOa+MYU3j2V3Ul3KMOtPY8jvLJV70cG1HodqSncW26qA8g2sE1JTTlJ0yjlWL6cANGx8lGHqF5ybfJB22kTKTWOWQgj2D55gkvDhW2aZgDpG02ygacTLlHDTs4N7tN/PW23+Htep+7qz1+dH7T+P7KUp2Adu1WN18Ex0NFr/c92N27vh9VpV/zj/0HMPF04ZL1QyCquZ4+R9LBwhiIiXmVT5x8uzqqmPjhjU8/8oJNnfByFSK69fX0dM7QMPq9fT3DTE+PMFNO9azfWOcl96bIZMJaMsE1CXjTBdcGhrqefaX/Qz1Ftl1Qwo/73NyqMwt19Vg+TFe3TdGZ7PJLTet52s/OEzJFCc6+JePbeGvvv8i02YDMU/i1CZN8Sk+8fB1/O2zJ5EAg3UG7XkVMAiztvDaUEx2aMrLZXagVsakGqHRSI1SB8/SVdV8pTxV5mcDzAlGq+csoYQlvAlu6BE/Psif3HiSJqcS8qn6kiXUYghwVebSx9c9wuHT+8l7JTas2cTBYy9xx5ZHOD54kFPT7yEV82rsWtpSXbQ3dqm5XYzPPFP7ovQOnOI0fWzt3MLJnuN0dm1ndGaY06ePcV33nZjxBnpP76e9YQeH+55nsjiyYgBBdpHLMwv+cOYMAQh9E0WeEAZBhdk1K1Ax21MCUFmsA6lQGRAEnlrcQ88l5su/fSUel/NE6KwcEC0BCtpwUKn1Aqkw7KvMMmXsZ6cxTHsOzEtKY0zC+jYYIiS1VAVWvYrMVWQOS3m2VwOEUNa7KMTw8tGzl3uuFinOahAiJ8WFylQ1RFRe7XwFtV7XtDIz8HMUcmOMnDpI//5fMHHsTRI2pFMpDNui4HkYlkN7Sx1rt68l3XUDYbKbUqFMfvg45bFBLXqpaSfVtIlMzSrsWK1CQlLyQlI0TEMXhZKqXsrYaCkYQXLx1X1HWRRR+o9vhgyNlxgYkwVLwijzB69avtUkElE6UV9UP9OrevSThTpQ+Z7oZ7NaihD5PnXDEv91y9iiNMbW9SfE8UrpeaUQhUZ57/Q8xYFhqeao9RGqIob6nc7i0EIzU9FMIj4RdBhpUKL708CuYoOiIlRiXSrpj744eaWpr20gN9NPKRB6T+sfdCfV71TRYTLpqa/UDlyi4E+k6sgYNnGjhQ0bbmJ6+hAHTr5IOZRwk9yHQ026Ht+Hhsw6Nq3ayMnen3ByYhjha0JTULbB+AkRKf7fNH6URIqqDLJmEBwTTvQtZpSkoYRUfGxvTLOho42YNYNROk39qs385NU+PnFjC3uPjDI4UeCG6zo59P4Jdm7qYtemNC+/N8jpyTKrmlNs70qRywUcGspzsG+KfC7Gx3ZJHZMU/RMeN2ysxzfLvH84S0e9yfoNbfz144dln4Dt+PzBl3fTc3SAkpFUzI1025hZJFOX5nvPHiPrps/BIFjcf0sdv3JPF9PKSfHSTchKaqXzZAkjDUJXXkSK31wRkaKAKnFobE5voqO2lT2Dr+CaNrvadzA1Ns7p4oAah6HhYAW2LjVseDh2nPa6bjV2JTUv8GwGZ07i+jkysTVMlUapjydoqOuAIIEZhISWKG8sxiZOkPeELdJCMakgK/PaygAErVW6bcOD9AzvV7vLDd3b2XvkOe7Y+gg9fccYmN5D2fRxghS3bbiPhJlhMj9JbbqRiUIf69pu5OiR4xyd+THXd95DZ+0mrEQdw5NDjOVOcKD/ZXasvZO6xFrG8kMc6PvFPH3d0hmEdgrbn+bgxCYVMzcCESkWP4Bl06Xrl3rFCxiYKPL0y/vx4sKwVHQF81m4xe8q6tOVLCMBATq/PGIPqgCpWraiTaSsDWfJYKoshIvkquC7ObY3Bjx482blSikhpornj7ESAGGpTS/aArXYKXvlYY699TwHXnucoDBOwpF6C1IGOkn7mjo6Nq2hputWzMwmQhE1lkcontzLdP9J5dQXa1yDWb8Ru3En8XQHtoQoKtgkiuXMWv6d5wb1Wq0tJivxHWUIZAYMjHv0j4sLoMRz9Iubt+xrR83ZibH679Vfu7AKrgYQc59V3y36Cwzc0OT4yT7amxppzIj1sF6QBSKoZM6zAIS579O7GJ3QJl+iHecqNtdnbw65B20NOqt1UN7dklmiu5bqjGoVqBQBiWpqiKeBKjKiJyF8WwlxbCOlSnyHQQkvzEbhsej6KvEnwLIyJMU/MxigLC6LoRgviRblSgYIEi+UpzewTYMYsKbB5OM3r+Wdw6O815Plc3et4/0jvZwYmcFwbIquSSYT5+4b6/jF88OsWVPPbTsb6G5KUHTh+IjHC2/0MDMV4+O7AxobMgyO+1zXXadstt/pydLWaNHa3shfP34UP3SIWT6/+xvX8bd/9yJFo47QkIwYh5hRoKmpgeP9RcqB0JxneuJV0hyvVICgLGjNAp11N7K5YwtvHnqVySDHLRtvYGhkgBPThwkNj+2r76C7eTMJI8VMaZzxyVHWd2ylUCjhGzkcK82enl8yNnOSbWtvYKYwTXtNtzq/qbZDeYf4fo6i4XNg9A2O9h3EszQFvZIAwVd1CwJu6bqH/uE+6mtbidFI3+j7bFu/m57howxOHcA1YjhBkts23MHo2BBjM4PctuMTvPLuM+zcspPJcY8DY2+yOrOeHWuuY//xX2DGa2hsbuf9npdpiq/lui0P8dq+H5B1xwllB1u1VVqaBuFKAwgywqNJfwkLZrXfhPYQ0uNvNsww5xFQ9TPtX7C8I7xwgKD2l5ImJAty6Ok0x7TOJLgQh0JBQbKTlU4vIq3AzbLvxf/BgZd/iF2awLEMYokULQ1p6lenaF23hZpVXRiWwUTfKY6+vYep0XG8IMbadZ10776dcnoTodNBXV27WmiEHq1UuZpVhS4FIKh0M0FqYk8saZiuWiwHxl0GBCCYflTDoPpiKytcFOdHuYtiYPGjF0XYY3HnjTuVAlYYBFEYC/WjUkQlxHBcNAhzDMLcIPRBduDKCMlUtsr6c5VOerYGibyPI3ihO6YAIy0NnTVIUZ1TrhsBKik8otLvAgxTAIKcLWhW7ReQGw49eS+OTIWzSFjFzlTsxsbwZfdVIlTFM4SOE4dGLVL8jQcraY4LmZjlDYVLcbauOSK7P3n+czEIOtHOFytygX1+ie62GHfe3Mnb+3rpH57hrlvWsef4NH1DOYzAJR23qE+bPHz7KvYfneLYyTKGXeS6HTUUJn0O9eeZKpn4boJbd8cYGMupDIh7dq9RluRvvz1OVzPcdd9mvvHEQbzQpcby+dIXbuWvv/MSJaNB2WN7YRLbKCrGSlIgTVU+dWFfnzNKmgMIEp64dO9IMVFq3Eq4xqddshhWkEGQMKPwXd0Nt3H79bcTeiFvHXuL5lQtrl9mz6nXKflZUrEkNUEb997yCV7Z+7wqlHNT54NkcwVCI4tlpXmz7wUGp/azrmmLwtbNdetIuA7t9WuxpPZJOEM+KHB4bB9H+w+pjCTlMio26cYKhRgMHy/wabVWYTkpujvX4xUcGlti9Pb1cWrkOCV7AleeO4izvnmHqnXj22U6m1fTN9JH96rtDA4NcWRyD/VOG/fseoCB06MYSegb2Mfp6VNct+FhHNPCC6fYe/R1XNwLyGJoJ7/9KXSao4EVJAhMYRCWku53KUb6ub9D5sL+8QLPvHxAMwjW8gDC/KtLGXWtM6gcZzgsql9VHGqX8/xnAgSZoyvZVcYvj0yec0TreJmkOfqs70jRmJZ4xlLzMuffqF5wIkMkJbIIKE718daPv0nfuz/DIUcsliQVS5DMuNQ31NHS3kAibnB6aJLhkWly5bja1cdrG2hqa2L7rt3UtW2kbNaTrFtFIlGPaSQi84+leRdo4kBPNENTeY4NTxKo8ETAxIzP+LQAJZGILS1isZzXM7eoC2gSq0sfNzDZc7iXkekSXW313HX9eppqk0pgIuECPUT8M0IMc9cSIBaqwkeWb2EZRcWG+Eoxf65DcXlVJ0RK2DOevEKByXZfhzws6cOmh2+UkTpNWuyiQzCV0I20ntSB0DRMlOan2IpKsRXZacjv5mcx/PqD/47GtIgUL93icyHvsNJMEuczffFBEC2HcZYQgwaDApZNSmxYW0dLUy3HT/XSvXYVdTGLpFNgtGxRKAY4YUB7c4qWxhT7j4xQCopYZh1GUGZzV4zyjNQN8RmZKjN+usADd6/hZ6+eYixb4v7rVilqcv8Rl1UNITfevpa/+cF+pUjftaGexvo4L+wZwA1riId5fLUsRunEUZpzZJsyr28sxiDohOdLcwhAUKY5qkiZAAQnAggr44MgfbiGJNdvfpDjfYfpbuhmxpimIZ5BpKWn3WFO9B0hG5wmWWjhs/f8Oj97/VnqmjPc2H0/uWxRhRgsM8Xe/pdx3THaU1vom+whsDw6azZz4+Z78QoGOXeEifwYe47/I3lvirIhQjG9mVqpEIO0V2frelqSjQSxBKcGj5CdHsO0A7o6ditjoxMj7+IGHu31q2lOrCWTbmTGm6C3bx+xZB1rGraSisU5Pn6QtJOhPbmaeLqZsVw/ExOnsOIWqVgro2OHWdW6idHsIP2jx2c3bcsJMcwCBAHQAhAkxHApY1gfoBvLeBuYKPD0ywfwVwggnG/qXhmAIMX5BCCoqgycEyDM5U8KgxCwUQBCSkpGXhiDoOeOuZ2I6iyhT3nsEM//7X9k4tS7xG0DI57EsX3iRpzaRIx4SpZNE7dsMTxZorX7ZrZ97BHGRvs5ceAl2jta6dp2PXkzQ7pmNenUKgxDEFu0QFVWdiUxWIRon72vkJ++cYhv/+P7FKjVSvowpqhY05TY/HLpm6X3MDXNGZGls2nhmv8/e28eJOd533d+3vftu3vu+z6BweC+CAK8L1EyReqwbMlOYsdxEldlU0nlsLPZrdra/SN2ks3WbmVT64qdWLasOLElWSapkyJFijdu4gYGM5j7Pnqmp+/u99j6PW/3XAABkICIQ2yViiAx0z3T/b7P832+v+8RwhssQcvGqPVleHzfFuoqS9Vpwg0eMTk9/LJiEPSgJIxJCZMHW8tgaSVUhRvZ2dKLz+PBsmFw6BiTiRGyhpQnyQYu2gHZ2wsLrJQ4STyylsdWp1rpWdBUgqI6ScqoQSnvPUpYh8xcnSDtTYfobqxXFKmoZfsGf8ZMIqUWbNX0qOluT4QhjZimmrMKQ6CLwEYpdcNUWglipDAdvzt3FbuOqjZ1GYSvPv1vqbyHXAwqAElpEHL4DP2aAGElgsy2aKoNsa2nkcPHLrGYM/Bpeep8Ojt2NBXSFHUyeY3RqTm8AS/9I0n8vhB7ttcQ9to4po1Hk8YNnYVkjJJQmMVYjDNDWdWi0VruMjW67mH/9noGh0e4OGiqxLsHtrdwqf8Sk0vSwRHGZyfUZyxzdWuNnuVq5vJqBiGWEGB389f8rX7leg2CSX1IAMK/uG1BSTLq2lzXQ315J7Ppccr0UhbNOaoDdcxPz5PWl6mubuTy2Bl2NR/kwJbPcGH0BNNLg+xvewzd9uM4OXJWnnf7XsHWF3mg6wUmYkOcHn6fnR37CGhl5DM24YiXnJXlnb4fYRkC3YSxdM3VH1ukKM2Aaw7cohfqauoln8gysjCO40thkFAHNS1XR3PjZibmzmPlDVoa2qkpr2FgcIBEdg7TY6HLPZy38TkhSsrbqaktIzUfY3LhArovRGmwiXBZKWNT57HsFAGjjHBJDXOx8UKwrSsoV1HMNwxKchmEi9FupUHQ7aACCEWvv9JSXesCugY+ddfWG19t7uBzzQGpOAfe+EpF5nTlKa8+MMv9PbHoMgi3DhCKGQnrtW7uO1D8hYs/w038ouveivUMglunt0aDcH0GoZALp6xYFpvqI1QHRRX58RiEjR9RcfZvk+TyBz/i/E/+AmNxHG84iMcrLZA2PgMMn4HXHyYRy7Fk+Hnoi/+zSmmUFsjY7CCD599CN2dp2tSLJ1iDJ9hIuLQZzQi4J9iiaE/5cN2opfXvUfFNdvjJiQH+2zG5IcoKRPfq17rPtVFk8mEfiAuE3I9wLT279gNd/e9uT6KNaagOMAzbHe3Ie2SnotT6Mzy1bzN1leWFn8EVKfbN/BVaOKvCOPymoOwERuAAn9/+IPPjxxmZHaaq7Rl2N9by1sk/Zdg2iaQzJPDg9/jI60nsvI1m1BHWM+h6lricWD0yLvDhMf1YhlRdZ9Fyy+S8EQI6ZPNx0EI8tONf0swkbw6fobfjS4Sy3+OVsyewAhHCjkHOr+FLxVn0mAScEAFvUI0jPFaUDDU0dzzNs54Z/ubK20TzGQXGFNO0JgfhngUICIOgMyIixQ02R/VpayZ+yyHgkxM7pLIWple2dBufKQ2Fov4QUCaRtT63+EwT2lo2bwtf3lAtcBlfFo/txWMa5I0MpRE/mVheBVy5mW2aOF4xPLaKzE0lcy5jZtgE/A7JjGghpJZdAKq0cfrcNs/CKOnaDfJ3F0CwdVMxCG3p2ydS9Glh2us70TIG7c2bWEoscmbsbXa2PcrM3CRTyYu01O5lcOYcFVo5zx74Gu+ffZu5zCVqgpvort+ttDiXp48ylR0hzyQ76p4n5PMwlRjGb5QT9PtZjC5TWVXOzPw4k8mhFemUq9BRCTLqVP9RXQy+DQDBloVf0jSJkNCW8Dh+df0JE6SmiE4YW7IxCoI4ScE1TXFdpNUBIUgI08mSNxL4cqVYursvKFG1Wgbl9KnhGAaWZJko6XhRM+WuuGqz/tgAwU3kWMnBWWE216CgFR3ZhiXe1Z9v2BrXr93yvO65ec3DnYGue7hultWHu6OsVgi4v6elRgzfP1wYMei3MmK4Mbj5+F9xVwOEYnIi2MkFLr37HS6+913K/XlKSsnqWacAACAASURBVAJq8ROaT0qa8mmTmfkEbXue4NAL/xRvpKGw+efIZxYYHjjN7NBJOroaCVZUg7+D0srNBfWou6eqkgwlBtxAtRdm/3JpvCoA4eg8WW95Ia5CLhpZZIsuho0o7lofzbW+ZqOjYePXuBUeirZVllG1TaiIXa+ZQEtMc2hnF9u7mgscSAEgTH8LIwh5j2QhaDh6kO7m3+DB8jh/0/fnWFkNO7CTXz3wG8xM/4QFXzkl8WGOj12it/c5PLlFLo1FOdB1AF/YwuN1OHvxNRxjMwe695LIDLOkBYnkZjh1/nXStbt4oqqGNy7+iJjm4cE9/4Kt+gLHxkfoan6E1NxLvDsyz86ePbSHDXJGiMXJCQ5PXWJT0x62VHaQ9CfxZCYYnlimfcvXOMQ0P515m5Mjp4lnkliGa7W75xmE6wAEWUBcrYJci7o6ZfpkEdNtDK9GTSTCdDTpWpokNliYHHHwSJKd48fx5akpCRNdzJB0fFQHNUKeADOJmJu/ILY0xNok50Zhc3JUVpaq5DRH0iuVs8Vd2EUvIpqg8pBD2CfBVa56VjrrbQLquhQOb/1yev8DBNmaDSOB3yphT/fnmZ0fZGThogoQmpgbYiR5Bs2KYGkpfJlqPv/Y3+GN4z9A98d4dNPnqQu341gG0/HLHB58k6X0JNsaPkfQC+dH3kC3w3S0bscXKqNv5ASJ/Ghh3FbczAQgangcES7fOkCQ1dZPgM6WrZwbPUNlpImaUPXqWA+daHKMhcwkej7I9ua9LCzPMJEYVqfKHe2HmFiYZiYxjddJYdvCGtSSz5pk7Si6jFPyHno6HmR2YZ6F5BUsKV1T1+GtAwRHT7nTyhV32rVOzbKKF51sazfxq8HBapuD+3eqpXblULd2xLb6s18TRLjm13WHx19IgLC5Pkx1SObEH3PEcBWCk0tW5h0SImFjJic58to3WR54BzVyx8IyvKRTFksLUeYTNo9/6R/T+/jXVNCD+gjVIdzBtrNM97/PwIU3aW6rIlzVjjfYTGl5B5pXxIse1wYpqY9rVLUK7SnELJuzxhvHLvHf3hki7ZUbR1TM4l11mTpFPn1UBudmoZ2yD8r/RBwpd4EH3SMBNyl8+Ri9rdXs6Gkn4nFztoo2x77pb+MNaOS8aTy2hGCUsXPTP2S7dppv979KPhch56vh1/f9Gkvzx0hGtlITO8Nrg0fYt++fU5YZY0zzczAS4N3hd6mteQa/0c/wYisHG8O8duy/sKB38fld+zlz5q/xtj9Ht3WFV668QkILcWDHv2ZvmcWZhWHKgk3komcYzkXYUV/Pe6dfIuDr5DPbH+T8+Fm6Gjdz/Oy3GKeML+z6u4wtvMki3TzrH+GbF35C1MlhiRtFcSirQUn3I4MgGhJFt4qGQ1w65OisC5JO5dQ98eSjHXz3+5coryqntMTH+NgiZk6npjaEz9BYiC3y0N52Ll0aZTZm8MC2anxeL2+dnFKBZFu6q7gyPIHfH6aqRCPsybB33ybePzpAxvIzFc2qtjlJxROUIGONLR2lbOvp4PCJEdrbWzl64ixpO6I0CXc7QLD0PA2KQfiXt2/EoOrTberLWmio2EYqF2MpOUtTSR2T8xNMpgdUY2mlv5wSTwu7t+1nbKGf/qkLLCWy7Grfq4TC50aPgieBYWlsb/8Mpf5KEsl55W4w/Cn6Ro+xnF5WBwJJtXP0jAJvju5Vm5ZsW+YtMAjKI6889zqBfCU7e3ZzYuAY+7Y/QZk/SCKziMcO4PdVE8/P827fD6kr6WRPywGmFy4zm1lkcWmKAz1PsJBcZjY5Rz49zXJmiaa6biKBUvoFcJSX0FK2g466fSwuLTGdvMjg7GnSZnJVYCcs7sdkEDAyKoVRwvLywqwKy2rb+L2eNc/v7gcCvl0xvWspV8JptXa7VIISSCvwXfh3We1V9k3BsVXIGnBr7NcwwEUd94qL3WWlrRVXVzEx8heQQbjtAKHYLKX8zLJT55kfu8jxH/xH9OQMpX4UzZpMmSwuzRPXAjzzq/8bLTueVMldoiZwBW7uJm+ZaRXG1H/qR9TU+SmvqcLQeihv2Y7mLVcoT9FnG8R68r1F1Wbf0ASvnZ3AEqWdo5PImqRysmRrBePGNYZcNwsCrvt1rqdbToviVpiczyq7WcjIsbOzjt72GoISeiGJWmtsjn3T38IXtMjpjgqzsT1empt+madqdV774FvMmRmcyIP89v5nODv411D9OVqXzvKj0ffZve+fUJfqZ9DfxVMEOBw7S8YfxI4NMmsc4pHKWV479W1mtVIe3fwFKvIGkQqN8/0/oS8xh2ZqHNzxjyi3+/nrgTfojDzA461buZRapiGQ5scXv0OA7byw8wkmlq9QF27h8Kk/YtBfwfNdv0OOo4zlN/OZwCB/ce5VYk4eW07HYpW8z0cMbmmKaxcVjUfQSPH0g60MDUzhCfhoawny9rEJgsEA7Z1NXLw8RyyhUVZpsGNTFbFonkPbKzFzaZYyGk31ZQyPzPGz48vEMxZ7d5QyNz2P11/K1q4yynwpujqruDCwQDTp4fi5BdJ5jf29lYQC4uE3aazx01hfwckLU5QEA8zHMnzQt8C8TJOuGs3dXQzCzwMgiKuoqWIL5ZEaRmfOEojUUF/TQTl+LEsjqacwbB2fJ0hpqJy+oSMk80mqq9uJaKU0lbcg3P1UfIi4NUcsGSMSiKCbQRprutR6lMosKgeDrGOO4yVjLdE/epqMHVMx5MInypHsVgBCUf1eU95IT+UhmuoaOTt2gupIG0GvwXJmFr8VxOsvYcme4uSFt3lwx/OEfWUkEkNUlbVzaewcTRWN5GxLlcLpWZ0TQ6/hM7zU1TQwPjVNKFhKhbeObe17mJmdZTI5yEJmgowpupbVqOWPCxBsI6sAU9Z0mF2MkcrkqCsLURGRGPDVmmRhndWWvlKlLJu8y9jKYa/I3a4wCMXcGvdZXOBRqLZWYMJ9cnfk5khUdOHrlA0VlZZaGvS4IGwl7fA+AQjvXL6Bi6EQfiNxPZsbwlSFCl7L29GDoEBB0f8vyE3HzCZ4/+X/SPTyW9SWBZA4v0wqw3J8kWyomqf/1v9BefMeDN12w1sURet+YEIsiR0sOnSM0+99k5qSLMlsPVsf+mXCzXvUaMEjW71WYEGK31mwcCnpn22r5DhdhF/SyBXNML4oDWgfy9n5kaCDErdhkbY03jx6ntk5Sc7bxPZNrXiU3EwWZYFFspjYnBl+iUszf4kvYKl5oDT32YaN17eZL+/7PLGpY4xGR6lrep7t1SX89OSfEKp7mJ2VES7OjtHT86ssTvyMc/EUj9c1cHLiHeJmkNziLFbDwzxWbfDayReZNzI01j7Fb23/x8Rif8H3z51j+/aDTA0cp7zhAFWBBCeuDNJS00Io4Of46DxPd7fTP3mSgKeJ5qoyDl8+zq6eXyI5fY4ZJ8eutl7ODPwUK7Sfp1sq+em5l5mIjZCWG1ABOLke3BwEsTlWhLoKSP4jvaWf+Be7Nke5Dr1oWlaJFEcmMvzJy4OYatC7crkWrlqxseWJ+E1+88v7MGyTqpogqVSemIi2HZkca/QNLnPspMRbp4kETOx8KWVhh5Yqiwf2beJ7r59TjMD0QlgxXxFPnJyl4Q+EeP6hdpqqDWoawozPpTl3cZF3T4ySwktPg63EwPFUnvbWEjZ1NvDKu5cIaBmC4VIujqVI5P0ryWprf4EVF8P+Ml54rPUTD0pyK97dgDZTN2kIemhP/y7a+DduS1BS0AObmvdzZXCIjD6C7ZSiOxHKwqX4NL/SSIkuJJFOKZdTIj+pzh4loXqCUlRm6eRFU+N1yJspcrkcWSupUvIqw5UqXtcyRScSRlfrWZqMZRFLLWAhzyl3gcsYmrdhxBDwRagxOuht38YHw0fY0ryLxXicvJmlraKFS1PnieamSaYXObj9swyNiW1xiAfbn0cP+UgkZ7jYfxrDl2db2zOMLp7Fp/vJ5ywFgHZvf5rqYBNBCdyyIKdZTCQucuTsT3Ac0T+ofF3VtXNDkaJeT3rbS5wTkaIINa0ApnqPNS6PzRLPWtTX1VLqkVhzuUNcV5ws5ZbtuoOUrd52lMXXFFu9bOiqWLDwz5X/VpTjG6pWSH2dPJft6j+UJl+xDW66oK6SDeWfLiCQ66StthSPJB2uBQiLab7//qUNIkUlzVcCbrl6panSI4db2ZtE36F0Q7LHun4gWUtkXzRW7LzufqcssOrv3WOyPFwdiLtMuvZft9vIjbATLYn7d+tVFQ5mPklvMShJHaLdxFB1LHjn8ocnKbryOteWKDRXT2OIKnExFKmbW11+1x7GC7+IZWb44LVvMHzkW1RX+jH0AJl4knQqTaCxlwO//C+IVG929QHqN13l/OWcr5TXuWWGjr3IxXf/Wl2YbdufYstTfw8tWIFPSnLUiOHas4Ki3VvRcprDeDTHSNRUQhz3977VX/ra368+7EL+QDZv8cHFASpKSuhurleFHgUmzBXwKeEPnB55kb6Zv8QIrgof1SfmeCgJt9BRXYcfrzqVS9Wo32czMDFGeVkp0k6ez3mYzw8zt5SgvmILlSWCtwyWFgeZsTw06RGml86ojSRYvp/f3vPbXBj4z/TFvRzcupVzp35MNFhDY0kdutgbczHGZgeYd2yaS7tpKinFNnNMLVxmLrmsCp/aayrRTQ/R5StMxEfx+BrYVLedXGaCifkhlm1TxXW7mRSOAghfffr/pDLc+XN772/nJ1rIR1RpkgIQvB6N0UKS4nqAUDi/CJUs15buqPz16pIsX3hmC1cuzRBNJrG1EvGQMDG1SFdnA1UVDtmUzcBogkA4TGtZnoM72nj5nTFyWp5Uyqaupoz6SoPjF8cJhMrZ3xjAq+epbapgbGKJvBNkbN7kg4EZGqqC9DS3cmVolJoKg4O723jpzT7a25qYW4wxMBYnLwLIldDvVYRzFUBICC1+O9/N6z+XksCtszl66FAjhtsDEGQR1oUtkI1ET6kUU8kEyRuGcvR45TSti0dfQ2I8FGW9IoK3CdgOGUOi5x3l5JGbVtV2y+ZiiQBZVyFw7iom68vaBdE96roixY+Xg1AUKRYZBDnkRPLVPL73s/QtXqC9pAvT58VO2zRGWhmIXSJpLzE+eYGDXZ8ltrzIZHaEfQ0HmFmeZjo+SiaXJJmcYmv7s8Tz05T76wgFKnjr7DdxKGNLWw/L8WUqy6tJJhPk9Qxjs4NYTqYQF2+oE/hNAYStL3FmscvNj7WCCoTNJ00ujs2TMiWBNUR52FBBY2o7K2zORiFAdyVhUHIUCku3ijdW4wO3TdGNQC5o1AojB8WWFT6Xwj9W3AJq0y1MHIpid7kGhUVQT3MVg7ARIMgnKsJOAQE6eR18trDGfnxOSoVUGUpjoXJW1aYvAX3eQndLXhcAsQoQXG7P3T0kut39VeS+cP8sdverF861egkBCCm2VNg8vX+TSlKUa7vwjt5hgHCN+9+2slx4+zucf+NPqC73qBzpTDylkuIatj3Jzl/6HfzhugJA2ICFBDEqKWKe/PI4b33vz5m/9DollQ0ceOF/oqrzEIbKqr7xLi+zLtEsjH1CAMFFfi5EMC2bRCavIqg9koK4pqRDDTsKeoXTwy/SN1sECGuAkiaMgu0GO4nY0fBi5P34VLVyBttJ45E6a8dH3kiq5EaPU4KHjELHppMmL5Y3UywvS2j4qar7DJ/Zvoufvv9HpEJd6oQ6M3ORlDSCmepSRxObpYjjNEkHlNeWC00U+haO2EQL4lCPJQDHxPLqirHxiuc7L5+LR50SXEuSOwu81wGCx4Cxiayqe14HENTQyj3xFGNNfYbNwzsbeWhrmExaYzZtYgjA3VzNH379CLFMiPJyeGxrCVPLDq0NldSGdVqawpwbjJJ2DMYms5w+PcTOngjzy0lmFk0e3VKpwnskcMxj5xmby3Hs8hIZJ4hGgAp/ht07q6gJB9jbVc2JK8uc7J+ifyKO5QRV94AkKV5LpCjCyaeLDMInDhBkoXRXQrHeCoNwOwGCgFSfFqK2ppnp+UGyVp6QE8D2iNPDweM4pDWheYSXlEXdR21pE+l0GtPOUBupZnRxBMvI4zHF9ipAI67ySRrKtpKwYiwnJ9H0nLrmFTC2XW1V8XErXQwbAUJVZS1bK/fTUbuF733wIlsbtzIdncJKJWiv38K54Q/IeqfJWFme3vb3CIbDzNvjtHlbefv8j1jKLNPW1MPw0Cm62w5x/MrrVAaq6O14kGOXXqKiopOAU00kHKKpsY6fHX0VUxdgIMHR0jngCsQ/KkCQBBqfFVBBaqbjJeV4mZqLkozHaKyOUFNZsRJFXMyPLco8VSKhsoq6AvXCNl74axcIrACogtNh/UGwGCu/giPcALrC7GHVE+c+TzGkz3EsZXP8/uEiQJDgtMKmvWKmNFTmizg/ZN8S/ZkCLcJ6qN4Ed2v32m7EdF4TJs+9IkQvpwZQRSZB8QLy+m52hjyUvL4AhlxdV9ED8hEAwtt91xsxrGUQYEuTMAguglntGbi9JwYBCOfe/BZnX/+v1FZ4VVZ/Np3F1INsffxv03XoVzAMv0KEIlZZ+5APyMXhEi2cZ2F8gLe+/R9Izl1h6yMvsOvpv4/HX4m+Cgs/9IcvAoTRBWEQ8j93BsFVzoiq3FXSKpGeOmysgiCXvhb06TIIZ0Zeom/uLzECG1Giu/kISlXOCKFCVRWoe9GofgZZ9NXi6oIqyY2XG0jQY84jiN0gp2v4LUlBA6+vRblLoslJMlYlPpVBn3YzEUSnrGnkhEIXBGznyBtZPE4ppuPmKciLG3pOgQ2xTMq8VX2nnlYnC90SS6rh6g9WeiVQOQi/+tS/pyLUcQ8yCBk8hsb4VI6vv7QRIBQFUcX4aoeGSi8P7W/kg5NjdO1o4bW3hqivyHDw4HZee32QVEKnIuLw0N4avv/eOGEDPvfoVsZmYqRSOS6NSGdGiQICD/SUqEjcaDLP336uhbkFYQ48NIQ95LxB/vjFyzimSPCgzJ9ly+YaWmvKqPTpnBychUCEs30T5PIiAJNwtMIxa+WOcTUIood5en+5GjHE4gIEb+96cL1nW8sguADBS0fmX6LfJgZBsx3KfU0c3PU4h0++TtKJ8/iWL2P7c5j5PGFfKSeuvMNcfFDdRdhedm9+iIX5BRW5vK1lD+/3/VQlAGqmH1uXDSBLiAoe3/XLzGfmWViYVY6lvJ5iPDZOPh9fB8RuJ0AIBsO0BrtorGjn9b4f83DvIQLeekqCFWRV06DJTGKYk4NHeGz7ZxicOM5YfJRH2r7McPQss8tSyFaJnVmit/NJjo2/QpkRYk/Hc5zqe5Xmpi62tuxnenSa9rZWTvYfYzYzwVxsTIWouUKzmwMItlFPqvclTkc7VxgER8CYcIuaRwXZZbJiycwRDgZcgOBy6uhiB15z4ShSX62Bq//R3UTXd/W46+P6ZUbZzdfvMm467LrEUFmx1jvj5CA3tZjhB0cuYfqqwPAWcvXdJFwhLgQGlIcMYklTgQKRJ9eU+0gm8yRNAZ2GCkirKTFYzDqkbB9lxFWHii2ie0cOZZCyPWT1gGK0JAHY0GwiIQGkqFpnNdYpAgdZ49cdkNczCMpiv5ZBuLMAYd2MwT0JmGlOvPp1Lr/9F1SXBTBNocLzeEtreOjL/4xIx4NKtONOF1ZRmUJMBUGJvPFq87Nt+g5/n7df+r8pa2ji6a/+L1Q27kC7YaKg21kuDMInBxBcP4dc/PLwODm3NW7N73izAEF+fzWPkoVdTY9lk5b3R0CAMBICRArWTVsKoeR1hNL34HFMMoaXklye5YCFP+9X+gadtEv8234qS2roqd/D6NQ4hp4ia6bZ1bWPi6PDZJwEQbLMZGI8vPl5BidPkrSksMZPVSRMSC9jbnkQU/eRyMdJZefcE5iRc288pSmRn1v+fB8DhMKlL5+FjMEMw+HQjkYWZlIMzy3T01NOfSRMPgPnBkeYSXrIan4qSvI8s6Oa7x+eZld7IwEjzZmhaXZtaSKLl1On5xRrs3+rl1giS8b08fxDpUyMLZB2wrSWOOjl1fzhS4MELKipttnW3cnFgTEqSv1s6Wrku29cpL0mQFtTFRcHZ5mKSniW+LjXL7v3O0CQWfrTu3+VhtJOpmODjCz201u5l/7JYywnUnS2bOHy3DHGo9N4xR6ayrFn88MszM+znJtnW9Mh3u/7MUZAA1MnY6cJeyJsb91PR/lWLo4fVZkEdRWdxJniyMAr5GwB0WsZhNs3YpD1JWhXsXfTQY4MvcWDXQeoCLQzszjOxamj1AcbqW5p4fjFt3ii9wXmo9NMpIbY1/gQZ6ZOMB2/opJcQ7rOltZf4vj4jynzBDjQ8VXiqWGW88vK1rm5fhtm1oaAw8mh95hauoKmy0HD1SCIRuBGI4ZrAQRby7pzZXXiXnNIVYLCYulckVUqqhHVQlgYb6xu/8X5/hpeoBiXswEOrLEtqL9RXuSrcOva+D15xWsBBJVu6+hqI2+uKyUS1KiKGJwfmKGltpqh2Tn2bWvmwuAcE0tig/bhtfI8vK2egYk5lvMaz++uU9nbwvqKLkE2wp+dHGUiaVAd8FLiswnqWcqCOpu6mjl3eYJ0HrKOlCHqLCZd8fvqvXwXAwR3Xru2QlV+2ARHv/f/Mnr0h1SUhchaJqaZpqr7cR7+8r9Gj4QL0SFuL8G1H4UoYAeW5wZ5/Zv/O5ncFHue+Lt07/wSejDkFkAVaH0ldVIdAKsPpUHAYTSaY2hRkJp7zv75PdxMCPeE7wZ2uK+2kUFwGxuvxyAoykx1aIgzQpBkBkuXApYMph0maGfJ+BwMU/IT5HUEwQoy95KT8Jy8l7wnRyAXUP8U97RjLKvK4LBWSVdDBx0NOymJ1LK0OI/ppNAcP6GSKnSPyXJigmGJDG7YTGlpqbIAZTIZUsklwt4QNdX1zMZn6Z86zuDUWWzFPBQLSVyGw53TwYJiEP4dlaF7UYPw4QyCKgMTOtHS8Do5OtorKC0v4+zFGXQjQ02Fzq6eJmZn4lyejLKQMJBG1Z7GEja1VHNlao6aqnIGLo2RNr00NpQQKo9wrm+MZNrDQztKqGsIsxCzeKCrlImYhF/5qAtmiOcN/vjFEbwBeHx/G5cuTTE/H6entZQtm1r4q1f70Z003Z2V1DdX89a7l7Hs4C8cQPBZHvZ1P046mSWVTzOXHGJf63OUVZer3Agnl+fUlePMZebY1NnEaP8Y7c1bmVkaJ5mNsa35AMf6v8fmjkeYjA4zszxJXWkNZf4ygnoDJX4vvlCJirz+4NxrJI2YEqupYix12nFzED5uF4MvIAV2okly5+7lJTUE89U01TcRzc5TGiklkCmnprSO8cU+KkJlZLQMx8+9zSO7nqOktJJUfoEybz0/u/QToolhKkNNVIRrMZ0Mg7NnKPFW8cS+L3Dp0kkWl2epqG0g5+SZmu6nq3kredthYOKcotKVZVCXGmMDzTI5YF/i1+pnkWjX4sxcHfTkK6/BIBQBwsaEgqun7GsPnu4zrn1+16Zf5Auuv6IXn2mdOkRAyppTuDvlKjYBF9dtYRDS/OBIn+piELG9Yrc1SSV2qPRLzHk9NSGTgcEJ9NJa+sZmeXxfO3Y8RsqyGZjVSKbTHNpSy+XpNEvJFA9uqqHvyiR508RvWGzbtZnD5yaZiBo8vaOaqkoR+jt0lPlI2xYzcVlHHUxDZ2zR5FSfNJCuBfsSlFTQIOzbpJJv5XAmYw/1vzvJIBQHGGoTVG+yTSo2zVvf+vcsjxwhXBIml3MtKr2P/R22PPJb6gKTWbZQOjdiM2XLnRo8yZt//u/wGlFat+ymtvMgpe07iJS3oevBQgiSvMQGimgDQBD6X171Tj5cBuHGAKFYySxRv47YBkXXoEsng1iqGijPL7Psk274wsjBcaGWEsXo4DdtUj6dUA5yhpxghJGQeGWfskZFfEGW5uepr2zHTDlsamvj1JX3cDw+yqsqGRq7rOjGWHQan1ZCdXmL6tdIZ5YYmbpIY1Mbc4sLLGTmVSb9tYDe/Q4QlC5DoK7tVarhykovAV+Oxvoygr6I0o70Xx6jujZMdV0FiYTJ7FSU+roqRicmae+sJhwpKKwtHY8APMNhZj7JhctztNdVoPv9zEaXeWhHMz9+9wK19TXsbA+SMz28fmJBfaYelZQHtXURdnRXE48ucuzisitPFmGUir0WieLaU4e76N7vDEJEK+Pp3b+GnXMoL2lgKT1Kua+MmeUpLBPKpQLZWuLC5HuEdB915d2qm2Ri8SKJzDLbG57g7MgP6e44xPmhd0mZOaoDDTTV1hP0VVES8DETX8Tn95JOLDG6MEU6G8Wy0ziG3HOu/EzWnY9lcwy4NLMC3A6UBMrZVLeF6flpwuVhZqMzVIbqKQ1VspCYocQTwfRk6J8+RzBYgZmzMfPLhALVpOy46v1oru5RY8KJhT7SVgavFiDsi2BnbTa1d7EcTzMyP4itxSkxqqitbWJwom8VIIg+yv54AMEpMgh3cB0uyLrWk2mS67AynFDHTrXJrgcIbr+J3GulhsX+zhK2NpXh9RvMzCyS8YQYn1qgrDSsStaefLCNN94ZoqK6lD0tYaZiJkMjE+zvbWV8Pk55aYhUOkXe8HL0wgxL2SDP9Epra5pcymZTfRlxM8PoYlqNsDI5nYGJFHHTU4jXL+5kDrYAhHKbp/ZvUi45pYAoAoS3Li1uhFtr9sCirt4tDOlpdIOS3C6GW98si+IQhbmE+rYTDJ9/nxPf+09o2TGCZZXkUnKaDrDpiV9n88O/pprlRC0s/79R9ZB4bc4dfpHD3/5DPNYSTV0N7HjoQbS6HRieDsqqutC8UqojkaHr9QxFBmEkmmV40dUgKMr/Dj5WAYJkITicVRoEaXPcgKEVc6BhShe9LUXKAcXYe7xZGpufoUOLcnTiA5ZJ4ZMyJ0cn55UQKZOAFcJGVLV51aeAVaoU2PKrWxLLkwzQdwAAIABJREFUrBmU+Bs4tPtJfHaEoBOhobyO8dgkWc1hdnmE4xdfQffq7Ok6SF1ZK147Qk1pPZl0moV8DNOJcvrSm8ykJxSDZEhvwYaH2kCFQRhGaRBcBuE6l+od/FzWvrRixYodFnpGlTVdU4Mgbhq1Ccv1LDNCk+pSR+UZLC3nmJyKYckJUjcJajm6mmsYm4mznPNhWz7lGtGdjBv+pRRuMpcUVkIWgJCaRebFNuvRqSr1MBuTVEadzpogU9NRMlrYDQ0Tlb78nB6T2rIKotNL5DzyebhUrnrI234VGi8CBFek+PyjLXdGg1AQnykNQsh3WzUIHj1HZ/UOGkpaqavo4viFt3i850vkvUnyVp6gr4w3z/6Q0eVTOHk/zz32m8SXUwxNHWU5G2N/yxdZci4wNb/ITPQsba07aKzsIb4QZXkuzqN7P8N7Z97EtNK0N3TgrwyTZp7jZ95TDITlcUG7V+7ljxOUVAAIti0iU1eYputuybjY/mReIJuHWETliB3Ih5FK6JzEfVteDMt1E0kHgkR1e0WwanlVc6YtzKJct04W2zKRWGqx9oqNwzRyygJq2B509RyuLqwYOuSOGK7PIFhic9z6EqeKGgQzgKMV9Ex3AUBYkTuqe91SVsUiQ+ByCHZBg9Dn2hx1OQiIbktTwvPe5gqqAjb+kIeBSwPUtnbjNVx75enBKC88vYVXXu8jls7x2M4mBmYzZHJ5dnbVcG5giv3tpUxNjDOb9rJghpQ+4dnNIeJ2nhJdp6yslLnZCRYs13KayTtMzCVJ5MRXWXAiFm5uAQg95RZPFxgE+azk8KgYhBsDhKLNUUSKtx8gFOkZJxdj4tJbnH33RXJz/epHN0obiM3N4slnqNn6IHs//w+oqO5RJxo1FbjRheJYHH/l65z68X8RawC27tC2qZb27fuprNuME2yjvHE7hq8c4yoGwY1YHlnIqhHD3cogXL4WQFDqRsEEQarCnbRXV+F10ixnTVravsI2Z5yfDb/NQCpMT2UdtrXIRG6JkOOnNmST06qYn36DrKee5oputUN4jCBT0ZMspubxe+so8VWo029QC7Otewdnh46QMfPKr500l5Q9TKJ/vVIiZfvZ1LmVxcUFFRojwDBtpomZi2QsGU9cvfG7AMFhYfgeHjHo2esABFcgWiyfcQVW7nhJRKUyr1TV6HjwqAUop0ZApiY6EQEHrpRVVWdqbkS3eJ5dNbz8jQAH92TjvrtyH3vwWfK1khvgKNZBAIhiXG1R0EuSn46t9CAF2nTlTxvB8WpQ0tMPlPP5R5rvDEAo2BxlY2sUgJD93dsmUpTI6gpPO23lXXR37+RY3095qPVXWM6Nkkolqats4fjgD7kyd16p8ze3H6Ai2MDk3CWWs4s82ftVTlz5LmOLizhaDK9ejkcP0lRdR1vVFjbV7WVg5jRW3qS2pJ7TQ+8yvjxCKh9XPR3C5sm2qqK0bgEgKAbBBr8/hM8bdqNnBP+Jz982SGbj5EjjM/2YelY1SQY1H01lnSSSWZbyQwITaKjaRGJ5ibg5p2yd8r1yj4pVUDY2n1GC3xd2WSfLh02GTHap4BIoXoVu0NCNNAhFgPDBfIey74nN8W5iENYChLzsLaItMITVdlNgFXu9mFUjhiJAkJwDOWD5AgE2t1SSmp+hq6Oa4SujxO0gFVUVtFZ5SS4t4ysN8+65JXw+g2e3lpC2vIxNzPBAbwOT0RQdNWEWllLM530MiZB+aoGHe6oZXs6wtTLE0HScg1urePvcIrFMjoTpkDRlTRXtgpvnUET/RYDw5N5uHF2E7R+JQfh5AgQ3lEJm4GMX3ubsG38OyVF85c3UNe+jrvsBpkfPMHbiR+pEWrf3WXYd/Cp6oFwBBAkhve5DAMLL/5mpi99FNyqYmc+SSYzR1lpNY0cTWkkHLdu+QGXzrquEixKwce8CBLd8RbdbeGLvlwllFugbeIt53aGz+++zzxngx4M/xal8ls90tXHi1F8xpmdoDnWSmh6nddOX8FsvMhnfxMHebbx36XUiRhubOiv44MJxquu2q41PNYGLaMlfQiaXLrgmTHRPUomVxBnh2oE0PD4XyWbzy6o1UKxfQ9FTDE+eV7ahazMI9y9AcPUmSpNdiDFZpfxcilL5WJQQSVHNclIR1kHecDU2kt4NARJucYxhScmV67VXYygZXxQAgoVf/Vm+VtgaUXSbYr2zxDUizyddDIISJOZXwLDbhOoyNoWRVqGZZPVzKgAE2+DpA3cDQLBoDHlvK0AIaH6e3fdrVHoqicYTvH3p+zyx5ytcGn6PikgjXbX7mUyc4fTYOywsj4ITYE/3E8wvzLCci7Kn6RCHL/8laV02tzyOuilz+B0fu9ufUb0jl2ffx7Aj7Ot6muHoRaYW+9FkXr9GgyCmq48VlFRgEJQGAZ3Gmna21z9CRbiSaCxKVVkVAb+P8YUxpuMj6hOeXhphIjGm+h/2dzzG7GyasdgH6kbfu+UpJqYHmY734eh+Njf04vdWoWt+cmaUqkgNlcFmIn4/qaSO5s1y+PIPmE6Mr8BMFUt8M1HLBQbBBQgaXksYhIJIsbi5FQ8WV2PXq7eFa5K/H50RLtwRRcmBssxH42lmltKURUJUlwbxa3IPWUwu5VcAgmgQ1C0mriGvxUM9VWxtKmEplSWbMRlZNjl6fliNEOpLgxwZmGI26eOxbZX0VHv56dl5FpcT7NnUoCrct7VEmFuIM5MwuDyxTCaf5rEtNUymbQ7U+Vm2fexrDXJ+OsmS5eHSaIqRqaRyQOhKD3LTAOFGSYouipWmty2NEaolSfFj1j2vYMhC0oQEd9hmlqWxY5x87RvkRORS007bgV+hsWs3utePmY5y/u2/ZqbvdbyhSnZ/9ncoad6rPPPK6ni9h2Ny5Lv/D/PDr1O383NUVm/mlT/5t9j5ONV1VTRWBCjf/hxbnvgtvF43rrP4+HCAcKMXvcHPdAt/vX7E4NocL8/9j6tHDAWzp+mU01zVy/bGHnXiHBh/DU/9r/OgfYLvDB4lXP+bPFWX5N1jX2eypJ2HGg5Qmgd/9QN4lr/O+VQ7u2rq+c6pP6Ou+lm+vOtZfvju75MItBGS0YxSXLvOi4hTTk11NSML/czHp9T8urKs0aUqddl45FQRYWvTVq5M9xGzZpiJjrgZCdcAeusZhOKI4RbevE/oW13hrQhEpY30wxmEImdyVTjOh7JirhrbDU5YtWetOrvX1NWtXKKrr1I8Lbh4raDsvuq1iik/xTnq1S6j1bdRKsCFovby9IEKPv9wC6ru+UbCoNv4OajW+sJGaukmjWG9MGL45m1JUpRRW1WojsZQJ821ncwlFmip3cJyYop4YpmGmlYSoqtZ6scyTTy2n+7mXpZiS8Szy7Q2dNE/dAFbT5J2YszGJlWPUHW4lfqqegZmzwinQ8Auo7W9i/7pPpbik+s+lVsJSvIEgutm5aKiCucjPLXzC/TNnqe3bhtji5fZ3fFZLs8eRTMMPKaHnw29rLDhgc7HqA/uIptf5MTQq2xr3c/c8jjn5k6pS3Bz41aq9Cbaqndwcfx11csQj3moLQ0xHhuhLtzKyYk3mVweXPnUlTTwpgHC9/hgvl1BaAEItsqLWO1SUOxYcdytuhVcm6Pbr+DmErhaGpeNk4eqmi5GC63EKRdjlNcIwot9DWvYTff51uQMFJ5fxqTRRJL5JVSSbGutl4qwzuziGoBgCECQK1YYVYvehgBbWkp5+9wUreUe9ECED4aitNaV01Ud4NilOWKmtLWmebS3gZHxKAnbw8HuMHu21fPmkTEyjocdzeX86NQkc/Ecj2+pZCmeJpnX8Tp5ntpdz/uXZlnKG+ogt5yGqSUBWavpDYpZLIwYrmYQdBkxfASA0FSoe/7YAMF9g1fCxhyb5MQFjr/yp6QXhghVt9H78Bepbd8DUrAkS6Em0cknOPv6N8in4nQd+gpte19A1wNu1PINAMLpN/+E5ZkRth78GnZe42/+v98jExvH49Voqa+m7ZGvsfXJ38LjEZX2jQDCJ7j6XeP3cgGCXLmrLobLkoMQXLX4uN9mKt+xbZcRNOqo9tXw0NZHicYuMUovh0oGefXSe+hlX+Oh5lneOfwdzIZneKh9E4Nn36V10xN4sz+mP9HGIx09/OT8jyir7GVbQylvHHmRQG07dcEm6itbmZmeJq+lCVNJa3sHZ0dPMDp/ReUfdNS2UBvpQrc0ookplUR3sOcpTgy9z2x2jP7RC9jk3BPThse9DRDk8C0hX9cZMdzGjfLOPNX9DxBE1yBjtObyDprqm7nQf1Hl7TskyGVNujq3EostYjhhqitqVYqixFYLOBYlv9cIYlp50FPEzBgDExcpLymlqaaTsZEhls0YtRUNNFe3ML0wzeTiOLYjsUBr1iEVi/PxkhQ3AgTZniKOn8/t+S2GY8N0lrVxdPANdnc8xtG+V9A9AdrrN3N48HsEtEp2tu9jbmKG5pbNahSypX43ht/mwuQZpmYmsAJJyp06dnc9yeELL3Ng15P4aaI2GGEyNUqFt5bDw68xFRu6LQDB0bNKR2PamrKZxtMZcjISU3qZAjQXYFA0gRTGT67BYP1mISMWNzCvcGwtAO+VkKQ1sq61dPzq1uomYio5oq4pE/hCNIuTz7CpOUJThZ/5pdURg5uDULCS23naK3S2tZfh0XQWcn6ODUXx5JI83FuNFvDTP55gfHKZoM/L7u4qRsenqG5tQo/P8dlHuvnmy6eIW36e3NHCW/3zZE2dXc1+zEwe2xcg4GQ41FPDyeFlYpLnbFosxLP0TyexNLfltXhouC5AePPi9USKBcuJkMWaSU9ThJpwMWr5o2+Wyp9fUNQKXZpPz3Lmx3/KTP9JgqWVbHnsq9T0Pq7eNFX3q4m+3SYfn+HkK/+F+NgHVHQfZNczv403UL2SMPihC6Rjk01MqzwEr7+SK2de4diP/hBPNkc2naCspoUHvviPqOt9En2lr7uINFdHDIPRXMHm+NF/59u5eG8ECGdHXuby/LUAgoAILx6jnM2du2moaCRi25y78FPmfM08ubmO2cV5Bhe9dJVa9F05zpKvikPdB6koNclkAiwtvEfG3M4jPTsYjo9h6nn6B15hat4k61nG74TpbNpFLisX3hiVRgVd3V28c+Z10rq0+1gKGJT6Otm5ZR8nz75LJBLiM/s+x6tHfshMehzLk3X74pWFbv3DdTE4zIsG4UnpYriHbI4rXQwi/tOYmM5fIyjpdl4Zd+K51gCEByr4/KOtLC0LU/TJCUnd0HE3EEyEc40hjc7876KP3R4GwVTdKJIy6sHr9ZLJJdS4B10CevzouvReZHEEBBSaAJWYWdPVTLqokhIBKoXabBnNebQAWfVcrjja7/WTycexpNZ7nUfdjTG7bQBBg5Dp49mdv83luStsqe3i2PCb7OjezAeXD6NpIVqa2jjZ/xZtlbtpqW7j/KV36ejay0R0gM6qHqZnRymvLyc6t8BkapAttbvY3HCIMyNv0FzTjpn10RisYSoxSnmoksPjbzAdG7slgCBNC15TenkyijGQwK94Jkc6Z6vuC5VerYsAsyDELNgQ1WauDrNukZMbkFdk2lytgHxWbsiSu2Gqryi4R1xh5yqAKKYkyt6lyuRc2SfJvKWyS2TJaqwupTIknKjJ9FKOHxy5rDQICiCo3c8gqNt01HnpqK8im0ngDUS4OLaobM5OMs7kfIyebd1MT87QXF+OLgFWM4s0tjVy6WI/f/uLuxgfS5F2dFoiOj84PEBjcysnRhZIJXOYeAg4KV54tJPXTk4TTWsYomFSfjQvPglYWvOJWDmxOVo8uberENQnGgRXp6DdHEBQ+Vdsab49AEGhvcw8fUe/x+DR7+N4Stj8wOfp3POs6ktQMb2FJEH54Cwzy+X3/pqxo/8df00n+5//J0QqZcNY7zy4xi6jyjcs3cFcnuLUT/+ExPQ5otNR8qkYLTufYO9z/5BIVec1bI5FgJBhsJCkeGNj5c93ob5ZgKA2Vz2rYltFjCBUnAQgyYkoL4lbeZ+6KfJ+jYAkoHpyJDx5QtmSFc+wacTobf4cWxub+P773xMDKrYvgW2V4RgJbMdHaaDK9UV6Ddpq2oktRZlcHMXSZOMX4i2HX6+isqyKxdg8jU0dlBkRLo1eIG0n1U0mp67izbb23Vtrc/yVJ/7tvQUQlBRA3D5ZPB6NyfsaIPh46oFyXni0lcXl3B0dMTSEdLrzv4c29ue3ZcSg+M5iuYI6bMpMVD5XAa8+V3OjS6nShkRXtXMUo6ndkZAmVlSZL4j4VGk8ZJF2NyzRgRS7GOwNdtLbChCAkO3ll/Z+jf6FfjZX7uD9gaOUBvJ49EqqqhoZnDpK3E7RWNZGXaiBuYV5yirKODt4lJ1d+xmelhHiLO11nYwuDLO9aR+b6g9wZuRVEukM4ZIattdsYyo1wfz8LIPLZ8jmpceieF796CMG05ERgx9hEFzrp5LgFsS4pjtmKsz3i628q9xAQU5zU0tzIVzpul+7rvpRfWUmb7KczlFWElLaLMlAFG2d0Pk/PHpZ5SCIi0EBBEfDbxi0NJWysBAjmsxS7sQprawm6wkxOxtTTKvHk6ckrGPmc/h9JUrUmbcsolnY0lrC0PAscSJ0VBhMpT3YOYn8zuGxRWskkcw52mv8jC/mSVkCCrLqPZP1fz2Gd7AVQLB5fG+nihBYFSnqaD8rMAjXmzYqDcLtAAhSeiI3i5lntv8djvz4j/E6KRq2P0vvw1/DF6pyqyZUl3cBJEjyluMw0/8eZ3/wH9D8YXY/90+padtfeNOv92lKk5eFqVnkF6eYOvsOdnaRC2ePU1NZyrZHv0xZ2wEc6WXfYNssahCGFzIMFQBC0a+/cbIrP8HN/rcP+2k3GBWvivx0X6PQc14YMXwYg+AOciQ10fV5SIinlMTYug+Pk8ZxfGqeZxNW77/M50yC+MhgyUKmWWT1PPWBzVQF/QwsXFLhLYI+ZQeQeFN1QyqBqVxQAXc2pwt6zbvIXKg+lSsu0dymsklpWom6yfMI7Sq2Sh1dPNHXsMyuAIRhja888QdUhKXN8eoo1LULz1oSceP7ef2rZGNG4Pp/v95nVjx1FL/G7Vj7RQMIYnNsWwEIN/ve38o9o663DRqE2w0QlLtGki5XAswkxleuMle4qa4SPVnwgArr6W5eKzkkK3exm/PidhIIzpBeAbG5ump3d2youLSCHmf1Sr4lgOAPrtpTldsgRIVdz66uPfRNn+fJXS8wZ8cYGHiPikAHjY2tvHr0z1gmR0DLUxdpYkf70wyMfcDYQh+7e59gePYi07FhdNtH1khR5WlmR8dDHO/7IY11LXTUH6Ar3E00O8fC8hQnx94mnlkqaGdc/ctH1SAIg+BRUdWuBsE9vBfbCtereNz7cMPsubDvr18fXOHvukcBaKxfzddfpUUAUuQP5BpxQYsrtlfPKGFXWMwsJtcBBAUClTZCxMFyCYmjSBhUsZQLl+RgWGmyIr+XXVzE245fASEPbiR9UgsSIIfXlL6cACFSpLUgWHkcj1+9N9LZIH/wOxlMvIpx8ZFT157oxcSSuZZBEIDQU2HxxN6uFYAg17m6Il+/Xg7Cmu7s2wMQ3ApfM73EqTe+wcyFHygmYO/n/ykltVtcak42jg2ma8sxiU5d5sRL/xee7BTth36T9r1fxiNRcDd8uF0BsuHnzTyamSY+P4kvVEqorBpNPN/qA92QpCiUFDZD85kVm6NbLnsnH+6yqDZ+Bz58xHAnf8bb89prNQjCIJRFXIBw9z8KS4c6af4iMAhenpQuhkdbWUjIiOGT+4TcoCl3IRWR4u0GCJ/cb/Lhr3QrAKFY1qS2U8ehqaqDZ7b9KsvpJeaXZogEwgzPX2EkOsLuzj3ML87SP30GS5INLZuaUCM7Nj1K39AZ4vFherofZ2Sqj9nkeWwnSMgIU+ppYdeWBxiZPKdGCR6tjF2dB5idmWIifpFYbm7FaFuk7m/GxWDr9aS2fo8P5trJS+aNYhDufA7CzV4T4k6aXkyvAQjFrJe7bRFbFSk+sadrxeboslufOEDIq9YzSwEEaVp8hZL6nTzwxX+OL1SvQl9cK8j6VUYYhMT8KEe++wfomWHq93yFnoN/C68kzt3w4UoiXTGqKFqLHZpuEIQ67aiaz/VPJBTRpwDhhm/uz+0LPgUIP7e39jY98aoG4VOAcJve0ms8ze0CCKLe9+oeKkurWI4nwDTYvXkvU3MT5Ayo9LcTCvm5Mi09E9PUlm2murKGoYlzNDf1UBUqIZMMkM4myBJFc0J01LcT9PkZGBoglU+i+cR47mFzyzYW5udYSI+xmJthPjarfrNPAYJ6F35+F8vHeuZbAQiurVqRJzI/67lFDYLYhlRVZS7J5cPfYfTk3xCu3caDL/wzvJFaRVZ/GEBILozx/nd+Hz0zRPvBv0X73l+5SYCw/l1zA25XiaKC2/yqqLh1ACGaUwhjbbPix/osbsc3KWuZqgJTSYrXFinejhe6s8+xESCUl3SvnETu7E92M69esDmS+QXQIKxhEJKSFPfJiRTVIK1gc5Tkz08ZBIe8pvNHfe30B1tYyyC4xyOZT5tqDOJxwuzo2IuZ1/EENYYGz2LoKMfC4twU9bXt9I/0E88Po1kVVAeb6OmWojsJqbOkyZ2B4fPo/hyTC2P4fGG2d+2hzFOlrK/ysPUsE7F++scl68StQlY0903aHFO9Lyubo6nrGFL3LCOGu26D/bD1wGI6muKHR/vdoCTjXmEQCkV5BX2M9tOL0eve0SsAQXIQbhkgmIpB0MwcU+df5eLb/51ApIa9z/8TwhJ7vHK438ggWCTmhzny3X9HwJ6l/eBv0LTjeQzPTYwYNvx2KvKzwCa4qLaA6tbUKquLew2DcGUhW2hBvGG4883sHrf2NWsAwrnRD3Mx3NpL3A3fvREglCoNwie3+dzaeyDiSx+ansbr0e9zkeIqQJiXEcMn+BnJ1aAa7QqR1J8ChBsAhIIVUMa4oh0KeUrxaH6yVoJsfkmp/AO+KjwSpkWSpJVQSZ5u5bG4ysStIeNNWQctpStyPBqmpCgqzZMUvrmJnmpZlXmT9DMVDs0fCyDIiEGXEYMABFdody88VkcM9w5AeFxGDIWyJle8onF9gFBYjxVS1yx6m0tu2ua4knWgUg/c2bmrMlOeExZHT3Lq1T/GMbPs+dzvUNH2oKo2FoWwO2JYpWJEaBifH+D4d/+ACl+Wpgd+g5reZzAM8XPe4LFxT9n478WX2ThikLImzWFQNAgLcmG6FpU7+yiwH3LjORrnxl6iX+UgyA15t1FXt/ZOrdocdb7y+O/fsxoEsTlOzpj3rc1R8vclavm5h1uIfsIaBBVUrQIfdZUqqQBC7vfQxr9xW1wMt3YF357vvpURg9cf3KAJEWZLWFoRixcExo6Jbki6oQfHcvCIDtn0gpFWm71ulyhFvCWiNd0NGXKf1MLQNSwV5KmrNliV8qm7eQQqI0A+F01XUcnqoUSAmhtWZOWv2+YoUctFBkHqAxRAuAu6GG72U5X23+klV4Ng+SvRlM1x/b52s8/18/46sTn2lJsoDYKKGCiKGPWbBwiGbtHbVEJtpFj0cH0kV1Rzr4ID96QuBwx5+dTiKGde+89Ep/roPfQrtO9+Ad0XQRcrkCpOWqPkdRyWps9z6qV/Q03EoH7/b1C16Sn0Fdrm9r+FQoOJJmJoLsPgoowY3IT7O/souBjEWojG2ZEX6Z//Kzz3LUCA6IjGlx+7dwGCa3M0+dOXBzHV53a/PFwNggCEZx6o4Jcebv7EAYLKQRDq2vGoTU+SFLtzv/spQCiMGDYGJd0NV546Kt4sQNj6MidnhUEoAAQRKRao77vhd7nezyBAbHopww+PXsLyVxQAghww776DnJVL0lNu88Segs1RHdJdC+5NMwgfFSC47V1r4l+V39f1kMqNbecWufz2/2DozE8obdzNoef/Mb5wVYHyX4+0bMdmYfwDTn//31NfFqTxwb9HeecjKm755/X4FCD8vN7Zm3veos3x3gUIwoYVNQifAoSb+9Q/2lepFUYxCGIb+xQgyOhgrQbh/gEIrotBNAifAoSPdo/czFdfDRCKDMKNAIKihVzvqnQx9DZFbppBKAYDSCCPqnsSh4IbC0IeQ1XVjh55mf5j32YpE+G53/hfidR2IdFYG8WAtm0xP3KM0z/8DzRWl9N06B8QaTkgz3LjNMWbeYeu8TXrAIKkUwiDsKHx8WM+9S19m9A/usxcRaQ4/DcMLHwb71VRy7f0EnfFN68HCH9AeUnXvSVSVNW3okHQmJqx7usRwwqD8AmLFIup+sIg2Jg0hXW6crexzfEuuBNuZcRw3wAEQ8NQSYqS6nZvsHD3LIMgIlTF4rvvs/bahYXrK7+KAEG3VPvUzY4YioULAgfy+TjpdAxdIks9HvCFVCd2/zsvMXb6bxifz/GZr/4rmrYeBI90LKynYRzLZHLgHS6+9p9oqq2i8aHfIdy45xMBCINzGa4sSEqVaBLuAg2CCIAK7Ydnh1/8BQEIMmLoXAmjugvW7Rv8CCJSdBkEr/cXByAsJCTI5pP7dNYDhLwaMWzK/6vbV/f8yf0qH/pKnwKEdlY0CPcSQABm7rERw+MyYhCdXaEhVo0YXrtwHRdDMTug0ObY21JK3c1qEFRVI2RTkwyc+TELoxdcBaw3SLi8llDAx8j54+ixAaJJVAHTgc/+XfRApeoqX7vOmHaOyYuvM/jGH1HdWE/zA3+HcM1mNCOAo4dUBrcEe4hP51qpfB/nPi8yCINzaQYVg1BQ8t7hGZKcrEX8U9Qg3JcMgqKaLFW6sjBa0CCEu+8RF0MxKEkSJN0Rw/ScMAhX7isNgvQLCDMoSZlPPVDB5x5pJrosbY6fnNPE1SBIOp1oEEwaQwbd5u99ChDuEw1CcuvLfDBbBAjFEcOdPqTd3G4iIsWJxTSvHO8kR57XAAAgAElEQVTH9ldg6MJyuf1Cd/ZRvD9lP5N7x8HMp9hcYfH47m4sza2NV+JfySR67cJ1ypoKbVjqGzSLrS0l1EVk4XNTlq73sFSllizwpznz1tcJpCZw8mlVWpHK2ixGo6r2MiL51cEICa2ah7/8zylt3oGv0JJVfH7LyjNx6keMvf1HVDZUkPB0oPsrCVbU0rhpHyVVrSD50xJbeY3Y3o/zgawCBOliuFsAgoxp7n+AoFJGxUaFK1L80uN/QLnYHO+Jx5okRSRJkfsWIMgJwLB8PPlAOZ97rIVo7JNNUnTrnosAoaBByH8KEIo5CPf6iEEBhLl2RHngahCk6fLudAJsXJpkpZ5YTPHqMRcg6FL3fFcILJVox5UOFOLK7VyannKLJ3Z3q7ImuaeKNdo3BxDEZlKwOd4sQDAdU4VjmLEJzrz+X0mNncIX9FJaVYmheenv68c2TQJBjZrSABlKaHzgazTv/gJe3bfunJ63clw58iILp79Bc0sJ5y9H0bUQmjdAadNOtj/6FbyV3fik/fEXASAU8t7FxXA/MggbAcIXH/t9KhSDcC8ghFUGAWEQDIeZOZuvv3z/MQguQPDy5IEig2B9ogyCK4MWJ4WBrVlKgyBlTfqnNkcVlHQ/AISTs21uDoLSIAhUuEcAgqYxEU3w6pGL2MKKe0NuWJSo8AqhUXdmNXOt8q4a0K0II5ugtwIe3b1JrbEeaX4sNCrfJEAQkaLJ1mbRINwkgyCpiY6OYeaZGz7K4KmfETDniHgykE+xMDdLKpPB0gOUlIRxAtXUb/8sbXueQzdC6+wguVyCU6//GfnJH9HTW8/JY4PkUhAIBElbJWw6+Mt0HPwSXkNarG7PY+2IQYKSZMTgahDu5C71i8cgLAiD8Ni/oSLsXrx3/8OF5pojvuc0HoP7HiA8daCCZx9pZlGNGD65T2g9QDBpDhtum+OnAOGeBwi2UU+i92VOzLSuS1K8ZwACDomsybsf9DMdt3D8FYUiJDdy+k49VIpwoWhPasrl/0Y+wcO9jWxqqVUMgjQ/SqChZCJor56/fpKiDIJdF4PJtpZSasOFwIcb/JI20hZo4Ij3285gpZb+//a+7DmO407zyzr6RqNx8wJPkRIpybqsgzp9jS0rYse7ETMbM475BzZin8d7xETshsMRu/uwD/swDm/43id7ZjdMyZKvkSWPNB7b8kiyZJ4iSAKkSAKNBhroq7qOzI1fZlV3owEQV6NxMEsiCXRXZVZ9lVX55e/4fijP3oRT/BjO/C04tTm4nosks2CnckiOHEX//gcRI8nlsK53BKJfzuNfXv5fiNXew/6DfRg7n0e+5CGVScMP4jj88Es4/sy/hRFPd2wOITEPKZSUr2FsmoIUtx9B+OPEmV1vQSCC8CUiCKmdZUGgssBG6GKYpBiEXaaDQJK9ZEGwAhsRQSjMe10lcUrsp+li0ARh96Q5thIEVawpsiDsjBgEcJIdZ5icc/HB5Vu4NlUG4hnY8YTSizKoZPVSRGGpT5eK61E6Bctvyk4Q7aNErqPPqNp4Bbw2j2zcxPFDIzg52o8YCWZZcdg8tNQQQfj5HYMUaTVE5SwN2AjwwCgpKVLO8XIXt/B0Wy+LLkWlO3KAc1mGWQQ0CVNmI1W+a7bbFN5SYNUmr+C3/+9/Is0mkMswzJUCzFbqcFkS6ZH78eDzf46B0UcU4+kQRSCpTLrua/kKxvM1eIjJKuRbSP4UuKHPlV7OH06cwZWZv4OVIG/91rHSTrNh6QMDlZcGCuMmvvQcxSAcWSnspdOnsc72aNTTGI+DwYNlcUzlPXznzNVdFaRIaYXc4Ei4Nl54ug8vPrUf+Yrf3WEoZZZprKggxdGUieP+X2sLwi4JUixTDMLkIbik1BgkIcx6OL52wLuOYvBCE77juLh5exKXJyuYnqcSzKYsu2xYCQSmDSZT+8NLk8JfKkAwmuCjyb31hSSicuORtLnUFzJAa2sKPIyOoQLUNJfBr4MFLhin3n2kLWDfYBaH9w1jsC8Lk+Zlafokld6QpFAs4IoEIayFTuWeT5EFIUMro3aWE8ooL/lKbf0uklwO5zpVYnFZkwv5agip2Y8v4ne/+B5i/iRyGaqPncB8XSDWM4D7Hv4U+g8+CFi9qgyyBGxpZrby26t5LEmLBozh+lQN1/NVetWHoZ3rnDc6dVgoLasJQqcA7XQ7IUEQVJvdg2VyTE3vQoLAFEFI1m08rwlCpwdRo727Oc1xIUFItRCETYO74w3LOUxNcqh4PiqOi6nCLApzZVRrdVQqARyP6ldQHI0FblgIjJjcvxF0L4tcRRaDpl2AlsMyokAS5dA+QMSEKmlxUkOkLKM6LEOgJxlHKm6jN5PAcC6LXLYHibgNS2YMBpJYLLXdmSBEoY4yNIRj32AauaSqJLg+DqcuLrIsrNRGVM+B+x6cSgE2HJjy4JiqEZ5IwE70gMOWsgv0XadcoAp4oDDngkynAd1Ao1lhouMjabUNthCED8Z/hKtkQdhlQklLWhAyR3dOmqO0kjUJQr7g4ds/2mUWhBaC8NxpsiDsw3SVNPi7l+Yo37tCTaECPkaTJo4H2oKwG7IYmi6GQ/CYCStIyuqQ65x4Vvt23dz9ZNErEh40ZaEr3/chfA8110fZ8TBTrqFYrqBSrcF1PQQBpRLTIKfxbcoaFooLCFgsLFtlUNAjudmIUADxmIlkzEZPTwa9PRlkMykkE3FYjMG2LdiMWqIEAjoPSxGPO8xr7Gdn7yyUpKpyKVeDQS8+cjksKFqknAdq7a2mfFVOueEoaPkusiC07r+QLjQ9J812QS8A6T6gtCZVcIQ3XDDEk1SPKgW72XdU1lmNqsg6sNCi0TzvhQ4RKlBCGxcmmKFSVEjFcDtsVO6Z7sKHEz+SLobdpqS4FEEgoSRput/2W5hGFLoYbJMjX/Dx7R/trloMFIMQWRCaBEEVU+/mRu8DSRBYgNGkgRPBXwM6SHGXBCmewb9MKoJg+ikIw+mqEFenx7G0cDfmotCiD7IeMHDBIAwaxzTTBKokAQ/geR58PyCvvKwwTHUsaKNsPVIcZpThYZpSgNA0LRk3p1wM0buS3BfK0tCYBxnFFYYqyfKMll+qr0gQ1PMeaZZJOqNwW/I9EE3ESxor1v2ClwUgpVQzXQqdiw+DosQF2TXIGhNe/rIybq3ndadzjM6bgRv0sguho0pm9F+XV0dLoUhczZD+p2YMwm4jCLQqJDJGWlvTUQxCimIQujv5LMI/NBdGRj56sCPjX3PfhS4G2xLYjRYEWrEHJkeiboMIwhef2od8JeiuBSF8N9FaitZFo+kAx/2vwLj+XRlULV9ToW93wSswqgdDL1hu4Mc3+vAznEIiFev0nLDh9rh85xjg3EX86g38h0c/xoBVW/xKpwnEADxm4+uXRvFR8iBicZL73vApdLQBuUSkdWbA8CQ/i78cuQVYJB+/cGoJzD2o3Pcyfk9ZDCSpL5KymiMPn7mWmaij57dZjakZKnx/NWIE6BNLWeTlOFV7kd2A3AuRe0LRioXUW9kP1KcyK4J0CYkI0EI+in6Qi3r1nZoaGfxorpREJCITy8furUwQNgsx3e66ECBCRLUYIAKcmziDscIPYaWWi7tYVxfb4CAVpBgRhD999mvo3xYuBmVBk48g+QulS4se0FbLRvgiEHFAuIgsCLstSBFCEYS4SwQhhy+ePqCCFLtoQaBALar+KtdLogcHcvM4Wv8bWBPfgS1cCEu9GeWKqnWipJdpYCKIcRheDK9eT+E1837E0sltMPYXngJx0hhn8ISH+LVxfOXhaQzYpUWLFRVixuCLNL4+lsNHiSMwk1QiedtdEszAQeCn8QQ/hy+PTEgFXLnUa1l7etYe1I+/jN9MHYIpGOpGEiZlxhGpixat2/Dath/aGzsj9tM/Tm/xsmxjF3C3HS0JAjelGercxMsYm9ndBCFPFoRnSSjp8Ja/7MjER6ybTH6UgROzaYVGPry22YdediIhsxjuJoIwVXK7eo9IZ4UmFnJJcWFjJF3GCfHfYd74BizDR8AErCCMS2q5RTTp+syGQVYGj+GnNzL4KR6GmU6s73XS9Kau/fgVjjUQIM4FymRmn7iO//zQLQxZ84ssNT4tFGklym184/IAzicfgJ0gV+Qyr/fVGFLXcjWrxYBRtL0H5tl4TJzHl/ddlyteGVu2FEHIHwS4CcdIIcYrKjo/CtqT/3Z1yK0FkV2xryYIO+w2ylWr9GXxu4og5FJEELaWy0ZGwvn5Mq5dvYaDBw8hl+tRsTGNMOCmiwHCQ8wSmJ4Jdl0MQmRBoDTHZ0/34QtP7sV0l10M5Lc1BIPJOWrcQX1+Ep80voVR99swDAe+SdYDRuFdCxbSdIcoxtsUAp6w8cqtfvyiehJxqfGy1dvCmZtcDJQzT8lxqYlr+E+PTGHQLC/kpFGYmLyuBP720iDOx08hRsHwC2KvVrq2TrOG9v7U2bhGHAmX41HjAv7iwHVYga/i28IIc9rHs0ZQP34Gv8kfBg8sTDsMGctD3FJ+9zDBTXWw5bnnK+G6c7/XBGGH3bu7nSCQj62ROrQF945MnJSi9Ku330Es1YPHHziO/cO9jTNR7yqyIJCLYfcTBHIxPHs6pwhCubsxCDJzKSDteIZ5w8HFix8BE6/gxUNv4MG+P8A0VG0IuiWt2U2KwhnS70154udKcbxfyMK34uF9bF8Ot1uIlvt9YQB0OHu1jNKI4La2v1xfqi362w4McFZDXx34/KEiYjEPVhhj0WicYhAo2l0wvJHvwc1aHF6YLtc8gTv3pfZb6hzlLNx2HavFYKEfQEbgI0DK9XC0p46HhkqhBSEy9agzaBKEI/ADCzdLHE61iHQqjb5sCrYRwOSku0E3WPsaNutVqAnCZiG7Se1GBIFecefvIhdDLnlUBmrdzM9iulxXUbpdr4ymzJvFiocrN6bgw0JfzMenn7gf/T1p+aKT4aMyJmF3EwQKUqTAJ5sz3H8qi0fu68V8jYrpdG+TU5kMIDZQQR3j1ydRyhdwNPMW/uzQa7gvOQ7DotS4hbotEUGQgjSCS915DgtMkDTX9tqi6ZoyRkwRgynqkvQs0hOUgZdElgI4LCldkOY2vB614qf7pjRrKOCcrtFq4SAyUM8aQe3EGfx26ghcYcMTSVScEqZm5hEzTewZyCJpkXVF3UOKM5ERQVIOnwT5ttd93KlnownCDrtz7QThyuzfwdxlOgj0gEdBio0YhNQx+G4Vb757EWMzPiwyNXabIMhFHQNVFodpIZ5MwSnPoNfy8NT992B0iAqRSR8QAkYR8R4SpsBMIcA3z+yuNEdKK1Sh0R56exlSGVdGmy+nRLJZxusgMg2EliUznkUKVRz1f4oXD7yK+wcuIsGIUOptpyAgXUDmCMonf4R3bh+FR9aeIA7OXNQDA9PFiqzjk8skkelJI2kxWWCIHj0ZyS8zznbK1W7v89QEYXvfn0Vnt4AgjL+CK8Uf7mqCQGmOlMXQmzyEwPfwxvtXMF5NIBaj8t6ths/2cKWNhC8tfaxMp6PlW5hnTO8gHwHccgE5VsXpT5zAviGq/c7BGZmrFUEoFAJ8a5cSBMZ89PRw9PYx+ImcTDdcaKaOsFzK/N5YTobjvJVGtJuwo0ehuY/SJgnX2DKdS8A1yKphIObP4gBewZ/1v46Hhs/KmAS97QwE2gmCklqOA6wGIUypaltxfMzMzUsNjKH+XqRjAjFG2jVkBbK2wLq4M7Bd61myn3yY39rIr7We8V2+fzMGQeDCxMu4Ovf3YLusFkPDggDSQbDwr57+KnLpw/A9F798/xqu19KSICy1KpWlzttXDw23avhDlBzfNpaWOrbptQ0nuDBnWR4qRXoEuDMHFG/g9EMncPzIPhkURwSBshhiJsdMgco97y4lxciCQAQh2yPQ0yfgJQbbRNRaAV6KdK2WxC1/bOPWyvx4Mt5Q4KILLzDQX/01vjT0HXzm4LuwSIVPbzsCgYgglMiCcPMwXMrgCOJgrNYo9xwYtrQmFOcrmJsrItubQX82gZhB0SVkQdAmhE7cbE0QOoFiF9toJQgUg3DtbiAIz3wV2fQRBF4dv3p3DBPzNuIWqVsqDXJlP25O4It+b118tuyqJnmp16saWdBWi8pO43OKewhUKVQzBmba8CvzEOUCHj85inuP7EEyTtVLSenz7iAIZEPJZjkyPQH8WEYG/y0OaGt/QCJq1/xX/dS6VlneKbHwG/WbpAeUcWpb4IFAX+U9fHHg7/D0gbfRFyt3TIK9i4/6XdvVcgRBGK68zxScKOMUGEnsCzg+x9RcDXXHw3B/L3IJyDLrFMysicLGhhF79UOtg7AxCLt7NAWHMZLxZR7OT7yKq7M/gJVc7Uqsu+e63t5oXQ4K9AuUkuJLz34VvWkKUgxw7uIV3MrPqUwGitJek3d5IzgJqe4YMA7HN1CsBDBiSbByHk89eBTHDh+AbVLElJKsEVSsCR7iZEGY5vj2K7ssBkFqmJIGgYljo8DevjJmqhRt36lqKCuNHrqXFOshwA0G2wswXQ1QMjI4gDG8OPx9PD/6a/RKD3Yof71Sk/r7bYFAgyDcRzEIh+FCWRCEUZciZaR7ITdpNSKyYEm3w2yphpmZIhLJFIYG+hG3KPSUYhOIRqhsBxWuSiNiYeprNy5c0d9IDThcl4R1jRqLHfn4tEvKq3NWW5TFpawkUaGmxY+dkEJuUTBGg3pLy8pCbUaVK7P0xl798M61GLoBnO5jtQjQMPLAeBKMuTg3/iquFH+A2G4jCHKS5bRYBwUpEkHIpo42Ao/UykBFLDeqndICUo7zUJRU/q4+bDcMSGNBo+BY6MeWv7ceG7YVRcBL1wVJQDNMz1Xxy7fegcsZHrvvEB44PioLqdADq5RNyQ9KojseEkZEEMZ2Vblntd4PYAU2Xngyh8+e3ovpkpJDl3ryjZdT5NYJDTTyBdX8rCkwG+Iv/Twh7WsPSYhcQ+HNo119ivcwBEwnwHsXx/Dx2M/x0qF/xqf3voOMMS8nECmRri3Oq33JbPl+TYJwBu/cOtRwMRBBUJlL4c0UAqZQ1gRK8SS3Q03GJtTg1B1kM3H09WVlWqVFmQ7hyGu8EeRY7NLAkFkWqmTBwuia6FpUVWMSYyPCK88rfBao/ILnBQgCVaOBS61qVUxQWs0MQ0ozGyZkXQb6IyWWVai3etlJrqD6Inqw2o39+ANtQVgtWFu/H61ifRicVPpcnJt4DVeLP4B9FxCE3tSxhlBSpINAOnHd3KhqGhGEwmwJfzh7EQePHMOBPYOIqxKj4QMo5ewgpJKii4QhMFvg+NYru5MgmIGNTz2Zw2eeHMFMifLSu3hPhAFhBAhYAFEHJm+P41DwDTyZOYOsMasCJhlZOTRB6OZzstG+liQIfhzCdMIg2KgHVZRITYWkOWmookcwUK45mJ4pghsG9gwOImsLmPRcEpEPU6SVtWv1k+XGrosKDZI8F038dAYU8EzJqJQVJeBTUSYqB12rYd5xUK3UUHcd+RlVbyaxLCIB0goSuk4it5ws4CSvhcsCT/S5bdtS6TWdiiGdSiGVSqvPLBMxk8Ega6cySIS6Mku7YzRB2Nhd7/LRbRaEiddw7a4hCFTuuQVuWZSki5NR42ECaq6LqlNDb1/fIo97tLJuWhAEijMUpDgGj6rp7JottCBwG596IodPbwFBoIh2aWJmPjwekzUKHjb/B5I3vyddcJ5NZJrBojK73ZoHds393boLWUQQwjTHdgtCs1pvFEPUtAASWfAChunZEmo1B9meJHp70kjQKptW1rQK75o7LJS6DGNlah5HxfVQqTgolSqo12twnLq0EsQTcdixuJzMLduCZdkwDVKPpLTuyPSp3AsNi0hYbZkWMHRdZM0MAvrjw3WIZHiou6o6cSIWQzppI5lMoSfbg2QqiYRFkuXKddFUhFX3XxOErXsO1tGzJggN0EJ3wjpAXP8hoYk7zF0IBXjaK6GpiXO3EwQZJ0LyQi0EoVAKy8iuH+E1HSmERdMAuOGREDGOZMp4sP41sFv/G8L0wXkMJvfASDJRE4Q1YbuVO6+eIMgpLAxSlUth5SSUPJwqYMqQRpSqLqZKVQgeYDDXg3QqDktaHtRqe7MHh3xVCYGK40qrxnSxDJeUpU0LMcNEPBlHMk6p2zG5nxm6B6LAW0HBBO3jt4Xxyq9kEbmw4FWLB0+6Yckdyzlcz4Pr1uHUa3DrLvwgkERjIBPHyGAOmXQGxoK6MpogbOVzsI6+NUFYB2hdPuTuIAiyFoMhkPAtWc3xs58cQb7S3YlYrhvDADTKLTmcMXE//4/Aje/Ics9M0FqR7LObPQV0eYjt8u5WSxCWhiGyKjZnVKINgbAwM1dGsVRFPJXBYC6JBHPkyhzSEhUKW3eMSJLvX1XeDShuqTSHsYk8HMfHwEAOvdmssgxIor2w046dwjLjJIrJIktDtVZDYXoGrlvFkdERDA/2I2ZTCkhopdAxCDvpadMEYfvfrbuIIJgcCU+Ve/7c4yOYKneXICgHKkWok/JEgENpC6fEV8BufA8m82SQqix2tOlrxO0/KnfSGW6MICy+UpXvoqSoq3UPM8WynJOzqRTSqQQsqZ1AFoUwXbYjYAUqHEeYKNc9vPPBh+gb2INcthe2RcHVqj9BkYVbbN4iZdhSaR63blzDvccPY9/IoAoUJjeGJggdGQ1dakQThC4BvYFuNEHYAHhrPFQThDUCtiN27zxBUBRBJSBToB+lKfuYzM8jk7IxkEshbpMzgr7t0Po9IgCC4crHk/jwowl84v5TSNp2aDWggMkAQhbU2trYJLpqCu4cG7uMTNLAI/ffo3DQBGFHPC8tJ6kJwva/Y5ogdO8eaYLQPay711OnCULjzENdNfqdbAb1QGBmZg51z0Mm24P+dBy2oYL1NiywJIOoOXwmcPnGNH773mUcPbQfI0MDSCcTkKkJ0q6xtdUo6Vp9XyBfLGPs2jgO7enDEw+EKeWaIHRv0HemJ00QOoPjZraiCcJmoruwbU0Quod193rqOEFYENAcVfYMpE3BFxbKtQAzcxXYJsdQfxa2ZcGQWh4q8FGmwDQMC6uzMEgpl1BYbezGNH539qYkBD2pOAb6ejHUl0UiRhkKTGUOSK2CSMedLAorZGi16smHh8n070XBjEp0KUzEDtMaVXeO66IwO4tSycFsxYXPBY7ty+GJkwdVurImCN0b9J3pSROEzuC4ma1ogrCZ6GqC0D10t6qnjhOEO1wITaqcK+mk6fk6Zuer6O9Noy+TBMXqkbqCTF1uiCqtkiDIOi2kLBpg/MZt/NOFApDqg/BdiHoFtnDRm0miL5tGJpVEzLIQl4SBRI4o80DZOaT0gZzhFUlp9q4CKyWtIGuFVImMVFwVHZDXxij1kcHnATxPZTI4NQ+zcxXMVqpwPAEjkQWj2jZBHfcMxfDUib3qepmhYxC26iFYX7+aIKwPt24epQlC99DWFoTuYd29nrpJEKKJlFbUXFhwXI65+XmpWpjNZpFOWbI6aystWA1FIOsDVZrkzG8QBCPdryZ+2VkAHviSMFCgLZWvJ6l2Sr9M2gLxeAy2bcKyDZkKaVHBKrI0hJuUVAlPhNQXiQyoZgOpg+D7Pjyfo1IXqLsefFKu54BP+gjCgGnGIKwYYFDlSxVvAK8aEoQ9EJKZaILQvVHfkZ40QegIjJvaiCYImwrvgsY1Qege1t3raSsIAl2dIQUUDLjCQKniYLpYRCqVwNBgn1RhlBqNsg5E5KZYHpPlCAKMKF+CpImYdGOQFLhsl5QWAwF4riIPJJTMA/j0c+TpCC0ZjAUgeQ9FDELZZWqPyIRpKaVEsiqQRcKywEIiQJLUSmyZbCOKYagz4hBuFfcMkwVBE4TujfaO9qQJQkfh3JTGNEHYFFiXbFQThO5h3b2euk0Q5JVFMQA0VUpzvQGn7qFQrksVwv6eNHooiFHWR1hZmXMpgsDSQ0CbEFFkm6BJWkqCy/+tMB4hStBUzgMVSKBUDKJ95bmHqooqn1fVgwl9D8o9QjqJJO8c7qdSLGknFZ9A6cCyJ7IgaILQvYHe+Z7CCFthQTAHFyZew3jx/8JMKRnN3bKph4bB9E3kJyy89Mx/QW/68FanC68S3lDRDJTO5CPBgLmih2+euQKPE3tXW/QMt5or2yVeWn9f6rvWNpY7drmTbj+23WzaGiIVfdfaB/lWfUMgFgg8/3gOn39yL/IlurDupWypmCwKNlPm4UNZD/cHfwN247swpA6Cct1GeK/yBurdthgBSRCsPaje8zJ+PXUEnjBhkdncpDVvu3JpZ05WRSGEIzysgkS/eYihXKujODsrV+aDA31IGgKGyeTqXhVoo9W/sj6oKTxUdGxzMSA9HEokyxEbvgXU5KxqSqifSK8hFFFQ1gqZEdG6hRN6q+ODBroRTvjROZDYkTwvKqCm7B5K60EVZZcVLcktESlAeFUcG4rhyfv2hNkV2sXQmdHVtVbUG09VzPNwceKMIgg0CzXkYO40zUQnqgai2tYyLUX7t09rd2pruX3b+26eB2nryxCfwMD0uI2Xnvmv6E0f2RkEIXrHkElSCKRMA4VCDd989eoCgtC1IbPqjlrHxMoHmQG9cZTU8QtP5PCZxw+iUHWU77JLmxCkT+/KF7LgGRzIzeGB+n+DceM7gOWolzCnYK6Wl3+Xzk13s34E6G65sRH4R/8ev5o+AAQ9MEUATwYNLqyGuP5eVnFkWAWRrP6OL1CYK8P1fPSl0+jJJGHJIm00navqpULYaqSR+V++wayFMQipYaXcuM02Ehkjd4XhVnF0OIbHT+6RREyirYWSttnduuPpqAFJRWqIJBBBmCj+EGaSLAirCZ3ZIdcqbEVceID8hImXnvnajiUIcYMhnYjh3T8UZDTx7tk4OCNLFnDP4QT6swzFKr0cm1aSzb5WaSiVFfIEAhbH/pyHU/F/gFl8E7ACgAp2LeYAABEUSURBVKrc0YuuYZrd7DPS7XcKAd9Ow+37d/jnj1Pw/RRMqnwYRvR37SmSK3fKYlA0gIL7SjUHM2UVIzDcl5Vpi+Cemk4FjX0ya/nyn4DZmiB0akDodlaDgAy1VeYiRgpdv8WF8ZfBGK2WdtEWmsVoBehVE/jMM/8ePcm9O4MChanIlF4kmIDNGHqScaikpF20yZLWYfoX46g583C8JKhWXrc2enXTyocWch4TSFkc/fEYqKod5aDLjcysi3LK2y1oy92bpawq7Ra31qtdyQrT/v2d9l+prXaUV3tN0XFr3X+117mR8272YTIXXpDBZJUhMH0wVpfmcrWy7dKzJIs/qaBElWNI5n8DVWFjfq6EWrWCVDKF3kwagvtwqg5ymTRiNj0btC7XBKFb7wLdj3zZ0R8bgtXkwsgLBNygCCZXSl16aLpwJ6TZWFhSx5xcKanEIJiI7YwrJFMdAF8SBJouycxN5kZbpRK1xBpF1Vvps1YnTePnKFAg3CHKkJK/RpVfW+7Hgld+S4ONwm+hklwjiKnt2MZ5SH9l6AaNPgz9+VGz5O6M/JlyymR0r6LJswuDRNnSZOS5xRlcy4XBDTmJBCZRh8jtpsy/ettZCJB1X1rwYcE3PfnUWFEMT5dqdzcdU81sg0iymVIYK47A9GxZUohMTwaVuRL6e5LI9cZhcn9xmqN2MeysQbjjzlaOWDVp0ltPTqLSJ+fvuEtZ8YSlm4FYu9+YqbrofVzx9JbdIZyMoiJBKshIRQpH77WGxbuVACzV4B0IQhTluGwTbYyjlVys6dgWMtLK0CJ9NllwRp57WK9+/cit+Ugq00S4khUhMKg4joo3kERFunMUOhEUTaxaGUM7gksh2h5HE51q275L3gw1alWPbdYHeZ6tl73UubQe104l13KsugbVQ/v1L9XHSvsshQE9r+3XpN5QzdZWg0G4FqKKnNKbTydtNOskdGktpAhC856oEUXXR9SUsgIscGGiWHIwWSxDMBtxg+PwSBYJkywIbToImiCs+RnXB2gENAIaAY2ARmCHIEC0IbLYGvC8ANPzNcy4FvKzJSBw8eCxfeinwHFGSootQkmaIOyQe6xPUyOgEdAIaAQ0AmtGQBEEIS1UhpRpLjseasJCPSDjgoe+lIVsjCIqtQVhzfDqAzQCGgGNgEZAI7AzEVhoQZBOGxnMGIRCREoDgVxfOkhxZ95hfdYaAY2ARkAjoBFYBwKLCYISQCTRpDB2AgZMyvBZFIMwtIQOQhS4rGIzWkOH1G9KzIiy1lS8j4qEWJyZoy6lGeGxMJukXRy6NYxD6yCsYxjoQzQCGgGNgEZAI7ASAkslyZBI2iKCkB4Aa5ValhlPJgKyPpAwHGUCCQGT2xBGFR4GYLMZxHygbKWQ5BVwYcA1E4gJt5FFRPoqnLI+mECdJWHDlfoNvqD0agEbAWosFko0+/ANCzbph0jLB+k1qEBqLZS00p3W32sENAIaAY2ARmCDCCxbzbFVSVEAFjPgBzUMD/WiWqmj7jMYPsOJgwlcul5HDXVYgQXXNHHvSBw38mXUuI2MHTRUSwVXtSHKHuCyBOK8Rsmh8Fgcwz0mUHdQqDNZbsIWdfgGSTkbICVSJeJM6cKaIGzwluvDNQIaAY2ARkAjsDICKxEEKslsmSaOjPTDFFWMDCQwmZ9DMjeC29en8cVnRvGTNy9iOqiD8x4wg+Nfnz6Cf3z/Gsp1jr987ijqjgdOJZnBMdAbw/ffHMdcPcD+HhN9mTg8ZmEwyXDy2DB+e24SHici4KJQqSM/H8AnbRZKHhVUKEoThJXvqt5DI6AR0AhoBDQCG0TgTgSB3AiyyBMEDmYMPHx8EHHmoDjvoFA1cGu6ii88dxQ38w6MBMeFy1U4Tgn/5pOjeOP8JPL5Gbzw2HH8cew2HAEkLRMvffo4vv3jS3BqDj778AEkzADFaoB7hjKozBcxXbcRUFYFOK7OOvjoZhnCiMHiZIlQOi3axbDBm64P1whoBDQCGgGNwEoIrEQQDMOAbTA8fjCLx08OQFRKKLkmZmsu5hyBYqmIimPg86cP4JXXL6FvaAAv3pvDbybKuHxpDF98+iTO3a5i/74BFAtFJC2On5+dh+MHeOnRvYibHJW6wOHBNIqFKma4CZ8ZqNfreH9sEvOuBcOwYXKyQihNVNOr4uiQLta00r3V32sENAIaAY2ARmDdCKxEEKhhiwl84sggirNF3Dts49yMgdFcHCMZE9dnfFyfKuJPnzuC7//ioowX+KunD+Kti3nMz8/jc5/Yg9/ccPH8vf24OJHHdNlHocww4wKffyCH+VIZScaRyaRQqXCMFTwEJoMXOMiXAniuD2bGSMBauhhkoKVXxT3DMTx1Yo+KbyD3ha7muO4xoA/UCGgENAIaAY3AIgRWQxCScQv3jSThORWcGB3A2Rsl1MplZOImTj98DFfHJ+EIhvfGZzCUjeHPnziA3990cf7iFbz41ClcvjWHJ47246NbRUw7BibyPm7N1fAnpzKo+wL96QQmbxXw+GP34LVfX0AtsDFfrmOO1OuljL0Bg9wdoTq20ARBj2SNgEZAI6AR0AhsLgI08fIWJcW3zxdgpPulDgLFINBGBOGZwzZOP3QQl65MIZZI4NwtB+9fKeKFe/uQjNt483wBASw8dLQfzx9O4wdvfYRqPcATD+6X2Qn3Hh/GrXwFhSrwT2fzqAmGz51IouIz9CUsJDnHw6eG8LsL1+GKDC6Mz+BaidwKMSnwZHEqhKVcDK0EAQYlSDKwVz8s6FpnmztWdOsaAY2ARkAjcBchsJQFgaWIIFC6YTjlCoHHjg1gXy6D35y9ipOHRjBeDjB+u4rH9hsY7I3jjYtlBHUftiHw5WcO4bV3J0DFe59/aD+GMybevDCNNOp48emj+NtXxyVB+JMTScxUPdTrPpKxGF549AB++btrskw1pTTmy3XcmPUQCAuWUIX+liII0sXw2ofTmiDcRQNXX6pGQCOgEdAIbC4CRBComiMJLl+7cRtvXSiASQtCK0HgONYLnNrXi2RfLz6+MYUPrs8jnkzjuceOoTpfwMWPa5iZzsNKJvDSk8fw9nuX8ehDhzA+XsCDowN4/YMJJG3grz51HF//yVVkh0awJ17FVKkOZsWRszx84ZEj+Mnvx1EliwD3kC8LTM558GGqWplS1EnIGITjwzGcvnef0kmgTIuf/lEThM0dKrp1jYBGQCOgEbi7ECABYwsG55Ig/Op8ASzTt4AgxGMWTh5IYU9PEpXSHIJ4DjenZjGYy+HW9BxqtRruvWcUs9MF5PqyiMdjmJrK49CBfnxw6TZe+uRBFIpV1M04Ht2fwnd/cQl9I8O4On4bFd+Ax2Losx38xWfuw/95/SLKgY0EdxCw+AJRZyGrU3Iwt4oTQ3E8fd8+mdkAw9AE4e4atPpqNQIaAY2ARmDzEViZIJgGw74+G7dnavAFQzoRQ5xxBMJAue6DBwJJ20A8YcPjtNAXMBhDzXEgmI1+m2Ou4sC3e7C/18btYhmuH8CwYtI6EMBA0vCwr4fheknAFbaUaAbM1ROEn53VMQibP1h0DxoBjYBGQCNw9yCwkCBQsCFL59pqMQgZA+AYKbnaj3EHMdTBYUqVQ6qTQD9RDACJHC3YmAdDfkf6BmSpEDAFBRuSa0DJJ6uNPvfl8fQ544oeNDdyLiy2IAiShCYLgiYId8+Q1VeqEdAIaAQ0At1AYHUEgbIdokldTenyN+meoI3sAGT+5zIxsVnDkWIbaNKn44kocCIJMu7Bki0QKSByQXLLAaNgRMpWoL4sElfWBKEbQ0D3oRHQCGgENAIagXYEqD4CWQIgOK5ev403zudhpAdhyNW9IgJRcWcSKqKNU+GkRllntR+107QGtM7rylog/xaBqsnAyBZAxzEpfiTPgYIN5X5BWC6aAifbCILsn4N5VZwYphiEvWCGqdr8xdkZncWgx7dGQCOgEdAIaAQ6hgCVcFYE4cr12/jl+TzM9HALQehYRxtuSEiCIMC8Mu4djuP0yb1gzFJKipogbBhf3YBGQCOgEdAIaARaECALgqq0ODaxswjC0yf3AMxWBOEfzs1qC4Ie2BoBjYBGQCOgEegYAk0LwtjErR1jQbhvJI5nTu2TsQqaIHRsMOiGNAIaAY2ARkAjECGwawiCjkHQg1ojoBHQCGgENAKdQ4BDkB9fkIvhFl4/N7UzYhBCCwKjtEhykbx+XhOEzg0K3ZJGQCOgEdAIaAQoo0AFKe4sgpDAM6dUFgM0QdDDWCOgEdAIaAQ0Ap1GQBOETiOq29MIaAQ0AhoBjcAuQGC3EIRzoYuBtBNWm8+wln3bb/VGjl3rsFlrX2vdf63nE+3frX6ov7X2td32Xy/GnT7uTrhsNmadvpbVtLfUNW0Eg/Zj14LZWvZdzbWtdp+19ruZ+6+17dZr7Oaxa+1rrfuv9t51ct5Z6znK/YUSGhIcl0kH4dwkjNQwyLev9BCjyZZ2VsJFzU9IlyDqNBI1ahU3WgqEprTy4pd+sy21V1tbkVCSTzoICTx7ar/MYJAuhje7FIOwVozXOw6283Eag7Xzle18P/W5aQQ0AhqBpRBQU7yssISLNwp44/0xsOwBwLDBqCCCVDqkjZQOFUlQ/wIG8xc2KejztloMizoVACNZ5pZNyCl+wUdSuJkEG8MyzxExofLUvDqDT4z24dkHDgEBV6qOv+oSQdDDSCOgEdAIaAQ0AncDAjQRR5aCOYfjjXfOYqpmgcUzEAbVR1BSxgaoRgKXdRQaU7mI5JgVUkzKJ6+NIFDlR7UcW3wcEZdIipl+JhHmwK0hLap44ZHjONgfh2FQLQhDE4S7YbDqa9QIaAQ0AhqB7iGgLAjKoE9kYK7q4d1LN6Sqom8lEEv3I4gmYZrHuWhYFQRZGFq29RAEaRmgJoWhykSbiihwqvgoGCxDwOAugnoNbq2I/YMZfPLkYezNJREj0kIpmlS14R8vaCXF7g0b3ZNGQCOgEdAI7HYE5BQfxiLIH4VAxTdwa7qI8Vt5TM2W4fiAx20IM/xD8sYmFV1SBEFZAagZE6xR5OkOyEkXg5DEIIpoiCwTgtPnApwH4IELWwRIWhy5TBwHR/oxOpJDXzom95HVICPHhyYIu32o6uvTCGgENAIagW4i0LQBCGnON8ClfDG5FepeAMf1MVcqY7Zax/RcCbPzZcyX67I0Mzfj0jUgKzMSYZBuAiMs9ESxBs2yz9E10cTOWABZeEkSAerXRyxwIYQvXRjJZAz92RSGexPozaSQy6SQTliwLRsmU2WmOTPhMxOmPGdoC0I3B43uSyOgEdAIaAQ0AtEa32cMQcDh+z54EKBWd1Gq1DFbqqHieKj5Ar4fAJyDy8mffqRCUIBgKmqBMSbJg8kC4g6wTBO2HUM8ZqMvk0SuJ41U0kLcNmAxwKbYB2NhnMNyd4S9dbG42uRGfVc1AhoBjYBGQCOgEegQAhQgSEb9KPWQ7AYm9+TkL2QgoymtAkHgSSKhXAgcAcUSSIJAlgMmAxktg8EyLUkWqE2KNQApIsoASB+MhYGQlMYQEouVLoO9fWlOE4SVUNLfawQ0AhoBjYBGoIMI0MRLjge1hdaAMMOAy8k/WuWTW0FZD9RuNP1H2Qnhh7IZckc026O4B3JtqI16Uu4JCApADHsNrRDLXZYmCB284bopjYBGQCOgEdAIrAYBZTlQf7duUvaALANhkGJT2CgSVCJLgEE+BghpFaBJn8iDohssIhICFPUgP+OMKILSW6DkypVklxoE4u1L2sWwmpup99EIaAQ0AhoBjUBnEVhID4guRFaApi4C9dg+pS81xUcKjWyRIh1ZJKRLgowIS7S23DX9fxDTSQAh83veAAAAAElFTkSuQmCC;" vertex="1" parent="ZYQ59FQnp797e-77e3h0-1">
          <mxGeometry x="1220" y="1060" width="520" height="245" as="geometry" />
        </mxCell>
        <mxCell id="xPx-vmTFxCbN-LQDwMqh-41" value="Extends" style="endArrow=block;endSize=16;endFill=0;html=1;rounded=0;fontColor=default;exitX=1;exitY=0.5;exitDx=0;exitDy=0;entryX=0;entryY=0.5;entryDx=0;entryDy=0;" edge="1" parent="ZYQ59FQnp797e-77e3h0-1" source="xPx-vmTFxCbN-LQDwMqh-29" target="xPx-vmTFxCbN-LQDwMqh-40">
          <mxGeometry x="-0.125" y="10" width="160" relative="1" as="geometry">
            <mxPoint x="710" y="850" as="sourcePoint" />
            <mxPoint x="870" y="850" as="targetPoint" />
            <mxPoint as="offset" />
          </mxGeometry>
        </mxCell>
        <mxCell id="xPx-vmTFxCbN-LQDwMqh-42" value="&lt;span style=&quot;font-weight: 400&quot;&gt;Service&lt;br&gt;业务层&amp;nbsp; 减负&lt;br&gt;&lt;/span&gt;" style="shape=folder;fontStyle=1;spacingTop=10;tabWidth=40;tabHeight=14;tabPosition=left;html=1;fontSize=23;fillColor=#d5e8d4;strokeColor=#82b366;" vertex="1" parent="ZYQ59FQnp797e-77e3h0-1">
          <mxGeometry x="1080" y="650" width="190" height="110" as="geometry" />
        </mxCell>
        <mxCell id="xPx-vmTFxCbN-LQDwMqh-44" value="&lt;p style=&quot;margin: 0px ; margin-top: 4px ; text-align: center&quot;&gt;&lt;i&gt;&amp;lt;&amp;lt;Service&amp;gt;&amp;gt;&lt;/i&gt;&lt;br&gt;&lt;b&gt;BookService&lt;/b&gt;&lt;/p&gt;&lt;hr size=&quot;1&quot;&gt;&lt;p style=&quot;margin: 0px ; margin-left: 4px&quot;&gt;- BookDao: @Autowired&lt;br&gt;&lt;/p&gt;&lt;hr size=&quot;1&quot;&gt;&lt;p style=&quot;margin: 0px ; margin-left: 4px&quot;&gt;+ saveObj(Book): BookDao.save()&lt;br&gt;+ findAll():&amp;nbsp;mongoTemplate.findAll()&lt;/p&gt;&lt;p style=&quot;margin: 0px ; margin-left: 4px&quot;&gt;+ getBookById(String id): mongoTemplate.findOne(query, Book)&lt;br&gt;&lt;/p&gt;&lt;p style=&quot;margin: 0px ; margin-left: 4px&quot;&gt;+ getBookByName(String name): mongoTemplate.findOne(query, Book)&lt;br&gt;&lt;/p&gt;&lt;p style=&quot;margin: 0px ; margin-left: 4px&quot;&gt;+ updateBook(Book): mongoTemplate.updateFirst(query, update, Book);&lt;br&gt;&lt;/p&gt;&lt;p style=&quot;margin: 0px ; margin-left: 4px&quot;&gt;+ deleteBook(Book): mongoTemplate.remove();&lt;br&gt;&lt;/p&gt;&lt;p style=&quot;margin: 0px ; margin-left: 4px&quot;&gt;+ deleteBookById(String id): deleteBook(monbook) //调用上面的函数&lt;br&gt;&lt;/p&gt;" style="verticalAlign=top;align=left;overflow=fill;fontSize=12;fontFamily=Helvetica;html=1;" vertex="1" parent="ZYQ59FQnp797e-77e3h0-1">
          <mxGeometry x="1100" y="770" width="410" height="180" as="geometry" />
        </mxCell>
      </root>
    </mxGraphModel>
  </diagram>
</mxfile>
